# This file uses meters as units for non-parametric coordinates.

mtllib Little-Rock-055.mtl
g default
v -412.380127 60.274036 -137.383911
v -375.562744 73.134998 155.204468
v -381.845459 113.432605 65.800171
v -381.873779 114.179065 64.593140
v -353.201904 234.049671 54.639038
v -382.112061 113.613392 65.430054
v -382.169189 113.765979 65.140015
v -382.130615 113.933704 64.873413
v -382.541748 113.618641 65.324097
v -382.846924 113.629627 65.234741
v -382.713135 113.773304 65.000854
v -382.558350 113.915027 64.797729
v -383.351807 113.692493 64.991089
v -383.345459 113.644764 65.087769
v -383.456299 113.659778 65.030640
v -382.596924 113.761951 65.047729
v 325.984619 43.803089 247.038208
v -225.567139 55.997913 336.390259
v -290.801514 55.924671 -374.134888
v 298.005615 41.979602 -324.551392
v -181.298096 332.319935 391.738403
v 271.927490 442.598377 -120.460083
v -72.351318 467.069812 -222.955688
v 94.126709 404.694324 341.070923
v 365.406494 278.366077 -11.213013
v 412.380127 95.786976 -147.391235
v 323.142334 317.909534 -267.994751
v 299.031982 406.684314 105.769409
v 123.189697 336.679676 -353.621216
v 179.719482 64.489978 400.264526
v 30.571533 298.305164 431.839966
v -86.141846 83.869739 421.796021
v -213.352783 307.914173 -324.533813
v -3.976318 176.187977 -431.839966
v -270.310303 116.741443 -411.598755
v 313.544189 223.373768 373.317261
v 352.448486 79.231678 -8.966431
v 199.478760 173.320911 -417.613892
v 362.182373 99.914295 -346.705688
v -404.174561 112.873890 -277.120239
v -348.369873 262.521351 -226.134888
v -233.062744 453.295398 -42.837036
v -150.940186 422.737537 270.772583
v -283.278564 92.539295 359.789917
v 384.138428 151.693226 150.056763
v 166.615967 347.936878 386.249878
v 326.379639 316.426624 251.653931
v 319.239990 84.007312 348.892456
v -307.822021 372.335682 -82.652466
vt 0.608434 0.717131
vt 0.527393 0.698824
vt 0.553899 0.695031
vt 0.295047 0.764063
vt 0.320511 0.726152
vt 0.308574 0.787271
vt 0.554008 0.694966
vt 0.554095 0.694945
vt 0.295148 0.763767
vt 0.295082 0.763894
vt 0.001222 0.000938
vt 0.001185 0.001041
vt 0.001099 0.001088
vt 0.001037 0.001128
vt 0.001196 0.001109
vt 0.001093 0.001169
vt 0.001089 0.001175
vt 0.001228 0.001166
vt 0.005928 0.006821
vt 0.005966 0.006911
vt 0.005834 0.006821
vt 0.001146 0.001206
vt 0.000963 0.001238
vt 0.000954 0.001215
vt 0.010744 0.000960
vt 0.010737 0.000938
vt 0.010762 0.000938
vt 0.001120 0.000976
vt 0.001008 0.001056
vt 0.001049 0.000968
vt 0.010767 0.000963
vt 0.000931 0.001205
vt 0.000987 0.001075
vt 0.000985 0.000938
vt 0.000946 0.001026
vt 0.005869 0.006908
vt 0.295071 0.763658
vt 0.295047 0.763790
vt 0.247470 0.811102
vt 0.295026 0.763880
vt 0.295017 0.763964
vt 0.494230 0.818792
vt 0.466788 0.718719
vt 0.646758 0.776284
vt 0.567532 0.897088
vt 0.384820 0.761941
vt 0.431717 0.905628
vt 0.353529 0.898574
vt 0.414108 0.814128
vt 0.475328 0.884882
vt 0.525398 0.893569
vt 0.466964 0.934447
vt 0.442937 0.867513
vt 0.408485 0.952019
vt 0.465134 0.788935
vt 0.418776 0.784169
vt 0.449583 0.743742
vt 0.703670 0.799840
vt 0.643672 0.851679
vt 0.657725 0.787081
vt 0.458306 0.820176
vt 0.519329 0.862749
vt 0.459093 0.983177
vt 0.553647 0.928077
vt 0.238633 0.851431
vt 0.278309 0.861167
vt 0.306419 0.912806
vt 0.334911 0.846055
vt 0.373806 0.798561
vt 0.426673 0.707411
vt 0.490332 0.849085
vt 0.428679 0.811327
vt 0.454411 0.842513
vt 0.476969 0.813525
vt 0.652476 0.740711
vt 0.376664 0.984076
vt 0.310165 0.838891
vt 0.604314 0.899196
vn -0.191778 -0.981426 0.004857
vn -0.936420 -0.026920 0.349847
vn -0.987203 0.105494 0.119586
vn -0.964040 0.241611 0.110688
vn -0.936420 -0.026920 0.349847
vn -0.910200 0.370630 0.184851
vn -0.987203 0.105494 0.119586
vn -0.936420 -0.026920 0.349847
vn -0.825776 -0.549402 0.127481
vn -0.825776 -0.549402 0.127481
vn -0.936420 -0.026920 0.349847
vn -0.982091 0.147289 0.117483
vn -0.982091 0.147289 0.117483
vn -0.936420 -0.026920 0.349847
vn -0.766381 0.638730 0.068441
vn -0.766381 0.638730 0.068441
vn -0.936420 -0.026920 0.349847
vn -0.964040 0.241611 0.110688
vn -0.987203 0.105494 0.119586
vn -0.825776 -0.549402 0.127481
vn -0.110857 0.865166 0.489079
vn -0.987203 0.105494 0.119586
vn -0.110857 0.865166 0.489079
vn 0.106025 -0.858294 -0.502085
vn -0.825776 -0.549402 0.127481
vn -0.982091 0.147289 0.117483
vn -0.114947 0.866620 0.485549
vn -0.825776 -0.549402 0.127481
vn -0.114947 0.866620 0.485549
vn -0.110857 0.865166 0.489079
vn -0.110857 0.865166 0.489079
vn -0.114947 0.866620 0.485549
vn 0.106025 -0.858294 -0.502085
vn -0.982091 0.147289 0.117483
vn -0.766381 0.638730 0.068441
vn -0.114947 0.866620 0.485549
vn -0.766381 0.638730 0.068441
vn -0.964040 0.241611 0.110688
vn 0.122781 -0.851262 -0.510175
vn -0.766381 0.638730 0.068441
vn 0.122781 -0.851262 -0.510175
vn -0.114947 0.866620 0.485549
vn 0.106025 -0.858294 -0.502085
vn -0.114947 0.866620 0.485549
vn -0.113849 0.876412 0.467910
vn 0.115687 -0.877188 -0.466002
vn 0.106025 -0.858294 -0.502085
vn -0.113849 0.876412 0.467910
vn 0.115687 -0.877188 -0.466002
vn -0.113849 0.876412 0.467910
vn 0.000000 0.000000 1.000000
vn -0.987203 0.105494 0.119586
vn 0.106025 -0.858294 -0.502085
vn -0.825776 -0.549402 0.127481
vn -0.825776 -0.549402 0.127481
vn 0.106025 -0.858294 -0.502085
vn 0.114710 -0.867150 -0.484657
vn -0.825776 -0.549402 0.127481
vn 0.114710 -0.867150 -0.484657
vn -0.982091 0.147289 0.117483
vn 0.106025 -0.858294 -0.502085
vn 0.115687 -0.877188 -0.466002
vn 0.114710 -0.867150 -0.484657
vn 0.115687 -0.877188 -0.466002
vn 0.000000 0.000000 1.000000
vn -0.113849 0.876412 0.467910
vn 0.115687 -0.877188 -0.466002
vn -0.113849 0.876412 0.467910
vn 0.114710 -0.867150 -0.484657
vn 0.114710 -0.867150 -0.484657
vn -0.113849 0.876412 0.467910
vn -0.114947 0.866620 0.485549
vn -0.982091 0.147289 0.117483
vn 0.114710 -0.867150 -0.484657
vn -0.766381 0.638730 0.068441
vn 0.114710 -0.867150 -0.484657
vn -0.114947 0.866620 0.485549
vn 0.122781 -0.851262 -0.510175
vn -0.766381 0.638730 0.068441
vn 0.114710 -0.867150 -0.484657
vn 0.122781 -0.851262 -0.510175
vn -0.766381 0.638730 0.068441
vn 0.122781 -0.851262 -0.510175
vn -0.964040 0.241611 0.110688
vn -0.987203 0.105494 0.119586
vn -0.825776 -0.549402 0.127481
vn -0.191778 -0.981426 0.004857
vn -0.825776 -0.549402 0.127481
vn -0.982091 0.147289 0.117483
vn -0.191778 -0.981426 0.004857
vn -0.982091 0.147289 0.117483
vn -0.766381 0.638730 0.068441
vn -0.191778 -0.981426 0.004857
vn -0.766381 0.638730 0.068441
vn -0.964040 0.241611 0.110688
vn -0.191778 -0.981426 0.004857
vn -0.910200 0.370630 0.184851
vn -0.191778 -0.981426 0.004857
vn -0.964040 0.241611 0.110688
vn -0.191778 -0.981426 0.004857
vn 0.045811 -0.998714 0.021721
vn -0.055145 -0.995539 0.076553
vn 0.045811 -0.998714 0.021721
vn -0.044607 -0.986329 -0.158634
vn 0.090729 -0.972111 -0.216259
vn -0.653022 0.455400 0.605122
vn -0.910200 0.370630 0.184851
vn -0.936420 -0.026920 0.349847
vn 0.301126 0.946901 -0.112699
vn -0.060327 0.982684 -0.175191
vn 0.064120 0.970074 0.234190
vn 0.936217 0.351403 -0.003746
vn 0.994315 -0.081876 -0.068074
vn 0.755104 0.483738 -0.442510
vn 0.064120 0.970074 0.234190
vn 0.579705 0.790692 0.196846
vn 0.301126 0.946901 -0.112699
vn 0.301126 0.946901 -0.112699
vn 0.108726 0.656437 -0.746505
vn -0.060327 0.982684 -0.175191
vn 0.131192 -0.594973 0.792967
vn 0.054191 0.147020 0.987648
vn -0.129574 -0.203999 0.970358
vn -0.321816 0.562824 -0.761357
vn -0.012297 -0.057240 -0.998285
vn -0.384688 0.290679 -0.876083
vn 0.054191 0.147020 0.987648
vn 0.131192 -0.594973 0.792967
vn 0.602094 0.147375 0.784706
vn 0.670690 -0.740093 0.049367
vn 0.045811 -0.998714 0.021721
vn 0.090729 -0.972111 -0.216259
vn -0.012297 -0.057240 -0.998285
vn 0.090729 -0.972111 -0.216259
vn -0.044607 -0.986329 -0.158634
vn 0.321173 0.297938 -0.898933
vn 0.755104 0.483738 -0.442510
vn 0.675206 -0.102971 -0.730406
vn -0.920002 0.271513 -0.282625
vn -0.615338 0.665469 -0.422505
vn -0.321816 0.562824 -0.761357
vn -0.060327 0.982684 -0.175191
vn -0.430195 0.895035 -0.117659
vn -0.215382 0.951878 0.218035
vn -0.060327 0.982684 -0.175191
vn -0.215382 0.951878 0.218035
vn 0.064120 0.970074 0.234190
vn 0.054191 0.147020 0.987648
vn -0.653022 0.455400 0.605122
vn -0.129574 -0.203999 0.970358
vn -0.129574 -0.203999 0.970358
vn -0.653022 0.455400 0.605122
vn -0.676203 -0.039026 0.735681
vn 0.131192 -0.594973 0.792967
vn -0.129574 -0.203999 0.970358
vn -0.055145 -0.995539 0.076553
vn -0.060327 0.982684 -0.175191
vn -0.321816 0.562824 -0.761357
vn -0.615338 0.665469 -0.422505
vn -0.321816 0.562824 -0.761357
vn -0.060327 0.982684 -0.175191
vn 0.108726 0.656437 -0.746505
vn 0.936217 0.351403 -0.003746
vn 0.987235 -0.024554 0.157368
vn 0.994315 -0.081876 -0.068074
vn 0.420503 0.677141 0.603869
vn 0.602094 0.147375 0.784706
vn 0.836405 0.474662 0.274084
vn 0.836405 0.474662 0.274084
vn 0.602094 0.147375 0.784706
vn 0.987235 -0.024554 0.157368
vn 0.602094 0.147375 0.784706
vn 0.785417 -0.318721 0.530601
vn 0.987235 -0.024554 0.157368
vn -0.920002 0.271513 -0.282625
vn -0.321816 0.562824 -0.761357
vn -0.384688 0.290679 -0.876083
vn -0.191778 -0.981426 0.004857
vn -0.044607 -0.986329 -0.158634
vn 0.045811 -0.998714 0.021721
vn 0.785417 -0.318721 0.530601
vn 0.602094 0.147375 0.784706
vn 0.131192 -0.594973 0.792967
vn 0.045811 -0.998714 0.021721
vn 0.131192 -0.594973 0.792967
vn -0.055145 -0.995539 0.076553
vn 0.755104 0.483738 -0.442510
vn 0.108726 0.656437 -0.746505
vn 0.301126 0.946901 -0.112699
vn 0.936217 0.351403 -0.003746
vn 0.755104 0.483738 -0.442510
vn 0.301126 0.946901 -0.112699
vn 0.755104 0.483738 -0.442510
vn 0.321173 0.297938 -0.898933
vn 0.108726 0.656437 -0.746505
vn -0.321816 0.562824 -0.761357
vn 0.108726 0.656437 -0.746505
vn -0.012297 -0.057240 -0.998285
vn 0.090729 -0.972111 -0.216259
vn 0.994315 -0.081876 -0.068074
vn 0.670690 -0.740093 0.049367
vn -0.012297 -0.057240 -0.998285
vn 0.675206 -0.102971 -0.730406
vn 0.090729 -0.972111 -0.216259
vn -0.910200 0.370630 0.184851
vn -0.653022 0.455400 0.605122
vn -0.848282 0.507546 0.151043
vn -0.910200 0.370630 0.184851
vn -0.848282 0.507546 0.151043
vn -0.920002 0.271513 -0.282625
vn -0.215382 0.951878 0.218035
vn -0.848282 0.507546 0.151043
vn -0.653022 0.455400 0.605122
vn -0.653022 0.455400 0.605122
vn 0.064120 0.970074 0.234190
vn -0.215382 0.951878 0.218035
vn -0.012297 -0.057240 -0.998285
vn -0.044607 -0.986329 -0.158634
vn -0.384688 0.290679 -0.876083
vn -0.044607 -0.986329 -0.158634
vn -0.920002 0.271513 -0.282625
vn -0.384688 0.290679 -0.876083
vn 0.054191 0.147020 0.987648
vn 0.602094 0.147375 0.784706
vn 0.420503 0.677141 0.603869
vn 0.054191 0.147020 0.987648
vn 0.064120 0.970074 0.234190
vn -0.653022 0.455400 0.605122
vn -0.910200 0.370630 0.184851
vn -0.920002 0.271513 -0.282625
vn -0.191778 -0.981426 0.004857
vn -0.044607 -0.986329 -0.158634
vn -0.191778 -0.981426 0.004857
vn -0.920002 0.271513 -0.282625
vn 0.755104 0.483738 -0.442510
vn 0.994315 -0.081876 -0.068074
vn 0.675206 -0.102971 -0.730406
vn 0.090729 -0.972111 -0.216259
vn 0.675206 -0.102971 -0.730406
vn 0.994315 -0.081876 -0.068074
vn -0.920002 0.271513 -0.282625
vn -0.848282 0.507546 0.151043
vn -0.615338 0.665469 -0.422505
vn -0.430195 0.895035 -0.117659
vn -0.060327 0.982684 -0.175191
vn -0.615338 0.665469 -0.422505
vn -0.848282 0.507546 0.151043
vn -0.215382 0.951878 0.218035
vn -0.430195 0.895035 -0.117659
vn -0.848282 0.507546 0.151043
vn -0.430195 0.895035 -0.117659
vn -0.615338 0.665469 -0.422505
vn -0.653022 0.455400 0.605122
vn -0.936420 -0.026920 0.349847
vn -0.676203 -0.039026 0.735681
vn -0.936420 -0.026920 0.349847
vn -0.191778 -0.981426 0.004857
vn -0.055145 -0.995539 0.076553
vn 0.836405 0.474662 0.274084
vn 0.987235 -0.024554 0.157368
vn 0.936217 0.351403 -0.003746
vn 0.301126 0.946901 -0.112699
vn 0.579705 0.790692 0.196846
vn 0.936217 0.351403 -0.003746
vn 0.420503 0.677141 0.603869
vn 0.836405 0.474662 0.274084
vn 0.579705 0.790692 0.196846
vn 0.936217 0.351403 -0.003746
vn 0.579705 0.790692 0.196846
vn 0.836405 0.474662 0.274084
vn -0.055145 -0.995539 0.076553
vn -0.129574 -0.203999 0.970358
vn -0.676203 -0.039026 0.735681
vn -0.055145 -0.995539 0.076553
vn -0.676203 -0.039026 0.735681
vn -0.936420 -0.026920 0.349847
vn 0.420503 0.677141 0.603869
vn 0.064120 0.970074 0.234190
vn 0.054191 0.147020 0.987648
vn 0.420503 0.677141 0.603869
vn 0.579705 0.790692 0.196846
vn 0.064120 0.970074 0.234190
vn 0.108726 0.656437 -0.746505
vn 0.321173 0.297938 -0.898933
vn -0.012297 -0.057240 -0.998285
vn 0.675206 -0.102971 -0.730406
vn -0.012297 -0.057240 -0.998285
vn 0.321173 0.297938 -0.898933
vn 0.987235 -0.024554 0.157368
vn 0.785417 -0.318721 0.530601
vn 0.045811 -0.998714 0.021721
vn 0.785417 -0.318721 0.530601
vn 0.131192 -0.594973 0.792967
vn 0.045811 -0.998714 0.021721
vn 0.987235 -0.024554 0.157368
vn 0.045811 -0.998714 0.021721
vn 0.670690 -0.740093 0.049367
vn 0.987235 -0.024554 0.157368
vn 0.670690 -0.740093 0.049367
vn 0.994315 -0.081876 -0.068074
s off
g polySurface1 TextureRockLittle:Group30440
usemtl TextureRockLittle:DefaultMaterial
f 1/1/1 2/2/2 3/3/3
f 4/4/4 2/5/5 5/6/6
f 3/3/7 2/2/8 6/7/9
f 6/7/10 2/2/11 7/8/12
f 7/9/13 2/5/14 8/10/15
f 8/10/16 2/5/17 4/4/18
f 3/11/19 6/12/20 9/13/21
f 3/11/22 9/13/23 10/14/24
f 6/12/25 7/15/26 11/16/27
f 6/12/28 11/16/29 9/13/30
f 9/13/31 11/17/32 10/14/33
f 7/15/34 8/18/35 11/16/36
f 8/19/37 4/20/38 12/21/39
f 8/18/40 12/22/41 11/16/42
f 10/14/43 11/17/44 13/23/45
f 14/24/46 10/14/47 13/23/48
f 14/25/49 13/26/50 15/27/51
f 3/11/52 10/14/53 6/28/54
f 6/28/55 10/14/56 16/29/57
f 6/28/58 16/29/59 7/30/60
f 10/14/61 14/24/62 16/29/63
f 14/25/64 15/27/65 13/31/66
f 14/24/67 13/32/68 16/29/69
f 16/29/70 13/32/71 11/33/72
f 7/30/73 16/29/74 8/34/75
f 16/29/76 11/33/77 12/35/78
f 8/34/79 16/29/80 12/35/81
f 8/36/82 12/21/83 4/20/84
f 3/37/85 6/38/86 1/39/87
f 6/38/88 7/40/89 1/39/90
f 7/40/91 8/41/92 1/39/93
f 8/41/94 4/4/95 1/39/96
f 5/6/97 1/39/98 4/4/99
f 1/1/100 17/42/101 18/43/102
f 17/42/103 19/44/104 20/45/105
f 21/46/106 5/6/107 2/5/108
f 22/47/109 23/48/110 24/49/111
f 25/50/112 26/51/113 27/52/114
f 24/49/115 28/53/116 22/47/117
f 22/47/118 29/54/119 23/48/120
f 30/55/121 31/56/122 32/57/123
f 33/58/124 34/59/125 35/60/126
f 31/56/127 30/55/128 36/61/129
f 37/62/130 17/42/131 20/45/132
f 34/59/133 20/45/134 19/44/135
f 38/63/136 27/52/137 39/64/138
f 40/65/139 41/66/140 33/67/141
f 23/48/142 42/68/143 43/69/144
f 23/48/145 43/69/146 24/49/147
f 31/56/148 21/46/149 32/57/150
f 32/57/151 21/46/152 44/70/153
f 30/55/154 32/57/155 18/43/156
f 23/48/157 33/67/158 41/66/159
f 33/67/160 23/48/161 29/54/162
f 25/50/163 45/71/164 26/51/165
f 46/72/166 36/61/167 47/73/168
f 47/73/169 36/61/170 45/71/171
f 36/61/172 48/74/173 45/71/174
f 40/75/175 33/58/176 35/60/177
f 1/1/178 19/44/179 17/42/180
f 48/74/181 36/61/182 30/55/183
f 17/42/184 30/55/185 18/43/186
f 27/52/187 29/54/188 22/47/189
f 25/50/190 27/52/191 22/47/192
f 27/52/193 38/63/194 29/54/195
f 33/67/196 29/54/197 34/76/198
f 20/45/199 26/51/200 37/62/201
f 34/59/202 39/64/203 20/45/204
f 5/6/205 21/46/206 49/77/207
f 5/6/208 49/77/209 40/65/210
f 43/69/211 49/77/212 21/46/213
f 21/46/214 24/49/215 43/69/216
f 34/59/217 19/44/218 35/60/219
f 19/44/220 40/75/221 35/60/222
f 31/56/223 36/61/224 46/72/225
f 31/56/226 24/49/227 21/46/228
f 5/6/229 40/65/230 1/39/231
f 19/44/232 1/1/233 40/75/234
f 27/52/235 26/51/236 39/64/237
f 20/45/238 39/64/239 26/51/240
f 40/65/241 49/77/242 41/66/243
f 42/68/244 23/48/245 41/66/246
f 49/77/247 43/69/248 42/68/249
f 49/77/250 42/68/251 41/66/252
f 21/46/253 2/5/254 44/70/255
f 2/2/256 1/1/257 18/43/258
f 47/73/259 45/71/260 25/50/261
f 22/47/262 28/53/263 25/50/264
f 46/72/265 47/73/266 28/53/267
f 25/50/268 28/53/269 47/73/270
f 18/43/271 32/57/272 44/70/273
f 18/43/274 44/70/275 2/2/276
f 46/72/277 24/49/278 31/56/279
f 46/72/280 28/53/281 24/49/282
f 29/54/283 38/63/284 34/76/285
f 39/64/286 34/59/287 38/78/288
f 45/71/289 48/74/290 17/42/291
f 48/74/292 30/55/293 17/42/294
f 45/71/295 17/42/296 37/62/297
f 45/71/298 37/62/299 26/51/300
