# This file uses meters as units for non-parametric coordinates.

mtllib Little-Rock-06.mtl
g default
v -160.461914 355.428694 123.985840
v -74.646973 517.381331 32.526855
v -233.620605 204.598127 -71.473145
v 187.994141 418.012678 45.286133
v 108.301758 446.233626 -74.663086
v -77.034668 391.477034 218.751221
v -31.041992 130.326521 249.836426
v 143.012695 242.830183 251.094238
v 65.292969 282.759871 -193.200195
v -189.077637 233.624495 -205.614746
v -79.022949 471.232405 -86.864014
v -83.120117 4.018904 199.176025
v -161.308594 17.152083 -141.965820
v 143.182129 5.878401 -201.381348
v -248.150391 112.389876 112.535889
v -254.466309 37.279402 14.870850
v -174.499512 204.936262 201.635498
v 226.259277 265.448225 -164.149414
v 209.723145 348.871809 172.754883
v 243.388184 131.875349 175.959473
v 95.797363 17.140364 238.393799
v 239.476563 23.897566 13.098633
v 254.466309 53.454207 -147.984375
v -212.936035 138.693709 -206.965576
v 163.632324 124.611067 -251.094238
v 67.280762 466.931624 193.367920
vt 0.937684 0.250214
vt 0.999999 0.320388
vt 0.925176 0.289239
vt 0.951687 0.429405
vt 0.955004 0.385281
vt 0.931926 0.213244
vt 0.846653 0.241203
vt 0.837107 0.193111
vt 0.930187 0.363368
vt 0.929621 0.317746
vt 0.973046 0.334180
vt 0.840781 0.281695
vt 0.894248 0.310855
vt 0.879621 0.355691
vt 0.891785 0.267259
vt 0.890616 0.284832
vt 0.891232 0.245774
vt 0.917163 0.393656
vt 0.903677 0.444093
vt 0.847305 0.415318
vt 0.799775 0.318636
vt 0.853217 0.374089
vt 0.878214 0.374256
vt 0.916438 0.311509
vt 0.900081 0.366540
vt 0.980248 0.460390
vt 0.840398 0.460390
vt 0.947790 0.182473
vn -0.881918 0.420294 0.213478
vn -0.493786 0.869420 0.016879
vn -0.937825 0.340170 -0.069054
vn -0.493786 0.869420 0.016879
vn 0.644666 0.763569 -0.036989
vn 0.346189 0.769900 -0.536103
vn -0.317997 0.365767 0.874695
vn -0.164359 -0.038413 0.985652
vn 0.214325 0.107771 0.970799
vn -0.881918 0.420294 0.213478
vn -0.317997 0.365767 0.874695
vn -0.493786 0.869420 0.016879
vn 0.065658 0.466132 -0.882276
vn -0.448208 0.446251 -0.774577
vn -0.130511 0.645859 -0.752219
vn -0.199651 -0.939030 0.279932
vn -0.209019 -0.946217 -0.246952
vn 0.031874 -0.955173 -0.294326
vn -0.926877 0.014650 0.375079
vn -0.811826 -0.583613 -0.018278
vn -0.199651 -0.939030 0.279932
vn -0.164359 -0.038413 0.985652
vn -0.317997 0.365767 0.874695
vn -0.597786 0.031211 0.801048
vn 0.898774 0.317525 -0.302297
vn 0.905666 0.310473 0.288749
vn 0.960765 -0.037078 0.274874
vn 0.236066 -0.831016 0.503672
vn 0.529539 -0.836852 0.138807
vn 0.960765 -0.037078 0.274874
vn 0.898774 0.317525 -0.302297
vn 0.960765 -0.037078 0.274874
vn 0.965679 -0.130416 -0.224623
vn 0.031874 -0.955173 -0.294326
vn -0.481840 -0.296539 -0.824557
vn 0.132621 0.036899 -0.990480
vn -0.937825 0.340170 -0.069054
vn -0.811826 -0.583613 -0.018278
vn -0.926877 0.014650 0.375079
vn 0.031874 -0.955173 -0.294326
vn -0.209019 -0.946217 -0.246952
vn -0.481840 -0.296539 -0.824557
vn 0.905666 0.310473 0.288749
vn 0.240568 0.755336 0.609586
vn 0.214325 0.107771 0.970799
vn 0.644666 0.763569 -0.036989
vn -0.493786 0.869420 0.016879
vn 0.240568 0.755336 0.609586
vn 0.898774 0.317525 -0.302297
vn 0.965679 -0.130416 -0.224623
vn 0.132621 0.036899 -0.990480
vn 0.065658 0.466132 -0.882276
vn -0.130511 0.645859 -0.752219
vn 0.346189 0.769900 -0.536103
vn 0.132621 0.036899 -0.990480
vn 0.965679 -0.130416 -0.224623
vn 0.031874 -0.955173 -0.294326
vn 0.529539 -0.836852 0.138807
vn 0.236066 -0.831016 0.503672
vn 0.031874 -0.955173 -0.294326
vn 0.214325 0.107771 0.970799
vn 0.960765 -0.037078 0.274874
vn 0.905666 0.310473 0.288749
vn 0.214325 0.107771 0.970799
vn 0.236066 -0.831016 0.503672
vn 0.960765 -0.037078 0.274874
vn 0.346189 0.769900 -0.536103
vn 0.644666 0.763569 -0.036989
vn 0.898774 0.317525 -0.302297
vn 0.065658 0.466132 -0.882276
vn 0.346189 0.769900 -0.536103
vn 0.898774 0.317525 -0.302297
vn -0.199651 -0.939030 0.279932
vn -0.811826 -0.583613 -0.018278
vn -0.209019 -0.946217 -0.246952
vn -0.209019 -0.946217 -0.246952
vn -0.811826 -0.583613 -0.018278
vn -0.481840 -0.296539 -0.824557
vn 0.240568 0.755336 0.609586
vn -0.493786 0.869420 0.016879
vn -0.317997 0.365767 0.874695
vn -0.317997 0.365767 0.874695
vn 0.214325 0.107771 0.970799
vn 0.240568 0.755336 0.609586
vn -0.130511 0.645859 -0.752219
vn -0.493786 0.869420 0.016879
vn 0.346189 0.769900 -0.536103
vn -0.130511 0.645859 -0.752219
vn -0.448208 0.446251 -0.774577
vn -0.493786 0.869420 0.016879
vn -0.199651 -0.939030 0.279932
vn 0.031874 -0.955173 -0.294326
vn 0.236066 -0.831016 0.503672
vn -0.164359 -0.038413 0.985652
vn -0.597786 0.031211 0.801048
vn -0.199651 -0.939030 0.279932
vn 0.529539 -0.836852 0.138807
vn 0.031874 -0.955173 -0.294326
vn 0.965679 -0.130416 -0.224623
vn 0.960765 -0.037078 0.274874
vn 0.529539 -0.836852 0.138807
vn 0.965679 -0.130416 -0.224623
vn -0.481840 -0.296539 -0.824557
vn -0.811826 -0.583613 -0.018278
vn -0.937825 0.340170 -0.069054
vn -0.448208 0.446251 -0.774577
vn -0.937825 0.340170 -0.069054
vn -0.493786 0.869420 0.016879
vn -0.937825 0.340170 -0.069054
vn -0.926877 0.014650 0.375079
vn -0.881918 0.420294 0.213478
vn -0.597786 0.031211 0.801048
vn -0.317997 0.365767 0.874695
vn -0.881918 0.420294 0.213478
vn 0.898774 0.317525 -0.302297
vn 0.644666 0.763569 -0.036989
vn 0.905666 0.310473 0.288749
vn 0.644666 0.763569 -0.036989
vn 0.240568 0.755336 0.609586
vn 0.905666 0.310473 0.288749
vn 0.236066 -0.831016 0.503672
vn -0.164359 -0.038413 0.985652
vn -0.199651 -0.939030 0.279932
vn 0.214325 0.107771 0.970799
vn -0.164359 -0.038413 0.985652
vn 0.236066 -0.831016 0.503672
vn -0.448208 0.446251 -0.774577
vn -0.481840 -0.296539 -0.824557
vn -0.937825 0.340170 -0.069054
vn 0.132621 0.036899 -0.990480
vn -0.481840 -0.296539 -0.824557
vn -0.448208 0.446251 -0.774577
vn 0.132621 0.036899 -0.990480
vn -0.448208 0.446251 -0.774577
vn 0.065658 0.466132 -0.882276
vn 0.898774 0.317525 -0.302297
vn 0.132621 0.036899 -0.990480
vn 0.065658 0.466132 -0.882276
vn -0.881918 0.420294 0.213478
vn -0.926877 0.014650 0.375079
vn -0.597786 0.031211 0.801048
vn -0.597786 0.031211 0.801048
vn -0.926877 0.014650 0.375079
vn -0.199651 -0.939030 0.279932
s off
g polySurface6 TextureRockLittle:Group30440
usemtl TextureRockLittle:DefaultMaterial
f 1/1/1 2/2/2 3/3/3
f 2/2/4 4/4/5 5/5/6
f 6/6/7 7/7/8 8/8/9
f 1/1/10 6/6/11 2/2/12
f 9/9/13 10/10/14 11/11/15
f 12/12/16 13/13/17 14/14/18
f 15/15/19 16/16/20 12/12/21
f 7/7/22 6/6/23 17/17/24
f 18/18/25 19/19/26 20/20/27
f 21/21/28 22/22/29 20/20/30
f 18/18/31 20/20/32 23/23/33
f 14/14/34 24/24/35 25/25/36
f 3/3/37 16/16/38 15/15/39
f 14/14/40 13/13/41 24/24/42
f 19/19/43 26/26/44 8/27/45
f 4/4/46 2/2/47 26/26/48
f 18/18/49 23/23/50 25/25/51
f 9/9/52 11/11/53 5/5/54
f 25/25/55 23/23/56 14/14/57
f 22/22/58 21/21/59 14/14/60
f 8/27/61 20/20/62 19/19/63
f 8/27/64 21/21/65 20/20/66
f 5/5/67 4/4/68 18/18/69
f 9/9/70 5/5/71 18/18/72
f 12/12/73 16/16/74 13/13/75
f 13/13/76 16/16/77 24/24/78
f 26/28/79 2/2/80 6/6/81
f 6/6/82 8/8/83 26/28/84
f 11/11/85 2/2/86 5/5/87
f 11/11/88 10/10/89 2/2/90
f 12/12/91 14/14/92 21/21/93
f 7/7/94 17/17/95 12/12/96
f 22/22/97 14/14/98 23/23/99
f 20/20/100 22/22/101 23/23/102
f 24/24/103 16/16/104 3/3/105
f 10/10/106 3/3/107 2/2/108
f 3/3/109 15/15/110 1/1/111
f 17/17/112 6/6/113 1/1/114
f 18/18/115 4/4/116 19/19/117
f 4/4/118 26/26/119 19/19/120
f 21/21/121 7/7/122 12/12/123
f 8/8/124 7/7/125 21/21/126
f 10/10/127 24/24/128 3/3/129
f 25/25/130 24/24/131 10/10/132
f 25/25/133 10/10/134 9/9/135
f 18/18/136 25/25/137 9/9/138
f 1/1/139 15/15/140 17/17/141
f 17/17/142 15/15/143 12/12/144
