# This file uses meters as units for non-parametric coordinates.

mtllib Little-Rock-01.mtl
g default
v 471.477051 512.149841 27.381958
v 436.947754 145.214783 -194.912964
v 405.953613 708.296326 -260.366577
v 208.367188 11.498474 -88.625854
v 420.630127 80.590637 -118.556519
v 460.428711 155.909241 -4.265991
v -7.092041 88.496765 -265.218140
v -70.642090 11.105164 -98.588745
v -280.740723 173.810852 -260.421753
v -315.684814 467.058533 -258.967163
v -165.672119 710.157654 -254.490601
v 127.723633 626.539978 -468.396362
v 93.301758 367.513367 -450.170288
v -3.191650 403.439148 167.606567
v -26.721924 105.595032 152.369019
v 362.523926 190.258240 67.785278
v 72.548340 778.131531 -346.355835
v 273.212158 604.849304 -442.050659
v -206.119141 746.049988 40.577271
v -321.117676 566.522156 -75.958374
v -257.794189 513.605164 83.406860
v 100.485596 515.331970 146.492065
v 372.725586 814.640320 -79.772827
v -63.146729 815.957214 31.398071
v 27.720947 632.868835 110.067505
v -183.421875 440.976501 142.659546
v -337.198242 209.864319 -60.565308
v -195.423584 116.538879 93.177368
v 274.666260 886.592224 -158.163452
v 190.525146 891.652527 -274.859253
v 57.111328 903.713318 -71.726929
v 340.325195 69.535706 -225.924683
v 345.040283 236.997009 -327.971558
v 185.566162 151.538757 -377.166382
v 65.531494 877.489685 -172.351440
v -273.511963 776.379089 -100.952026
v 245.327637 839.023865 -340.570679
v -333.645508 370.024109 -15.060425
v -253.509033 201.109192 105.573364
v -137.535156 368.734558 -356.328979
v -353.503174 317.129578 -199.695679
v 3.534912 910.807312 -157.574585
v -226.084961 810.912781 -178.877808
v -156.134033 868.642761 -58.901733
v -0.000244 0.000061 0.000122
vt 0.173275 0.710460
vt 0.077964 0.755818
vt 0.116392 0.666093
vt 0.337547 0.664674
vt 0.306855 0.727670
vt 0.234084 0.757581
vt 0.367550 0.532393
vt 0.333899 0.547201
vt 0.173716 0.432902
vt 0.162709 0.502293
vt 0.147263 0.557012
vt 0.082960 0.588724
vt 0.050684 0.565337
vt 0.003027 0.526038
vt 0.248114 0.622045
vt 0.300491 0.611358
vt 0.239871 0.722988
vt 0.117527 0.594692
vt 0.075673 0.629808
vt 0.196957 0.578343
vt 0.194274 0.535315
vt 0.223299 0.563847
vt 0.223573 0.643583
vt 0.150528 0.659039
vt 0.186729 0.601529
vt 0.212402 0.624184
vt 0.240172 0.582778
vt 0.234638 0.508015
vt 0.286486 0.561597
vt 0.140075 0.638525
vt 0.125266 0.620354
vt 0.161052 0.611878
vt 0.367550 0.700904
vt 0.046899 0.697313
vt 0.020665 0.625942
vt 0.145296 0.606600
vt 0.178133 0.561419
vt 0.112271 0.625701
vt 0.223185 0.528093
vt 0.267978 0.557445
vt 0.120211 0.511331
vt 0.187167 0.481655
vt 0.153918 0.600226
vt 0.164861 0.565009
vt 0.175549 0.584287
vt 0.322707 0.591776
vt 0.000012 0.728033
vt 0.099503 0.781029
vn 0.847635 0.164764 0.504349
vn 0.921292 -0.054405 -0.385048
vn 0.909435 0.199161 -0.365052
vn 0.231769 -0.928724 0.289405
vn 0.521355 -0.851905 0.049470
vn 0.643118 -0.577830 0.502505
vn -0.162083 -0.719748 -0.675049
vn -0.310515 -0.927566 -0.207850
vn -0.490335 -0.522620 -0.697452
vn -0.669190 0.187745 -0.718983
vn -0.416132 0.503769 -0.757001
vn -0.322783 0.244897 -0.914241
vn -0.151794 -0.281912 -0.947357
vn -0.162083 -0.719748 -0.675049
vn -0.490335 -0.522620 -0.697452
vn 0.098012 0.012664 0.995105
vn 0.092836 -0.438472 0.893937
vn 0.306169 -0.086311 0.948056
vn -0.416132 0.503769 -0.757001
vn -0.340527 0.605672 -0.719168
vn -0.322783 0.244897 -0.914241
vn 0.921292 -0.054405 -0.385048
vn 0.582680 -0.001332 -0.812700
vn 0.909435 0.199161 -0.365052
vn -0.476236 0.385957 0.790087
vn -0.961564 0.205469 0.182145
vn -0.772859 0.159686 0.614157
vn 0.266759 0.210619 0.940468
vn 0.847635 0.164764 0.504349
vn 0.437870 0.545972 0.714272
vn 0.437870 0.545972 0.714272
vn 0.083664 0.561732 0.823078
vn 0.054440 0.377691 0.924330
vn 0.054440 0.377691 0.924330
vn -0.476236 0.385957 0.790087
vn -0.226709 0.120536 0.966475
vn -0.802691 -0.589218 0.092246
vn -0.310515 -0.927566 -0.207850
vn -0.508843 -0.797379 0.324446
vn 0.643118 -0.577830 0.502505
vn 0.092836 -0.438472 0.893937
vn 0.231769 -0.928724 0.289405
vn 0.485735 0.870933 -0.074418
vn -0.223494 0.892498 -0.391788
vn 0.082588 0.911063 0.403910
vn 0.847635 0.164764 0.504349
vn 0.909435 0.199161 -0.365052
vn 0.437870 0.545972 0.714272
vn -0.162083 -0.719748 -0.675049
vn 0.190458 -0.848106 -0.494411
vn -0.310515 -0.927566 -0.207850
vn 0.564683 -0.247124 -0.787441
vn 0.174333 -0.446560 -0.877606
vn 0.582680 -0.001332 -0.812700
vn -0.416132 0.503769 -0.757001
vn -0.255612 0.802822 -0.538645
vn -0.223494 0.892498 -0.391788
vn -0.961564 0.205469 0.182145
vn -0.476236 0.385957 0.790087
vn -0.917538 0.395135 0.044638
vn 0.909435 0.199161 -0.365052
vn 0.365197 0.601911 -0.710165
vn 0.485735 0.870933 -0.074418
vn 0.582680 -0.001332 -0.812700
vn 0.365197 0.601911 -0.710165
vn 0.909435 0.199161 -0.365052
vn -0.669190 0.187745 -0.718983
vn -0.961564 0.205469 0.182145
vn -0.917538 0.395135 0.044638
vn -0.490335 -0.522620 -0.697452
vn -0.310515 -0.927566 -0.207850
vn -0.802691 -0.589218 0.092246
vn -0.772859 0.159686 0.614157
vn -0.938012 0.043184 0.343902
vn -0.614626 -0.120317 0.779589
vn 0.092836 -0.438472 0.893937
vn 0.098012 0.012664 0.995105
vn -0.226709 0.120536 0.966475
vn -0.490335 -0.522620 -0.697452
vn -0.669190 0.187745 -0.718983
vn -0.428895 -0.027826 -0.902926
vn -0.990118 -0.022379 -0.138440
vn -0.669190 0.187745 -0.718983
vn -0.490335 -0.522620 -0.697452
vn 0.083664 0.561732 0.823078
vn 0.437870 0.545972 0.714272
vn 0.082588 0.911063 0.403910
vn -0.166777 0.824006 -0.541478
vn -0.545657 0.590548 -0.594568
vn -0.378593 0.877102 0.295566
vn -0.226709 0.120536 0.966475
vn -0.614626 -0.120317 0.779589
vn 0.092836 -0.438472 0.893937
vn -0.077983 -0.928434 0.363219
vn 0.092836 -0.438472 0.893937
vn -0.508843 -0.797379 0.324446
vn -0.545657 0.590548 -0.594568
vn -0.416132 0.503769 -0.757001
vn -0.669190 0.187745 -0.718983
vn -0.545657 0.590548 -0.594568
vn -0.166777 0.824006 -0.541478
vn -0.416132 0.503769 -0.757001
vn 0.847635 0.164764 0.504349
vn 0.643118 -0.577830 0.502505
vn 0.921292 -0.054405 -0.385048
vn 0.847635 0.164764 0.504349
vn 0.266759 0.210619 0.940468
vn 0.306169 -0.086311 0.948056
vn 0.054440 0.377691 0.924330
vn 0.083664 0.561732 0.823078
vn -0.476236 0.385957 0.790087
vn -0.378593 0.877102 0.295566
vn -0.917538 0.395135 0.044638
vn -0.476236 0.385957 0.790087
vn 0.582680 -0.001332 -0.812700
vn 0.174333 -0.446560 -0.877606
vn -0.151794 -0.281912 -0.947357
vn -0.669190 0.187745 -0.718983
vn -0.322783 0.244897 -0.914241
vn -0.428895 -0.027826 -0.902926
vn -0.322783 0.244897 -0.914241
vn 0.582680 -0.001332 -0.812700
vn -0.151794 -0.281912 -0.947357
vn -0.322783 0.244897 -0.914241
vn 0.365197 0.601911 -0.710165
vn 0.582680 -0.001332 -0.812700
vn 0.174333 -0.446560 -0.877606
vn 0.564683 -0.247124 -0.787441
vn 0.190458 -0.848106 -0.494411
vn 0.521355 -0.851905 0.049470
vn 0.921292 -0.054405 -0.385048
vn 0.643118 -0.577830 0.502505
vn 0.921292 -0.054405 -0.385048
vn 0.564683 -0.247124 -0.787441
vn 0.582680 -0.001332 -0.812700
vn 0.190458 -0.848106 -0.494411
vn 0.564683 -0.247124 -0.787441
vn 0.921292 -0.054405 -0.385048
vn 0.082588 0.911063 0.403910
vn -0.378593 0.877102 0.295566
vn 0.083664 0.561732 0.823078
vn -0.378593 0.877102 0.295566
vn -0.476236 0.385957 0.790087
vn 0.083664 0.561732 0.823078
vn -0.990118 -0.022379 -0.138440
vn -0.961564 0.205469 0.182145
vn -0.669190 0.187745 -0.718983
vn -0.614626 -0.120317 0.779589
vn -0.938012 0.043184 0.343902
vn -0.802691 -0.589218 0.092246
vn 0.485735 0.870933 -0.074418
vn 0.437870 0.545972 0.714272
vn 0.909435 0.199161 -0.365052
vn 0.437870 0.545972 0.714272
vn 0.485735 0.870933 -0.074418
vn 0.082588 0.911063 0.403910
vn 0.174333 -0.446560 -0.877606
vn -0.162083 -0.719748 -0.675049
vn -0.151794 -0.281912 -0.947357
vn 0.190458 -0.848106 -0.494411
vn -0.162083 -0.719748 -0.675049
vn 0.174333 -0.446560 -0.877606
vn -0.990118 -0.022379 -0.138440
vn -0.490335 -0.522620 -0.697452
vn -0.802691 -0.589218 0.092246
vn -0.802691 -0.589218 0.092246
vn -0.938012 0.043184 0.343902
vn -0.990118 -0.022379 -0.138440
vn 0.306169 -0.086311 0.948056
vn 0.092836 -0.438472 0.893937
vn 0.643118 -0.577830 0.502505
vn 0.306169 -0.086311 0.948056
vn 0.643118 -0.577830 0.502505
vn 0.847635 0.164764 0.504349
vn -0.310515 -0.927566 -0.207850
vn -0.077983 -0.928434 0.363219
vn -0.508843 -0.797379 0.324446
vn 0.231769 -0.928724 0.289405
vn -0.310515 -0.927566 -0.207850
vn 0.190458 -0.848106 -0.494411
vn -0.223494 0.892498 -0.391788
vn -0.255612 0.802822 -0.538645
vn 0.082588 0.911063 0.403910
vn 0.082588 0.911063 0.403910
vn -0.166777 0.824006 -0.541478
vn -0.378593 0.877102 0.295566
vn -0.917538 0.395135 0.044638
vn -0.545657 0.590548 -0.594568
vn -0.669190 0.187745 -0.718983
vn -0.545657 0.590548 -0.594568
vn -0.917538 0.395135 0.044638
vn -0.378593 0.877102 0.295566
vn -0.310515 -0.927566 -0.207850
vn 0.231769 -0.928724 0.289405
vn -0.077983 -0.928434 0.363219
vn -0.077983 -0.928434 0.363219
vn 0.231769 -0.928724 0.289405
vn 0.092836 -0.438472 0.893937
vn -0.226709 0.120536 0.966475
vn -0.772859 0.159686 0.614157
vn -0.614626 -0.120317 0.779589
vn -0.772859 0.159686 0.614157
vn -0.226709 0.120536 0.966475
vn -0.476236 0.385957 0.790087
vn -0.490335 -0.522620 -0.697452
vn -0.428895 -0.027826 -0.902926
vn -0.151794 -0.281912 -0.947357
vn -0.428895 -0.027826 -0.902926
vn -0.322783 0.244897 -0.914241
vn -0.151794 -0.281912 -0.947357
vn 0.082588 0.911063 0.403910
vn -0.255612 0.802822 -0.538645
vn -0.166777 0.824006 -0.541478
vn -0.416132 0.503769 -0.757001
vn -0.166777 0.824006 -0.541478
vn -0.255612 0.802822 -0.538645
vn 0.521355 -0.851905 0.049470
vn 0.231769 -0.928724 0.289405
vn 0.190458 -0.848106 -0.494411
vn 0.921292 -0.054405 -0.385048
vn 0.521355 -0.851905 0.049470
vn 0.190458 -0.848106 -0.494411
vn 0.306169 -0.086311 0.948056
vn 0.266759 0.210619 0.940468
vn 0.098012 0.012664 0.995105
vn -0.226709 0.120536 0.966475
vn 0.098012 0.012664 0.995105
vn 0.054440 0.377691 0.924330
vn -0.508843 -0.797379 0.324446
vn -0.614626 -0.120317 0.779589
vn -0.802691 -0.589218 0.092246
vn 0.092836 -0.438472 0.893937
vn -0.614626 -0.120317 0.779589
vn -0.508843 -0.797379 0.324446
vn 0.054440 0.377691 0.924330
vn 0.098012 0.012664 0.995105
vn 0.266759 0.210619 0.940468
vn 0.437870 0.545972 0.714272
vn 0.054440 0.377691 0.924330
vn 0.266759 0.210619 0.940468
vn -0.961564 0.205469 0.182145
vn -0.938012 0.043184 0.343902
vn -0.772859 0.159686 0.614157
vn -0.961564 0.205469 0.182145
vn -0.990118 -0.022379 -0.138440
vn -0.938012 0.043184 0.343902
vn -0.416132 0.503769 -0.757001
vn -0.223494 0.892498 -0.391788
vn -0.340527 0.605672 -0.719168
vn -0.340527 0.605672 -0.719168
vn 0.365197 0.601911 -0.710165
vn -0.322783 0.244897 -0.914241
vn 0.365197 0.601911 -0.710165
vn -0.340527 0.605672 -0.719168
vn -0.223494 0.892498 -0.391788
vn 0.365197 0.601911 -0.710165
vn -0.223494 0.892498 -0.391788
vn 0.485735 0.870933 -0.074418
s off
g polySurface4 TextureRockLittle:Group30440
usemtl TextureRockLittle:DefaultMaterial
f 1/1/1 2/2/2 3/3/3
f 4/4/4 5/5/5 6/6/6
f 7/7/7 8/8/8 9/9/9
f 10/10/10 11/11/11 12/12/12
f 13/13/13 7/14/14 9/9/15
f 14/15/16 15/16/17 16/17/18
f 11/11/19 17/18/20 12/12/21
f 2/2/22 18/19/23 3/3/24
f 19/20/25 20/21/26 21/22/27
f 22/23/28 1/1/29 23/24/30
f 23/24/31 24/25/32 25/26/33
f 25/26/34 19/20/35 26/27/36
f 27/28/37 8/8/38 28/29/39
f 6/6/40 15/16/41 4/4/42
f 29/30/43 30/31/44 31/32/45
f 1/1/46 3/3/47 23/24/48
f 7/7/49 32/33/50 8/8/51
f 33/34/52 34/35/53 18/19/54
f 11/11/55 35/36/56 30/31/57
f 20/21/58 19/20/59 36/37/60
f 3/3/61 37/38/62 29/30/63
f 18/19/64 37/38/65 3/3/66
f 10/10/67 20/21/68 36/37/69
f 9/9/70 8/8/71 27/28/72
f 21/22/73 38/39/74 39/40/75
f 15/16/76 14/15/77 26/27/78
f 9/9/79 10/10/80 40/41/81
f 41/42/82 10/10/83 9/9/84
f 24/25/85 23/24/86 31/32/87
f 42/43/88 43/44/89 44/45/90
f 26/27/91 39/40/92 15/16/93
f 45/46/94 15/16/95 28/29/96
f 43/44/97 11/11/98 10/10/99
f 43/44/100 42/43/101 11/11/102
f 1/1/103 6/6/104 2/2/105
f 1/1/106 22/23/107 16/17/108
f 25/26/109 24/25/110 19/20/111
f 44/45/112 36/37/113 19/20/114
f 18/19/115 34/35/116 13/13/117
f 10/10/118 12/12/119 40/41/120
f 12/12/121 18/19/122 13/13/123
f 12/12/124 37/38/125 18/19/126
f 34/35/127 33/34/128 32/47/129
f 5/48/130 2/2/131 6/6/132
f 2/2/133 33/34/134 18/19/135
f 32/47/136 33/34/137 2/2/138
f 31/32/139 44/45/140 24/25/141
f 44/45/142 19/20/143 24/25/144
f 41/42/145 20/21/146 10/10/147
f 39/40/148 38/39/149 27/28/150
f 29/30/151 23/24/152 3/3/153
f 23/24/154 29/30/155 31/32/156
f 34/35/157 7/14/158 13/13/159
f 32/47/160 7/14/161 34/35/162
f 41/42/163 9/9/164 27/28/165
f 27/28/166 38/39/167 41/42/168
f 16/17/169 15/16/170 6/6/171
f 16/17/172 6/6/173 1/1/174
f 8/8/175 45/46/176 28/29/177
f 4/4/178 8/8/179 32/33/180
f 30/31/181 35/36/182 31/32/183
f 31/32/184 42/43/185 44/45/186
f 36/37/187 43/44/188 10/10/189
f 43/44/190 36/37/191 44/45/192
f 8/8/193 4/4/194 45/46/195
f 45/46/196 4/4/197 15/16/198
f 26/27/199 21/22/200 39/40/201
f 21/22/202 26/27/203 19/20/204
f 9/9/205 40/41/206 13/13/207
f 40/41/208 12/12/209 13/13/210
f 31/32/211 35/36/212 42/43/213
f 11/11/214 42/43/215 35/36/216
f 5/5/217 4/4/218 32/33/219
f 2/2/220 5/48/221 32/47/222
f 16/17/223 22/23/224 14/15/225
f 26/27/226 14/15/227 25/26/228
f 28/29/229 39/40/230 27/28/231
f 15/16/232 39/40/233 28/29/234
f 25/26/235 14/15/236 22/23/237
f 23/24/238 25/26/239 22/23/240
f 20/21/241 38/39/242 21/22/243
f 20/21/244 41/42/245 38/39/246
f 11/11/247 30/31/248 17/18/249
f 17/18/250 37/38/251 12/12/252
f 37/38/253 17/18/254 30/31/255
f 37/38/256 30/31/257 29/30/258
