# This file uses meters as units for non-parametric coordinates.

mtllib Little-Rock-04.mtl
g default
v 197.787842 255.891049 -157.339600
v -76.480713 206.833310 -246.549072
v -168.295654 237.380917 142.042725
v -62.734619 104.540707 -290.832764
v -252.136963 135.953793 -7.868896
v -68.276123 162.139462 -311.222900
v 148.441650 201.685605 -274.490967
v 207.744385 90.313901 -313.055420
v 212.981201 220.574033 171.555176
v 121.526611 135.193539 310.459717
v 227.082764 73.741147 -117.675049
v -118.983154 35.344540 -105.586670
v -95.748779 35.029355 251.496338
v -251.045654 54.851743 188.800049
v -6.637451 256.137021 307.864746
v -95.078369 226.727719 263.909912
v -221.277588 154.924863 265.037842
v 174.026611 42.448544 -244.816162
v 29.829346 34.425839 289.952148
v 173.396240 268.271298 148.598145
v 256.003662 195.670102 -169.028564
v -256.003662 78.951352 18.305420
v -65.702393 123.658505 313.055420
vt 0.073618 0.930227
vt 0.015110 0.928993
vt 0.041404 0.828363
vt 0.201775 0.946731
vt 0.213593 0.858974
vt 0.213593 0.955453
vt 0.072682 0.953243
vt 0.115666 0.981194
vt 0.096805 0.876117
vt 0.109769 0.848987
vt 0.121200 0.933560
vt 0.188579 0.896678
vt 0.140267 0.819095
vt 0.167397 0.802646
vt 0.085516 0.827649
vt 0.079466 0.810098
vt 0.079235 0.780091
vt 0.000000 0.832131
vt 0.138308 0.955116
vt 0.130176 0.841275
vt 0.087333 0.874086
vt 0.093166 0.937772
vt 0.200999 0.850444
vt 0.112407 0.822888
vt 0.042734 0.778926
vt 0.002555 0.814173
vt 0.005486 0.951308
vn 0.035093 0.985657 -0.165070
vn -0.296642 0.923857 -0.241850
vn -0.273221 0.960504 -0.052750
vn -0.439539 -0.686077 -0.579745
vn -0.872421 0.432481 -0.227688
vn -0.394286 0.284714 -0.873771
vn 0.137506 0.722283 -0.677790
vn 0.035093 0.985657 -0.165070
vn 0.528123 -0.104012 -0.842773
vn 0.922450 0.077563 0.378247
vn 0.695634 -0.340944 0.632338
vn 0.787866 -0.594295 0.161497
vn -0.121924 -0.986501 -0.109315
vn -0.211444 -0.876262 0.432962
vn -0.587173 -0.793594 0.159489
vn 0.695634 -0.340944 0.632338
vn 0.922450 0.077563 0.378247
vn 0.078267 0.816738 0.571676
vn -0.211444 -0.876262 0.432962
vn -0.457579 0.390113 0.799020
vn -0.751165 0.317518 0.578735
vn -0.872421 0.432481 -0.227688
vn -0.273221 0.960504 -0.052750
vn -0.296642 0.923857 -0.241850
vn -0.394286 0.284714 -0.873771
vn 0.528123 -0.104012 -0.842773
vn -0.439539 -0.686077 -0.579745
vn -0.121924 -0.986501 -0.109315
vn 0.070939 -0.989729 -0.124115
vn 0.204347 -0.964781 0.165651
vn 0.137000 0.990329 0.021899
vn 0.035093 0.985657 -0.165070
vn -0.273221 0.960504 -0.052750
vn 0.922450 0.077563 0.378247
vn 0.787866 -0.594295 0.161497
vn 0.970367 0.238835 -0.036699
vn -0.872421 0.432481 -0.227688
vn -0.751165 0.317518 0.578735
vn -0.273221 0.960504 -0.052750
vn -0.587173 -0.793594 0.159489
vn -0.713485 -0.610751 -0.343398
vn -0.121924 -0.986501 -0.109315
vn -0.273221 0.960504 -0.052750
vn 0.078267 0.816738 0.571676
vn 0.137000 0.990329 0.021899
vn -0.273221 0.960504 -0.052750
vn -0.751165 0.317518 0.578735
vn -0.457579 0.390113 0.799020
vn 0.078267 0.816738 0.571676
vn -0.269428 -0.099060 0.957912
vn 0.695634 -0.340944 0.632338
vn 0.204347 -0.964781 0.165651
vn 0.787866 -0.594295 0.161497
vn 0.695634 -0.340944 0.632338
vn -0.751165 0.317518 0.578735
vn -0.872421 0.432481 -0.227688
vn -0.587173 -0.793594 0.159489
vn -0.751165 0.317518 0.578735
vn -0.587173 -0.793594 0.159489
vn -0.211444 -0.876262 0.432962
vn 0.528123 -0.104012 -0.842773
vn 0.970367 0.238835 -0.036699
vn 0.787866 -0.594295 0.161497
vn 0.070939 -0.989729 -0.124115
vn 0.787866 -0.594295 0.161497
vn 0.204347 -0.964781 0.165651
vn 0.078267 0.816738 0.571676
vn 0.922450 0.077563 0.378247
vn 0.137000 0.990329 0.021899
vn 0.922450 0.077563 0.378247
vn 0.970367 0.238835 -0.036699
vn 0.137000 0.990329 0.021899
vn -0.439539 -0.686077 -0.579745
vn 0.070939 -0.989729 -0.124115
vn -0.121924 -0.986501 -0.109315
vn -0.713485 -0.610751 -0.343398
vn -0.439539 -0.686077 -0.579745
vn -0.121924 -0.986501 -0.109315
vn -0.121924 -0.986501 -0.109315
vn 0.204347 -0.964781 0.165651
vn -0.211444 -0.876262 0.432962
vn 0.695634 -0.340944 0.632338
vn -0.269428 -0.099060 0.957912
vn 0.204347 -0.964781 0.165651
vn -0.269428 -0.099060 0.957912
vn -0.211444 -0.876262 0.432962
vn 0.204347 -0.964781 0.165651
vn -0.269428 -0.099060 0.957912
vn -0.457579 0.390113 0.799020
vn -0.211444 -0.876262 0.432962
vn 0.137000 0.990329 0.021899
vn 0.970367 0.238835 -0.036699
vn 0.035093 0.985657 -0.165070
vn 0.528123 -0.104012 -0.842773
vn 0.035093 0.985657 -0.165070
vn 0.970367 0.238835 -0.036699
vn -0.439539 -0.686077 -0.579745
vn 0.528123 -0.104012 -0.842773
vn 0.070939 -0.989729 -0.124115
vn 0.787866 -0.594295 0.161497
vn 0.070939 -0.989729 -0.124115
vn 0.528123 -0.104012 -0.842773
vn -0.269428 -0.099060 0.957912
vn 0.078267 0.816738 0.571676
vn -0.457579 0.390113 0.799020
vn 0.078267 0.816738 0.571676
vn -0.273221 0.960504 -0.052750
vn -0.457579 0.390113 0.799020
vn -0.439539 -0.686077 -0.579745
vn -0.713485 -0.610751 -0.343398
vn -0.872421 0.432481 -0.227688
vn -0.587173 -0.793594 0.159489
vn -0.872421 0.432481 -0.227688
vn -0.713485 -0.610751 -0.343398
vn 0.137506 0.722283 -0.677790
vn -0.296642 0.923857 -0.241850
vn 0.035093 0.985657 -0.165070
vn -0.394286 0.284714 -0.873771
vn 0.137506 0.722283 -0.677790
vn 0.528123 -0.104012 -0.842773
vn -0.394286 0.284714 -0.873771
vn -0.296642 0.923857 -0.241850
vn 0.137506 0.722283 -0.677790
vn -0.872421 0.432481 -0.227688
vn -0.296642 0.923857 -0.241850
vn -0.394286 0.284714 -0.873771
s off
g polySurface8 TextureRockLittle:Group30440
usemtl TextureRockLittle:DefaultMaterial
f 1/1/1 2/2/2 3/3/3
f 4/4/4 5/5/5 6/6/6
f 7/7/7 1/1/8 8/8/9
f 9/9/10 10/10/11 11/11/12
f 12/12/13 13/13/14 14/14/15
f 10/10/16 9/9/17 15/15/18
f 13/13/19 16/16/20 17/17/21
f 5/18/22 3/3/23 2/2/24
f 6/6/25 8/8/26 4/4/27
f 12/12/28 18/19/29 19/20/30
f 20/21/31 1/1/32 3/3/33
f 9/9/34 11/11/35 21/22/36
f 5/18/37 17/17/38 3/3/39
f 14/14/40 22/23/41 12/12/42
f 3/3/43 15/15/44 20/21/45
f 3/3/46 17/17/47 16/16/48
f 15/15/49 23/24/50 10/10/51
f 19/20/52 11/11/53 10/10/54
f 17/17/55 5/18/56 14/25/57
f 17/17/58 14/14/59 13/13/60
f 8/8/61 21/22/62 11/11/63
f 18/19/64 11/11/65 19/20/66
f 15/15/67 9/9/68 20/21/69
f 9/9/70 21/22/71 20/21/72
f 4/4/73 18/19/74 12/12/75
f 22/23/76 4/4/77 12/12/78
f 12/12/79 19/20/80 13/13/81
f 10/10/82 23/24/83 19/20/84
f 23/24/85 13/13/86 19/20/87
f 23/24/88 16/16/89 13/13/90
f 20/21/91 21/22/92 1/1/93
f 8/8/94 1/1/95 21/22/96
f 4/4/97 8/8/98 18/19/99
f 11/11/100 18/19/101 8/8/102
f 23/24/103 15/15/104 16/16/105
f 15/15/106 3/3/107 16/16/108
f 4/4/109 22/23/110 5/5/111
f 14/25/112 5/18/113 22/26/114
f 7/7/115 2/2/116 1/1/117
f 6/27/118 7/7/119 8/8/120
f 6/27/121 2/2/122 7/7/123
f 5/18/124 2/2/125 6/27/126
