# This file uses meters as units for non-parametric coordinates.

mtllib Little-Rock-02.mtl
g default
v 473.553955 303.977544 268.741943
v 272.834961 496.177373 75.141357
v -277.381836 317.968144 244.749268
v 165.989502 409.212529 -309.385986
v -300.902588 311.452031 -193.488037
v -137.616211 420.605351 -163.323975
v -527.921631 160.685430 -139.812744
v -98.614746 95.925298 -247.867920
v -217.237549 -52.861812 -76.282471
v -124.916260 59.559331 329.665771
v -205.133057 184.553227 332.386963
v -399.324219 44.718999 264.952393
v -500.387207 -34.516963 30.450928
v 330.353027 271.279912 -332.386963
v 303.474731 454.325566 -276.063232
v 528.402344 257.046147 -145.972412
v 623.113525 172.109746 134.306885
v 556.582520 240.410893 226.462646
v 433.619385 109.885381 272.200928
v -623.113525 166.378545 -18.303467
v -211.613281 426.241826 -44.822998
v 114.486816 -2.668452 -117.269775
v 374.062622 525.410283 -128.565674
v 464.015625 503.712529 -55.124756
v 31.841309 2.477788 100.970459
v -93.735596 -58.731441 -48.137451
v 527.592773 395.944707 79.806885
v 571.452148 92.156621 -73.007568
v 420.470703 -32.232417 -23.183350
v 314.539551 109.694463 -238.787354
v 507.497803 20.423100 96.353760
v 4.026123 502.460332 52.470459
v 285.093140 13.768682 104.249268
v 234.704834 56.262090 285.393555
v -495.829834 110.988652 252.244385
v -574.684326 152.813237 189.089111
vt 0.671034 0.174814
vt 0.724756 0.190409
vt 0.715960 0.275586
vt 0.759631 0.122661
vt 0.827021 0.094578
vt 0.792553 0.151818
vt 0.864388 0.028093
vt 0.744263 0.065331
vt 0.561848 0.065875
vt 0.588392 0.173528
vt 0.648632 0.232290
vt 0.593173 0.207745
vt 0.405257 0.054128
vt 0.724527 0.111396
vt 0.742940 0.131803
vt 0.702350 0.130973
vt 0.672367 0.145803
vt 0.670818 0.158198
vt 0.645954 0.152554
vt 0.748344 0.000038
vt 0.771538 0.420409
vt 0.776180 0.231690
vt 0.633267 0.085674
vt 0.735377 0.154739
vt 0.720787 0.159435
vt 0.589857 0.114753
vt 0.562099 0.089716
vt 0.698526 0.161723
vt 0.678458 0.123838
vt 0.654733 0.113483
vt 0.697235 0.097144
vt 0.654806 0.130128
vt 0.754323 0.209894
vt 0.626582 0.125004
vt 0.621025 0.152630
vt 0.647795 0.267393
vt 0.674522 0.303771
vn 0.103419 0.450067 0.886986
vn 0.066242 0.815959 0.574302
vn -0.249714 0.765789 0.592630
vn -0.220631 0.187140 -0.957236
vn -0.461985 0.649571 -0.603844
vn -0.230371 0.899567 -0.371092
vn -0.359284 -0.262620 -0.895514
vn -0.141705 -0.400425 -0.905306
vn -0.179123 -0.735603 -0.653301
vn 0.021806 -0.704091 0.709775
vn 0.103419 0.450067 0.886986
vn -0.070770 0.273474 0.959272
vn -0.326709 -0.787153 0.523118
vn -0.326079 -0.942478 0.073541
vn 0.021806 -0.704091 0.709775
vn 0.262865 -0.167180 -0.950238
vn 0.271571 0.716327 -0.642748
vn 0.819277 0.267850 -0.506992
vn -0.359284 -0.262620 -0.895514
vn -0.220631 0.187140 -0.957236
vn -0.141705 -0.400425 -0.905306
vn 0.998027 0.000975 0.062774
vn 0.743044 0.187906 0.642321
vn 0.409377 -0.456070 0.790196
vn -0.727647 0.685163 -0.032871
vn -0.359284 -0.262620 -0.895514
vn -0.326079 -0.942478 0.073541
vn -0.727647 0.685163 -0.032871
vn -0.483249 0.875318 0.017019
vn -0.461985 0.649571 -0.603844
vn 0.059209 -0.937586 -0.342677
vn -0.179123 -0.735603 -0.653301
vn -0.141705 -0.400425 -0.905306
vn 0.091024 0.950331 -0.297635
vn 0.778533 0.620328 -0.095281
vn 0.819277 0.267850 -0.506992
vn 0.778533 0.620328 -0.095281
vn 0.091024 0.950331 -0.297635
vn 0.066242 0.815959 0.574302
vn 0.059209 -0.937586 -0.342677
vn 0.087838 -0.975149 0.203393
vn 0.063826 -0.973920 0.217729
vn 0.103419 0.450067 0.886986
vn 0.580870 0.711481 0.395456
vn 0.066242 0.815959 0.574302
vn 0.580870 0.711481 0.395456
vn 0.743044 0.187906 0.642321
vn 0.998027 0.000975 0.062774
vn 0.698870 -0.479630 -0.530599
vn 0.180665 -0.944681 -0.273748
vn 0.181783 -0.670212 -0.719563
vn 0.998027 0.000975 0.062774
vn 0.409377 -0.456070 0.790196
vn 0.416866 -0.851926 0.316931
vn 0.416866 -0.851926 0.316931
vn 0.698870 -0.479630 -0.530599
vn 0.998027 0.000975 0.062774
vn 0.998027 0.000975 0.062774
vn 0.819277 0.267850 -0.506992
vn 0.778533 0.620328 -0.095281
vn 0.091024 0.950331 -0.297635
vn -0.230371 0.899567 -0.371092
vn -0.190801 0.972482 0.133695
vn -0.249714 0.765789 0.592630
vn -0.190801 0.972482 0.133695
vn -0.483249 0.875318 0.017019
vn 0.181783 -0.670212 -0.719563
vn 0.180665 -0.944681 -0.273748
vn 0.059209 -0.937586 -0.342677
vn 0.180665 -0.944681 -0.273748
vn -0.004402 -0.980173 0.198095
vn 0.059209 -0.937586 -0.342677
vn 0.181783 -0.670212 -0.719563
vn 0.059209 -0.937586 -0.342677
vn -0.141705 -0.400425 -0.905306
vn 0.262865 -0.167180 -0.950238
vn -0.141705 -0.400425 -0.905306
vn -0.220631 0.187140 -0.957236
vn 0.091024 0.950331 -0.297635
vn 0.819277 0.267850 -0.506992
vn 0.271571 0.716327 -0.642748
vn 0.271571 0.716327 -0.642748
vn -0.230371 0.899567 -0.371092
vn 0.091024 0.950331 -0.297635
vn 0.087838 -0.975149 0.203393
vn 0.021806 -0.704091 0.709775
vn 0.063826 -0.973920 0.217729
vn 0.105652 -0.721767 0.684025
vn 0.103419 0.450067 0.886986
vn 0.021806 -0.704091 0.709775
vn -0.004402 -0.980173 0.198095
vn 0.416866 -0.851926 0.316931
vn 0.105652 -0.721767 0.684025
vn 0.105652 -0.721767 0.684025
vn 0.021806 -0.704091 0.709775
vn 0.087838 -0.975149 0.203393
vn -0.727647 0.685163 -0.032871
vn -0.249714 0.765789 0.592630
vn -0.483249 0.875318 0.017019
vn 0.021806 -0.704091 0.709775
vn -0.070770 0.273474 0.959272
vn -0.336368 0.133592 0.932207
vn 0.698870 -0.479630 -0.530599
vn 0.262865 -0.167180 -0.950238
vn 0.819277 0.267850 -0.506992
vn 0.998027 0.000975 0.062774
vn 0.698870 -0.479630 -0.530599
vn 0.819277 0.267850 -0.506992
vn -0.862843 0.081631 0.498837
vn -0.249714 0.765789 0.592630
vn -0.727647 0.685163 -0.032871
vn -0.862843 0.081631 0.498837
vn -0.727647 0.685163 -0.032871
vn -0.326079 -0.942478 0.073541
vn -0.179123 -0.735603 -0.653301
vn -0.326079 -0.942478 0.073541
vn -0.359284 -0.262620 -0.895514
vn -0.326079 -0.942478 0.073541
vn 0.063826 -0.973920 0.217729
vn 0.021806 -0.704091 0.709775
vn 0.262865 -0.167180 -0.950238
vn 0.181783 -0.670212 -0.719563
vn -0.141705 -0.400425 -0.905306
vn 0.262865 -0.167180 -0.950238
vn 0.698870 -0.479630 -0.530599
vn 0.181783 -0.670212 -0.719563
vn -0.336368 0.133592 0.932207
vn -0.070770 0.273474 0.959272
vn -0.249714 0.765789 0.592630
vn 0.103419 0.450067 0.886986
vn -0.249714 0.765789 0.592630
vn -0.070770 0.273474 0.959272
vn 0.066242 0.815959 0.574302
vn 0.091024 0.950331 -0.297635
vn -0.190801 0.972482 0.133695
vn -0.249714 0.765789 0.592630
vn 0.066242 0.815959 0.574302
vn -0.190801 0.972482 0.133695
vn -0.004402 -0.980173 0.198095
vn 0.180665 -0.944681 -0.273748
vn 0.416866 -0.851926 0.316931
vn 0.698870 -0.479630 -0.530599
vn 0.416866 -0.851926 0.316931
vn 0.180665 -0.944681 -0.273748
vn -0.461985 0.649571 -0.603844
vn -0.220631 0.187140 -0.957236
vn -0.359284 -0.262620 -0.895514
vn -0.727647 0.685163 -0.032871
vn -0.461985 0.649571 -0.603844
vn -0.359284 -0.262620 -0.895514
vn -0.483249 0.875318 0.017019
vn -0.230371 0.899567 -0.371092
vn -0.461985 0.649571 -0.603844
vn -0.483249 0.875318 0.017019
vn -0.190801 0.972482 0.133695
vn -0.230371 0.899567 -0.371092
vn -0.230371 0.899567 -0.371092
vn 0.271571 0.716327 -0.642748
vn -0.220631 0.187140 -0.957236
vn 0.271571 0.716327 -0.642748
vn 0.262865 -0.167180 -0.950238
vn -0.220631 0.187140 -0.957236
vn 0.409377 -0.456070 0.790196
vn 0.103419 0.450067 0.886986
vn 0.105652 -0.721767 0.684025
vn 0.409377 -0.456070 0.790196
vn 0.105652 -0.721767 0.684025
vn 0.416866 -0.851926 0.316931
vn 0.778533 0.620328 -0.095281
vn 0.580870 0.711481 0.395456
vn 0.998027 0.000975 0.062774
vn 0.066242 0.815959 0.574302
vn 0.580870 0.711481 0.395456
vn 0.778533 0.620328 -0.095281
vn -0.862843 0.081631 0.498837
vn -0.326079 -0.942478 0.073541
vn -0.326709 -0.787153 0.523118
vn -0.326709 -0.787153 0.523118
vn 0.021806 -0.704091 0.709775
vn -0.336368 0.133592 0.932207
vn -0.336368 0.133592 0.932207
vn -0.249714 0.765789 0.592630
vn -0.862843 0.081631 0.498837
vn -0.862843 0.081631 0.498837
vn -0.326709 -0.787153 0.523118
vn -0.336368 0.133592 0.932207
vn 0.105652 -0.721767 0.684025
vn 0.087838 -0.975149 0.203393
vn -0.004402 -0.980173 0.198095
vn 0.087838 -0.975149 0.203393
vn 0.059209 -0.937586 -0.342677
vn -0.004402 -0.980173 0.198095
vn -0.179123 -0.735603 -0.653301
vn 0.059209 -0.937586 -0.342677
vn 0.063826 -0.973920 0.217729
vn -0.179123 -0.735603 -0.653301
vn 0.063826 -0.973920 0.217729
vn -0.326079 -0.942478 0.073541
vn 0.103419 0.450067 0.886986
vn 0.743044 0.187906 0.642321
vn 0.580870 0.711481 0.395456
vn 0.409377 -0.456070 0.790196
vn 0.743044 0.187906 0.642321
vn 0.103419 0.450067 0.886986
s off
g polySurface2 TextureRockLittle:Group30440
usemtl TextureRockLittle:DefaultMaterial
f 1/1/1 2/2/2 3/3/3
f 4/4/4 5/5/5 6/6/6
f 7/7/7 8/8/8 9/9/9
f 10/10/10 1/1/11 11/11/12
f 12/12/13 13/13/14 10/10/15
f 14/14/16 15/15/17 16/16/18
f 7/7/19 4/4/20 8/8/21
f 17/17/22 18/18/23 19/19/24
f 20/20/25 7/7/26 13/13/27
f 20/21/28 21/22/29 5/5/30
f 22/23/31 9/9/32 8/8/33
f 23/24/34 24/25/35 16/16/36
f 24/25/37 23/24/38 2/2/39
f 22/23/40 25/26/41 26/27/42
f 1/1/43 27/28/44 2/2/45
f 27/28/46 18/18/47 17/17/48
f 28/29/49 29/30/50 30/31/51
f 17/17/52 19/19/53 31/32/54
f 31/32/55 28/29/56 17/17/57
f 17/17/58 16/16/59 24/25/60
f 23/24/61 6/6/62 32/33/63
f 3/3/64 32/33/65 21/22/66
f 30/31/67 29/30/68 22/23/69
f 29/30/70 33/34/71 22/23/72
f 30/31/73 22/23/74 8/8/75
f 14/14/76 8/8/77 4/4/78
f 23/24/79 16/16/80 15/15/81
f 15/15/82 6/6/83 23/24/84
f 25/26/85 10/10/86 26/27/87
f 34/35/88 1/1/89 10/10/90
f 33/34/91 31/32/92 34/35/93
f 34/35/94 10/10/95 25/26/96
f 20/21/97 3/3/98 21/22/99
f 10/10/100 11/11/101 35/36/102
f 28/29/103 14/14/104 16/16/105
f 17/17/106 28/29/107 16/16/108
f 36/37/109 3/3/110 20/21/111
f 36/37/112 20/21/113 13/13/114
f 9/9/115 13/13/116 7/7/117
f 13/13/118 26/27/119 10/10/120
f 14/14/121 30/31/122 8/8/123
f 14/14/124 28/29/125 30/31/126
f 35/36/127 11/11/128 3/3/129
f 1/1/130 3/3/131 11/11/132
f 2/2/133 23/24/134 32/33/135
f 3/3/136 2/2/137 32/33/138
f 33/34/139 29/30/140 31/32/141
f 28/29/142 31/32/143 29/30/144
f 5/5/145 4/4/146 7/7/147
f 20/21/148 5/5/149 7/7/150
f 21/22/151 6/6/152 5/5/153
f 21/22/154 32/33/155 6/6/156
f 6/6/157 15/15/158 4/4/159
f 15/15/160 14/14/161 4/4/162
f 19/19/163 1/1/164 34/35/165
f 19/19/166 34/35/167 31/32/168
f 24/25/169 27/28/170 17/17/171
f 2/2/172 27/28/173 24/25/174
f 36/37/175 13/13/176 12/12/177
f 12/12/178 10/10/179 35/36/180
f 35/36/181 3/3/182 36/37/183
f 36/37/184 12/12/185 35/36/186
f 34/35/187 25/26/188 33/34/189
f 25/26/190 22/23/191 33/34/192
f 9/9/193 22/23/194 26/27/195
f 9/9/196 26/27/197 13/13/198
f 1/1/199 18/18/200 27/28/201
f 19/19/202 18/18/203 1/1/204
