# This file uses meters as units for non-parametric coordinates.

mtllib Little-Rock-08.mtl
g default
v -87.996338 752.462414 -283.527588
v -213.473877 779.424084 -28.247070
v 305.107666 685.174572 24.927490
v -268.624268 373.935802 324.996094
v -74.108643 752.853039 213.590576
v -334.439209 476.991466 178.629150
v 294.493896 -3.364247 295.149414
v -312.005615 -3.733875 344.281006
v -310.171631 -3.431507 -248.727051
v -208.731689 16.192516 401.864502
v 133.486084 8.152233 426.867920
v -88.916748 647.719738 279.027588
v -398.819092 253.785534 -230.368164
v -335.681396 521.370128 -190.445557
v -230.642334 516.512218 -354.549072
v -432.958740 211.088024 66.649658
v -417.961670 26.781017 281.163330
v 330.594971 660.834728 -129.006592
v 283.262451 -2.102528 -304.073486
v 389.847412 540.020519 181.217773
v 407.230713 47.872082 116.461670
v 432.958740 420.366222 -46.386719
v 408.186279 326.836193 -277.061768
v 423.559326 66.819713 -80.239014
v 382.557373 56.918835 -293.817627
v 333.498779 189.297130 351.612061
v 247.200928 687.298839 168.283203
v -249.082275 104.802502 -426.867920
v -27.906494 369.405285 -391.667725
v -23.646729 115.824596 -422.696045
v 284.294189 509.918224 -306.627686
v -328.289795 122.235485 -363.495850
v 179.195557 195.850597 -376.741943
v 4.176025 58.876354 -363.536377
v -205.585205 -3.208973 -341.276123
v 159.621826 654.483410 -294.469971
v 235.545654 128.026012 405.819336
v -340.108643 90.028332 390.934814
v 410.952393 531.701671 -135.201172
v 360.349365 72.743542 288.240234
v 380.173584 2.384899 -109.408691
v -327.471436 576.278332 -53.810059
v -222.547119 767.619640 69.145996
vt 0.390759 0.590338
vt 0.428347 0.534301
vt 0.538895 0.644138
vt 0.540240 0.453421
vt 0.476150 0.527022
vt 0.491379 0.448847
vt 0.628437 0.529513
vt 0.638713 0.416323
vt 0.771192 0.498071
vt 0.623359 0.438409
vt 0.612693 0.502167
vt 0.496542 0.514120
vt 0.833148 0.490378
vt 0.910579 0.506761
vt 0.860527 0.575242
vt 0.759748 0.418418
vt 0.640706 0.380958
vt 0.570248 0.697144
vt 0.706082 0.578401
vt 0.563418 0.608654
vt 0.638203 0.564655
vt 0.608721 0.633246
vt 0.671269 0.635360
vt 0.658881 0.585974
vt 0.691726 0.593294
vt 0.596670 0.550429
vt 0.530707 0.597761
vt 0.797582 0.534506
vt 0.799008 0.606406
vt 0.773477 0.571405
vt 0.700091 0.660454
vt 0.807286 0.515724
vt 0.729991 0.600423
vt 0.756330 0.562627
vt 0.772576 0.524940
vt 0.729659 0.678816
vt 0.847350 0.693060
vt 0.596389 0.528194
vt 0.610788 0.419450
vt 0.605326 0.665428
vt 0.618324 0.546201
vt 0.670581 0.575993
vt 0.521074 0.380958
vt 0.387758 0.456953
vt 0.420936 0.468841
vt 0.443555 0.516866
vn -0.071223 0.835060 -0.545529
vn -0.171008 0.978814 -0.112607
vn 0.285612 0.958308 0.008501
vn -0.665926 0.381074 0.641347
vn -0.182337 0.870994 0.456205
vn -0.835307 0.374536 0.402474
vn 0.069353 -0.996154 0.053557
vn -0.057014 -0.996316 0.064064
vn -0.213411 -0.975697 -0.049708
vn -0.054813 0.118084 0.991490
vn -0.009764 -0.099308 0.995009
vn 0.055870 0.294625 0.953978
vn -0.958685 -0.046727 -0.280605
vn -0.862604 0.414578 -0.289897
vn -0.473320 0.296550 -0.829473
vn -0.979708 0.196232 0.040812
vn -0.958685 -0.046727 -0.280605
vn -0.970602 -0.194153 0.142257
vn 0.588042 0.764272 -0.264755
vn -0.071223 0.835060 -0.545529
vn 0.285612 0.958308 0.008501
vn 0.042922 -0.992265 -0.116484
vn 0.069353 -0.996154 0.053557
vn -0.213411 -0.975697 -0.049708
vn 0.912785 0.251325 0.321962
vn 0.968797 -0.141771 0.203308
vn 0.998633 0.028299 0.043941
vn 0.829698 0.070436 -0.553750
vn 0.991951 -0.109096 -0.064267
vn 0.603562 -0.250639 -0.756897
vn -0.171008 0.978814 -0.112607
vn -0.182337 0.870994 0.456205
vn 0.285612 0.958308 0.008501
vn 0.055870 0.294625 0.953978
vn 0.515661 0.281732 0.809148
vn 0.311318 0.522578 0.793721
vn -0.168415 0.002857 -0.985712
vn 0.070343 0.203878 -0.976466
vn 0.152783 -0.066164 -0.986042
vn 0.374029 0.257861 -0.890848
vn 0.152783 -0.066164 -0.986042
vn 0.070343 0.203878 -0.976466
vn -0.057014 -0.996316 0.064064
vn 0.069353 -0.996154 0.053557
vn -0.009764 -0.099308 0.995009
vn 0.968797 -0.141771 0.203308
vn 0.912785 0.251325 0.321962
vn 0.515661 0.281732 0.809148
vn -0.213411 -0.975697 -0.049708
vn -0.970602 -0.194153 0.142257
vn -0.958685 -0.046727 -0.280605
vn -0.958685 -0.046727 -0.280605
vn -0.473320 0.296550 -0.829473
vn -0.782245 -0.080696 -0.617723
vn 0.829698 0.070436 -0.553750
vn 0.603562 -0.250639 -0.756897
vn 0.291361 -0.046866 -0.955465
vn 0.173266 -0.421743 -0.890007
vn 0.042922 -0.992265 -0.116484
vn -0.089580 -0.805567 -0.585694
vn 0.285612 0.958308 0.008501
vn 0.912785 0.251325 0.321962
vn 0.588042 0.764272 -0.264755
vn 0.515661 0.281732 0.809148
vn 0.912785 0.251325 0.321962
vn 0.311318 0.522578 0.793721
vn 0.248194 0.462052 -0.851415
vn 0.070343 0.203878 -0.976466
vn -0.071223 0.835060 -0.545529
vn -0.862604 0.414578 -0.289897
vn -0.071223 0.835060 -0.545529
vn -0.473320 0.296550 -0.829473
vn 0.237719 0.129147 0.962710
vn 0.055870 0.294625 0.953978
vn -0.009764 -0.099308 0.995009
vn 0.237719 0.129147 0.962710
vn -0.009764 -0.099308 0.995009
vn 0.069353 -0.996154 0.053557
vn -0.089580 -0.805567 -0.585694
vn -0.168415 0.002857 -0.985712
vn 0.152783 -0.066164 -0.986042
vn -0.958685 -0.046727 -0.280605
vn -0.782245 -0.080696 -0.617723
vn -0.213411 -0.975697 -0.049708
vn -0.054813 0.118084 0.991490
vn 0.055870 0.294625 0.953978
vn -0.294422 0.152203 0.943478
vn -0.970602 -0.194153 0.142257
vn -0.213411 -0.975697 -0.049708
vn -0.057014 -0.996316 0.064064
vn 0.588042 0.764272 -0.264755
vn 0.912785 0.251325 0.321962
vn 0.894846 0.375015 -0.242106
vn 0.374029 0.257861 -0.890848
vn 0.829698 0.070436 -0.553750
vn 0.291361 -0.046866 -0.955465
vn -0.665926 0.381074 0.641347
vn -0.835307 0.374536 0.402474
vn -0.970602 -0.194153 0.142257
vn -0.294422 0.152203 0.943478
vn -0.970602 -0.194153 0.142257
vn -0.057014 -0.996316 0.064064
vn 0.894846 0.375015 -0.242106
vn 0.374029 0.257861 -0.890848
vn 0.588042 0.764272 -0.264755
vn 0.248194 0.462052 -0.851415
vn -0.071223 0.835060 -0.545529
vn 0.588042 0.764272 -0.264755
vn 0.894846 0.375015 -0.242106
vn 0.829698 0.070436 -0.553750
vn 0.374029 0.257861 -0.890848
vn 0.998633 0.028299 0.043941
vn 0.991951 -0.109096 -0.064267
vn 0.829698 0.070436 -0.553750
vn 0.968797 -0.141771 0.203308
vn 0.515661 0.281732 0.809148
vn 0.774446 -0.317205 0.547371
vn 0.069353 -0.996154 0.053557
vn 0.042922 -0.992265 -0.116484
vn 0.446926 -0.894160 -0.027115
vn -0.958685 -0.046727 -0.280605
vn -0.979708 0.196232 0.040812
vn -0.862604 0.414578 -0.289897
vn -0.835307 0.374536 0.402474
vn -0.979708 0.196232 0.040812
vn -0.970602 -0.194153 0.142257
vn -0.071223 0.835060 -0.545529
vn -0.862604 0.414578 -0.289897
vn -0.171008 0.978814 -0.112607
vn -0.930585 0.364249 0.036535
vn -0.979708 0.196232 0.040812
vn -0.835307 0.374536 0.402474
vn 0.042922 -0.992265 -0.116484
vn 0.173266 -0.421743 -0.890007
vn 0.603562 -0.250639 -0.756897
vn 0.603562 -0.250639 -0.756897
vn 0.446926 -0.894160 -0.027115
vn 0.042922 -0.992265 -0.116484
vn -0.757475 0.546885 0.356580
vn -0.835307 0.374536 0.402474
vn -0.182337 0.870994 0.456205
vn -0.835307 0.374536 0.402474
vn -0.757475 0.546885 0.356580
vn -0.930585 0.364249 0.036535
vn -0.182337 0.870994 0.456205
vn -0.665926 0.381074 0.641347
vn 0.055870 0.294625 0.953978
vn -0.182337 0.870994 0.456205
vn 0.055870 0.294625 0.953978
vn 0.311318 0.522578 0.793721
vn 0.291361 -0.046866 -0.955465
vn 0.152783 -0.066164 -0.986042
vn 0.374029 0.257861 -0.890848
vn 0.603562 -0.250639 -0.756897
vn 0.173266 -0.421743 -0.890007
vn 0.291361 -0.046866 -0.955465
vn 0.968797 -0.141771 0.203308
vn 0.069353 -0.996154 0.053557
vn 0.446926 -0.894160 -0.027115
vn 0.968797 -0.141771 0.203308
vn 0.991951 -0.109096 -0.064267
vn 0.998633 0.028299 0.043941
vn -0.168415 0.002857 -0.985712
vn -0.473320 0.296550 -0.829473
vn 0.070343 0.203878 -0.976466
vn -0.071223 0.835060 -0.545529
vn 0.070343 0.203878 -0.976466
vn -0.473320 0.296550 -0.829473
vn -0.665926 0.381074 0.641347
vn -0.970602 -0.194153 0.142257
vn -0.294422 0.152203 0.943478
vn -0.665926 0.381074 0.641347
vn -0.294422 0.152203 0.943478
vn 0.055870 0.294625 0.953978
vn 0.152783 -0.066164 -0.986042
vn 0.291361 -0.046866 -0.955465
vn 0.173266 -0.421743 -0.890007
vn -0.089580 -0.805567 -0.585694
vn 0.152783 -0.066164 -0.986042
vn 0.173266 -0.421743 -0.890007
vn 0.515661 0.281732 0.809148
vn 0.055870 0.294625 0.953978
vn 0.237719 0.129147 0.962710
vn 0.237719 0.129147 0.962710
vn 0.774446 -0.317205 0.547371
vn 0.515661 0.281732 0.809148
vn -0.089580 -0.805567 -0.585694
vn 0.042922 -0.992265 -0.116484
vn -0.213411 -0.975697 -0.049708
vn -0.213411 -0.975697 -0.049708
vn -0.782245 -0.080696 -0.617723
vn -0.089580 -0.805567 -0.585694
vn 0.829698 0.070436 -0.553750
vn 0.894846 0.375015 -0.242106
vn 0.998633 0.028299 0.043941
vn 0.894846 0.375015 -0.242106
vn 0.912785 0.251325 0.321962
vn 0.998633 0.028299 0.043941
vn 0.237719 0.129147 0.962710
vn 0.069353 -0.996154 0.053557
vn 0.774446 -0.317205 0.547371
vn 0.069353 -0.996154 0.053557
vn 0.968797 -0.141771 0.203308
vn 0.774446 -0.317205 0.547371
vn 0.588042 0.764272 -0.264755
vn 0.374029 0.257861 -0.890848
vn 0.248194 0.462052 -0.851415
vn 0.070343 0.203878 -0.976466
vn 0.248194 0.462052 -0.851415
vn 0.374029 0.257861 -0.890848
vn 0.912785 0.251325 0.321962
vn 0.285612 0.958308 0.008501
vn 0.311318 0.522578 0.793721
vn 0.285612 0.958308 0.008501
vn -0.182337 0.870994 0.456205
vn 0.311318 0.522578 0.793721
vn -0.168415 0.002857 -0.985712
vn -0.089580 -0.805567 -0.585694
vn -0.782245 -0.080696 -0.617723
vn -0.782245 -0.080696 -0.617723
vn -0.473320 0.296550 -0.829473
vn -0.168415 0.002857 -0.985712
vn 0.446926 -0.894160 -0.027115
vn 0.603562 -0.250639 -0.756897
vn 0.991951 -0.109096 -0.064267
vn 0.991951 -0.109096 -0.064267
vn 0.968797 -0.141771 0.203308
vn 0.446926 -0.894160 -0.027115
vn -0.057014 -0.996316 0.064064
vn -0.054813 0.118084 0.991490
vn -0.294422 0.152203 0.943478
vn -0.057014 -0.996316 0.064064
vn -0.009764 -0.099308 0.995009
vn -0.054813 0.118084 0.991490
vn -0.171008 0.978814 -0.112607
vn -0.862604 0.414578 -0.289897
vn -0.930585 0.364249 0.036535
vn -0.862604 0.414578 -0.289897
vn -0.979708 0.196232 0.040812
vn -0.930585 0.364249 0.036535
vn -0.171008 0.978814 -0.112607
vn -0.757475 0.546885 0.356580
vn -0.182337 0.870994 0.456205
vn -0.757475 0.546885 0.356580
vn -0.171008 0.978814 -0.112607
vn -0.930585 0.364249 0.036535
s off
g polySurface5 TextureRockLittle:Group30440
usemtl TextureRockLittle:DefaultMaterial
f 1/1/1 2/2/2 3/3/3
f 4/4/4 5/5/5 6/6/6
f 7/7/7 8/8/8 9/9/9
f 10/10/10 11/11/11 12/12/12
f 13/13/13 14/14/14 15/15/15
f 16/16/16 13/13/17 17/17/18
f 18/18/19 1/1/20 3/3/21
f 19/19/22 7/7/23 9/9/24
f 20/20/25 21/21/26 22/22/27
f 23/23/28 24/24/29 25/25/30
f 2/2/31 5/5/32 3/3/33
f 12/12/34 26/26/35 27/27/36
f 28/28/37 29/29/38 30/30/39
f 31/31/40 30/30/41 29/29/42
f 8/8/43 7/7/44 11/11/45
f 21/21/46 20/20/47 26/26/48
f 9/9/49 17/17/50 13/13/51
f 13/13/52 15/15/53 32/32/54
f 23/23/55 25/25/56 33/33/57
f 34/34/58 19/19/59 35/35/60
f 3/3/61 20/20/62 18/18/63
f 26/26/64 20/20/65 27/27/66
f 36/36/67 29/29/68 1/37/69
f 14/14/70 1/37/71 15/15/72
f 37/38/73 12/12/74 11/11/75
f 37/38/76 11/11/77 7/7/78
f 35/35/79 28/28/80 30/30/81
f 13/13/82 32/32/83 9/9/84
f 10/10/85 12/12/86 38/39/87
f 17/17/88 9/9/89 8/8/90
f 18/18/91 20/20/92 39/40/93
f 31/31/94 23/23/95 33/33/96
f 4/4/97 6/6/98 17/17/99
f 38/39/100 17/17/101 8/8/102
f 39/40/103 31/31/104 18/18/105
f 36/36/106 1/37/107 18/18/108
f 39/40/109 23/23/110 31/31/111
f 22/22/112 24/24/113 23/23/114
f 21/21/115 26/26/116 40/41/117
f 7/7/118 19/19/119 41/42/120
f 13/13/121 16/16/122 14/14/123
f 6/6/124 16/43/125 17/17/126
f 1/1/127 14/44/128 2/2/129
f 42/45/130 16/43/131 6/6/132
f 19/19/133 34/34/134 25/25/135
f 25/25/136 41/42/137 19/19/138
f 43/46/139 6/6/140 5/5/141
f 6/6/142 43/46/143 42/45/144
f 5/5/145 4/4/146 12/12/147
f 5/5/148 12/12/149 27/27/150
f 33/33/151 30/30/152 31/31/153
f 25/25/154 34/34/155 33/33/156
f 21/21/157 7/7/158 41/42/159
f 21/21/160 24/24/161 22/22/162
f 28/28/163 15/15/164 29/29/165
f 1/37/166 29/29/167 15/15/168
f 4/4/169 17/17/170 38/39/171
f 4/4/172 38/39/173 12/12/174
f 30/30/175 33/33/176 34/34/177
f 35/35/178 30/30/179 34/34/180
f 26/26/181 12/12/182 37/38/183
f 37/38/184 40/41/185 26/26/186
f 35/35/187 19/19/188 9/9/189
f 9/9/190 32/32/191 35/35/192
f 23/23/193 39/40/194 22/22/195
f 39/40/196 20/20/197 22/22/198
f 37/38/199 7/7/200 40/41/201
f 7/7/202 21/21/203 40/41/204
f 18/18/205 31/31/206 36/36/207
f 29/29/208 36/36/209 31/31/210
f 20/20/211 3/3/212 27/27/213
f 3/3/214 5/5/215 27/27/216
f 28/28/217 35/35/218 32/32/219
f 32/32/220 15/15/221 28/28/222
f 41/42/223 25/25/224 24/24/225
f 24/24/226 21/21/227 41/42/228
f 8/8/229 10/10/230 38/39/231
f 8/8/232 11/11/233 10/10/234
f 2/2/235 14/44/236 42/45/237
f 14/44/238 16/43/239 42/45/240
f 2/2/241 43/46/242 5/5/243
f 43/46/244 2/2/245 42/45/246
