# This file uses meters as units for non-parametric coordinates.

mtllib Little-Rock-03.mtl
g default
v 983.480452 77.741150 -265.505737
v 892.260970 374.331604 -118.788940
v 1135.406722 178.212341 -75.562378
v -214.082536 413.104553 -235.862183
v -443.422868 179.232971 -84.609253
v -249.259050 496.239075 -26.943237
v 994.520491 -22.824402 -208.000366
v 338.879378 -38.402893 278.175659
v 179.198958 -34.834412 -174.144897
v 338.782698 439.348694 -373.962769
v 85.560530 596.323059 4.419556
v 589.572981 603.836243 -117.065308
v -147.265398 397.848450 -354.100464
v 457.857893 662.272278 43.297974
v 71.785139 368.714417 -408.167847
v 139.983138 86.337830 -328.202515
v -141.600847 275.989075 -351.965698
v 710.935530 -25.470154 164.852173
v 192.360335 215.122742 461.984253
v -539.049333 233.289368 326.989868
v -345.846696 201.049622 568.246460
v -551.811784 365.748596 373.909790
v -353.470964 97.641907 -162.971558
v 175.111311 -20.078918 -277.363647
v 389.168440 624.147522 160.765259
v 112.229231 577.051331 139.531372
v -380.697282 71.377747 -85.772827
v -70.798357 7.040955 -151.588745
v -139.846208 48.096130 227.879517
v 840.871077 246.174500 189.729614
v 333.091780 283.120422 438.634399
v 891.825179 327.889221 161.653442
v 1023.782210 313.890686 -33.056030
v 1145.070784 182.425964 -4.024780
v 529.690657 506.817444 293.134644
v 532.192854 420.458557 350.208618
v 537.377669 250.645325 -356.423706
v 890.006575 10.637024 -267.982300
v -386.595720 97.484192 75.938599
v 1027.504378 -3.588440 5.859985
v -15.570085 289.909241 573.671265
v -73.073991 610.462219 302.232544
v -580.424333 339.237854 281.935181
v -515.601091 241.291443 112.658325
v -116.458269 655.066711 204.824341
v -340.637712 554.648010 263.770630
v -264.783220 179.221497 568.794312
v -0.000017 0.000061 0.000122
v -169.671403 517.200989 -74.105347
v -303.538835 609.929993 171.068970
v -395.833025 224.673889 -259.387085
v -262.730974 341.248108 -344.322144
vt 0.064573 0.237584
vt 0.125009 0.285625
vt 0.070628 0.312450
vt 0.279535 0.143815
vt 0.326072 0.098658
vt 0.309465 0.167907
vt 0.038602 0.222292
vt 0.060423 0.000000
vt 0.155167 0.051580
vt 0.190964 0.184568
vt 0.276537 0.225161
vt 0.192183 0.258705
vt 0.255997 0.136374
vt 0.230868 0.272105
vt 0.218569 0.142754
vt 0.181700 0.089960
vt 0.246739 0.113543
vt 0.361146 0.413681
vt 0.224582 0.442931
vt 0.368388 0.335372
vt 0.400176 0.147575
vt 0.487963 0.196360
vt 0.402062 0.170492
vt 0.019657 0.099854
vt 0.300588 0.071134
vt 0.166943 0.067763
vt 0.255135 0.281915
vt 0.295446 0.251747
vt 0.317051 0.058880
vt 0.230571 0.046896
vt 0.366910 0.000000
vt 0.178970 0.378214
vt 0.324194 0.341450
vt 0.163429 0.353546
vt 0.110114 0.317860
vt 0.066996 0.334186
vt 0.250075 0.319282
vt 0.259717 0.334318
vt 0.142662 0.186499
vt 0.063306 0.210854
vt 0.348908 0.064222
vt 0.099983 0.407729
vt 0.000076 0.222533
vt 0.404931 0.273662
vt 0.344177 0.242235
vt 0.386793 0.157179
vt 0.359533 0.125806
vt 0.328605 0.226087
vt 0.358434 0.197528
vt 0.469286 0.228365
vt 0.472207 0.341726
vt 0.471049 0.404365
vt 0.294934 0.175871
vt 0.339458 0.196486
vt 0.297091 0.099503
vt 0.270304 0.121718
vt 0.222036 0.010175
vn 0.439061 0.335781 -0.833353
vn 0.452576 0.543627 -0.706856
vn 0.730154 0.335049 -0.595497
vn -0.685959 0.664714 -0.295999
vn -0.839608 0.446144 -0.309861
vn -0.708679 0.537318 -0.457235
vn 0.140172 -0.985847 -0.091963
vn 0.011190 -0.953187 0.302173
vn -0.033932 -0.999169 -0.022577
vn 0.246289 0.573366 -0.781405
vn 0.452576 0.543627 -0.706856
vn 0.439061 0.335781 -0.833353
vn -0.115535 0.940711 -0.318927
vn 0.121030 0.881580 -0.456255
vn -0.142376 0.870945 -0.470301
vn -0.115535 0.940711 -0.318927
vn 0.378693 0.906087 0.188673
vn 0.121030 0.881580 -0.456255
vn -0.019163 -0.098799 -0.994923
vn -0.000171 -0.318662 -0.947868
vn -0.224499 -0.452664 -0.862957
vn 0.011190 -0.953187 0.302173
vn 0.325988 -0.607135 0.724651
vn 0.306755 0.295952 0.904607
vn -0.700888 -0.684681 0.199921
vn -0.475913 -0.112817 0.872226
vn -0.444803 0.585538 0.677714
vn 0.011190 -0.953187 0.302173
vn 0.140172 -0.985847 -0.091963
vn 0.325988 -0.607135 0.724651
vn -0.142376 0.870945 -0.470301
vn 0.121030 0.881580 -0.456255
vn 0.246289 0.573366 -0.781405
vn -0.287559 -0.616996 -0.732547
vn -0.224499 -0.452664 -0.862957
vn -0.150280 -0.753472 -0.640074
vn -0.145542 0.762133 0.630849
vn 0.194384 0.795255 0.574268
vn 0.306755 0.295952 0.904607
vn -0.463480 -0.881912 -0.086125
vn -0.197545 -0.980286 0.003991
vn -0.229050 -0.957019 0.177905
vn 0.325988 -0.607135 0.724651
vn 0.447108 -0.200585 0.871699
vn 0.253563 0.039390 0.966517
vn 0.567324 0.653119 0.501576
vn 0.583305 0.801824 0.129745
vn 0.378693 0.906087 0.188673
vn 0.583305 0.801824 0.129745
vn 0.567324 0.653119 0.501576
vn 0.813413 -0.110603 0.571075
vn 0.303613 0.750997 0.586364
vn 0.253563 0.039390 0.966517
vn 0.428322 0.158428 0.889630
vn 0.092710 -0.165884 -0.981778
vn 0.067434 -0.396102 -0.915727
vn -0.000171 -0.318662 -0.947868
vn -0.475913 -0.112817 0.872226
vn -0.371153 -0.906870 0.199582
vn -0.229050 -0.957019 0.177905
vn 0.447108 -0.200585 0.871699
vn 0.522766 -0.598689 0.606867
vn 0.813413 -0.110603 0.571075
vn 0.522766 -0.598689 0.606867
vn 0.140172 -0.985847 -0.091963
vn 0.813413 -0.110603 0.571075
vn 0.306755 0.295952 0.904607
vn 0.208798 0.150819 0.966259
vn 0.011190 -0.953187 0.302173
vn 0.089978 0.698379 0.710050
vn 0.208798 0.150819 0.966259
vn 0.306755 0.295952 0.904607
vn -0.145542 0.762133 0.630849
vn -0.115535 0.940711 -0.318927
vn 0.194384 0.795255 0.574268
vn 0.089978 0.698379 0.710050
vn 0.306755 0.295952 0.904607
vn 0.194384 0.795255 0.574268
vn 0.089978 0.698379 0.710050
vn -0.444803 0.585538 0.677714
vn -0.475913 -0.112817 0.872226
vn -0.809888 0.444366 -0.382910
vn -0.708679 0.537318 -0.457235
vn -0.901241 0.146254 -0.407890
vn 0.014052 0.996464 0.082836
vn 0.194384 0.795255 0.574268
vn -0.115535 0.940711 -0.318927
vn -0.309635 0.782032 0.540881
vn -0.444803 0.585538 0.677714
vn 0.089978 0.698379 0.710050
vn 0.439061 0.335781 -0.833353
vn 0.730154 0.335049 -0.595497
vn 0.140172 -0.985847 -0.091963
vn -0.150280 -0.753472 -0.640074
vn 0.067434 -0.396102 -0.915727
vn 0.140172 -0.985847 -0.091963
vn 0.208798 0.150819 0.966259
vn 0.089978 0.698379 0.710050
vn -0.475913 -0.112817 0.872226
vn 0.208798 0.150819 0.966259
vn -0.037697 -0.812505 0.581735
vn 0.011190 -0.953187 0.302173
vn 0.583305 0.801824 0.129745
vn 0.121030 0.881580 -0.456255
vn 0.378693 0.906087 0.188673
vn 0.452576 0.543627 -0.706856
vn 0.246289 0.573366 -0.781405
vn 0.121030 0.881580 -0.456255
vn -0.037697 -0.812505 0.581735
vn -0.229050 -0.957019 0.177905
vn 0.011190 -0.953187 0.302173
vn 0.011190 -0.953187 0.302173
vn -0.229050 -0.957019 0.177905
vn -0.175483 -0.982439 0.063397
vn 0.447108 -0.200585 0.871699
vn 0.325988 -0.607135 0.724651
vn 0.522766 -0.598689 0.606867
vn 0.325988 -0.607135 0.724651
vn 0.140172 -0.985847 -0.091963
vn 0.522766 -0.598689 0.606867
vn -0.142376 0.870945 -0.470301
vn -0.241202 0.874530 -0.420735
vn -0.115535 0.940711 -0.318927
vn -0.115535 0.940711 -0.318927
vn -0.473464 0.817657 -0.327519
vn 0.014052 0.996464 0.082836
vn -0.700888 -0.684681 0.199921
vn -0.371153 -0.906870 0.199582
vn -0.475913 -0.112817 0.872226
vn -0.901241 0.146254 -0.407890
vn -0.700888 -0.684681 0.199921
vn -0.809888 0.444366 -0.382910
vn -0.839608 0.446144 -0.309861
vn -0.583814 -0.368266 -0.723562
vn -0.463480 -0.881912 -0.086125
vn -0.463480 -0.881912 -0.086125
vn -0.700888 -0.684681 0.199921
vn -0.901241 0.146254 -0.407890
vn -0.115535 0.940711 -0.318927
vn -0.241202 0.874530 -0.420735
vn -0.473464 0.817657 -0.327519
vn -0.473464 0.817657 -0.327519
vn -0.708679 0.537318 -0.457235
vn -0.809888 0.444366 -0.382910
vn 0.306755 0.295952 0.904607
vn 0.253563 0.039390 0.966517
vn -0.145542 0.762133 0.630849
vn 0.253563 0.039390 0.966517
vn 0.306755 0.295952 0.904607
vn 0.325988 -0.607135 0.724651
vn 0.246289 0.573366 -0.781405
vn 0.439061 0.335781 -0.833353
vn 0.092710 -0.165884 -0.981778
vn -0.142376 0.870945 -0.470301
vn 0.246289 0.573366 -0.781405
vn -0.019163 -0.098799 -0.994923
vn -0.463480 -0.881912 -0.086125
vn -0.150280 -0.753472 -0.640074
vn -0.197545 -0.980286 0.003991
vn 0.140172 -0.985847 -0.091963
vn -0.033932 -0.999169 -0.022577
vn -0.150280 -0.753472 -0.640074
vn -0.583814 -0.368266 -0.723562
vn -0.839608 0.446144 -0.309861
vn -0.627248 0.460201 -0.628312
vn -0.287559 -0.616996 -0.732547
vn -0.583814 -0.368266 -0.723562
vn -0.224499 -0.452664 -0.862957
vn -0.224499 -0.452664 -0.862957
vn -0.627248 0.460201 -0.628312
vn -0.019163 -0.098799 -0.994923
vn -0.224499 -0.452664 -0.862957
vn -0.583814 -0.368266 -0.723562
vn -0.627248 0.460201 -0.628312
vn -0.463480 -0.881912 -0.086125
vn -0.583814 -0.368266 -0.723562
vn -0.287559 -0.616996 -0.732547
vn -0.463480 -0.881912 -0.086125
vn -0.287559 -0.616996 -0.732547
vn -0.150280 -0.753472 -0.640074
vn -0.145542 0.762133 0.630849
vn 0.253563 0.039390 0.966517
vn 0.303613 0.750997 0.586364
vn 0.303613 0.750997 0.586364
vn 0.567324 0.653119 0.501576
vn 0.378693 0.906087 0.188673
vn 0.092710 -0.165884 -0.981778
vn -0.000171 -0.318662 -0.947868
vn -0.019163 -0.098799 -0.994923
vn 0.246289 0.573366 -0.781405
vn 0.092710 -0.165884 -0.981778
vn -0.019163 -0.098799 -0.994923
vn -0.473464 0.817657 -0.327519
vn -0.809888 0.444366 -0.382910
vn -0.444803 0.585538 0.677714
vn -0.700888 -0.684681 0.199921
vn -0.444803 0.585538 0.677714
vn -0.809888 0.444366 -0.382910
vn 0.378693 0.906087 0.188673
vn -0.115535 0.940711 -0.318927
vn -0.145542 0.762133 0.630849
vn -0.145542 0.762133 0.630849
vn 0.303613 0.750997 0.586364
vn 0.378693 0.906087 0.188673
vn 0.140172 -0.985847 -0.091963
vn 0.067434 -0.396102 -0.915727
vn 0.439061 0.335781 -0.833353
vn 0.067434 -0.396102 -0.915727
vn 0.092710 -0.165884 -0.981778
vn 0.439061 0.335781 -0.833353
vn 0.452576 0.543627 -0.706856
vn 0.121030 0.881580 -0.456255
vn 0.583305 0.801824 0.129745
vn 0.583305 0.801824 0.129745
vn 0.730154 0.335049 -0.595497
vn 0.452576 0.543627 -0.706856
vn -0.150280 -0.753472 -0.640074
vn -0.224499 -0.452664 -0.862957
vn -0.000171 -0.318662 -0.947868
vn -0.150280 -0.753472 -0.640074
vn -0.000171 -0.318662 -0.947868
vn 0.067434 -0.396102 -0.915727
vn 0.089978 0.698379 0.710050
vn 0.194384 0.795255 0.574268
vn 0.014052 0.996464 0.082836
vn 0.014052 0.996464 0.082836
vn -0.309635 0.782032 0.540881
vn 0.089978 0.698379 0.710050
vn 0.730154 0.335049 -0.595497
vn 0.583305 0.801824 0.129745
vn 0.813413 -0.110603 0.571075
vn 0.813413 -0.110603 0.571075
vn 0.140172 -0.985847 -0.091963
vn 0.730154 0.335049 -0.595497
vn -0.708679 0.537318 -0.457235
vn -0.839608 0.446144 -0.309861
vn -0.901241 0.146254 -0.407890
vn -0.839608 0.446144 -0.309861
vn -0.463480 -0.881912 -0.086125
vn -0.901241 0.146254 -0.407890
vn -0.371153 -0.906870 0.199582
vn -0.700888 -0.684681 0.199921
vn -0.463480 -0.881912 -0.086125
vn -0.371153 -0.906870 0.199582
vn -0.463480 -0.881912 -0.086125
vn -0.229050 -0.957019 0.177905
vn 0.253563 0.039390 0.966517
vn 0.447108 -0.200585 0.871699
vn 0.428322 0.158428 0.889630
vn 0.428322 0.158428 0.889630
vn 0.567324 0.653119 0.501576
vn 0.303613 0.750997 0.586364
vn 0.447108 -0.200585 0.871699
vn 0.567324 0.653119 0.501576
vn 0.428322 0.158428 0.889630
vn 0.813413 -0.110603 0.571075
vn 0.567324 0.653119 0.501576
vn 0.447108 -0.200585 0.871699
vn -0.142376 0.870945 -0.470301
vn -0.019163 -0.098799 -0.994923
vn -0.627248 0.460201 -0.628312
vn -0.627248 0.460201 -0.628312
vn -0.839608 0.446144 -0.309861
vn -0.685959 0.664714 -0.295999
vn -0.037697 -0.812505 0.581735
vn -0.475913 -0.112817 0.872226
vn -0.229050 -0.957019 0.177905
vn 0.208798 0.150819 0.966259
vn -0.475913 -0.112817 0.872226
vn -0.037697 -0.812505 0.581735
vn -0.033932 -0.999169 -0.022577
vn -0.197545 -0.980286 0.003991
vn -0.150280 -0.753472 -0.640074
vn -0.175483 -0.982439 0.063397
vn -0.033932 -0.999169 -0.022577
vn 0.011190 -0.953187 0.302173
vn -0.685959 0.664714 -0.295999
vn -0.142376 0.870945 -0.470301
vn -0.627248 0.460201 -0.628312
vn -0.685959 0.664714 -0.295999
vn -0.241202 0.874530 -0.420735
vn -0.142376 0.870945 -0.470301
vn -0.175483 -0.982439 0.063397
vn -0.197545 -0.980286 0.003991
vn -0.033932 -0.999169 -0.022577
vn -0.229050 -0.957019 0.177905
vn -0.197545 -0.980286 0.003991
vn -0.175483 -0.982439 0.063397
vn -0.473464 0.817657 -0.327519
vn -0.444803 0.585538 0.677714
vn -0.309635 0.782032 0.540881
vn 0.014052 0.996464 0.082836
vn -0.473464 0.817657 -0.327519
vn -0.309635 0.782032 0.540881
vn -0.708679 0.537318 -0.457235
vn -0.473464 0.817657 -0.327519
vn -0.241202 0.874530 -0.420735
vn -0.685959 0.664714 -0.295999
vn -0.708679 0.537318 -0.457235
vn -0.241202 0.874530 -0.420735
s off
g polySurface3 TextureRockLittle:Group30440
usemtl TextureRockLittle:DefaultMaterial
f 1/1/1 2/2/2 3/3/3
f 4/4/4 5/5/5 6/6/6
f 7/7/7 8/8/8 9/9/9
f 10/10/10 2/2/11 1/1/12
f 11/11/13 12/12/14 13/13/15
f 11/11/16 14/14/17 12/12/18
f 15/15/19 16/16/20 17/17/21
f 8/18/22 18/19/23 19/20/24
f 20/21/25 21/22/26 22/23/27
f 8/8/28 7/7/29 18/24/30
f 13/13/31 12/12/32 10/10/33
f 23/25/34 17/17/35 24/26/36
f 25/27/37 26/28/38 19/20/39
f 27/29/40 28/30/41 29/31/42
f 18/19/43 30/32/44 31/33/45
f 32/34/46 33/35/47 14/14/48
f 33/35/49 32/34/50 34/36/51
f 35/37/52 31/33/53 36/38/54
f 37/39/55 38/40/56 16/16/57
f 21/22/58 39/41/59 29/31/60
f 30/32/61 40/42/62 34/36/63
f 40/43/64 7/7/65 34/36/66
f 19/20/67 41/44/68 8/18/69
f 42/45/70 41/44/71 19/20/72
f 25/27/73 11/11/74 26/28/75
f 42/45/76 19/20/77 26/28/78
f 42/45/79 22/23/80 21/22/81
f 43/46/82 6/6/83 44/47/84
f 45/48/85 26/28/86 11/11/87
f 46/49/88 22/23/89 42/45/90
f 1/1/91 3/3/92 7/7/93
f 24/26/94 38/40/95 7/7/96
f 41/44/97 42/45/98 21/22/99
f 41/44/100 47/50/101 8/18/102
f 33/35/103 12/12/104 14/14/105
f 2/2/106 10/10/107 12/12/108
f 47/50/109 29/51/110 8/18/111
f 8/18/112 29/51/113 48/52/114
f 30/32/115 18/19/116 40/42/117
f 18/24/118 7/7/119 40/43/120
f 13/13/121 49/53/122 11/11/123
f 11/11/124 50/54/125 45/48/126
f 20/21/127 39/41/128 21/22/129
f 44/47/130 20/21/131 43/46/132
f 5/5/133 51/55/134 27/29/135
f 27/29/136 20/21/137 44/47/138
f 11/11/139 49/53/140 50/54/141
f 50/54/142 6/6/143 43/46/144
f 19/20/145 31/33/146 25/27/147
f 31/33/148 19/20/149 18/19/150
f 10/10/151 1/1/152 37/39/153
f 13/13/154 10/10/155 15/15/156
f 27/29/157 24/26/158 28/30/159
f 7/7/160 9/9/161 24/26/162
f 51/55/163 5/5/164 52/56/165
f 23/25/166 51/55/167 17/17/168
f 17/17/169 52/56/170 15/15/171
f 17/17/172 51/55/173 52/56/174
f 27/29/175 51/55/176 23/25/177
f 27/29/178 23/25/179 24/26/180
f 25/27/181 31/33/182 35/37/183
f 35/37/184 32/34/185 14/14/186
f 37/39/187 16/16/188 15/15/189
f 10/10/190 37/39/191 15/15/192
f 50/54/193 43/46/194 22/23/195
f 20/21/196 22/23/197 43/46/198
f 14/14/199 11/11/200 25/27/201
f 25/27/202 35/37/203 14/14/204
f 7/7/205 38/40/206 1/1/207
f 38/40/208 37/39/209 1/1/210
f 2/2/211 12/12/212 33/35/213
f 33/35/214 3/3/215 2/2/216
f 24/26/217 17/17/218 16/16/219
f 24/26/220 16/16/221 38/40/222
f 42/45/223 26/28/224 45/48/225
f 45/48/226 46/49/227 42/45/228
f 3/3/229 33/35/230 34/36/231
f 34/36/232 7/7/233 3/3/234
f 6/6/235 5/5/236 44/47/237
f 5/5/238 27/29/239 44/47/240
f 39/41/241 20/21/242 27/29/243
f 39/41/244 27/29/245 29/31/246
f 31/33/247 30/32/248 36/38/249
f 36/38/250 32/34/251 35/37/252
f 30/32/253 32/34/254 36/38/255
f 34/36/256 32/34/257 30/32/258
f 13/13/259 15/15/260 52/56/261
f 52/56/262 5/5/263 4/4/264
f 47/50/265 21/22/266 29/51/267
f 41/44/268 21/22/269 47/50/270
f 9/9/271 28/30/272 24/26/273
f 48/57/274 9/9/275 8/8/276
f 4/4/277 13/13/278 52/56/279
f 4/4/280 49/53/281 13/13/282
f 48/57/283 28/30/284 9/9/285
f 29/31/286 28/30/287 48/57/288
f 50/54/289 22/23/290 46/49/291
f 45/48/292 50/54/293 46/49/294
f 6/6/295 50/54/296 49/53/297
f 4/4/298 6/6/299 49/53/300
