# This file uses meters as units for non-parametric coordinates.

mtllib Little-Rock-07.mtl
g default
v -171.087402 68.469621 -274.484863
v -73.470703 337.347062 -103.298096
v 132.604492 113.334489 -298.368408
v 202.907715 15.297990 -298.407959
v 212.831055 17.904435 298.407959
v -223.553223 10.818253 -247.358154
v -321.031738 146.267594 -111.372803
v -326.032715 145.282365 109.800537
v -245.803711 318.267594 -47.325195
v 320.820801 198.457169 103.559326
v -214.933594 341.862687 100.755371
v 30.495605 178.887955 272.470703
v 341.957520 26.485490 36.244629
v -78.067871 362.499406 -37.524414
v -155.526367 13.979264 158.540039
v -292.407227 123.823502 179.670654
v 200.644531 133.884293 274.507568
v 13.505371 80.687394 291.760010
v -344.732422 26.686662 -7.827148
v -304.791504 77.264787 -194.192871
v 344.732422 131.987931 33.918701
vt 0.801004 0.772107
vt 0.814589 0.841384
vt 0.760436 0.767308
vt 0.745038 0.698624
vt 0.999458 0.778709
vt 0.812700 0.767367
vt 0.833865 0.803155
vt 0.863202 0.816252
vt 0.833461 0.832293
vt 0.811418 0.966748
vt 0.853190 0.844111
vt 0.899949 0.846370
vt 0.906336 0.719848
vt 0.824407 0.853918
vt 0.899198 0.797617
vt 0.875781 0.815819
vt 0.922004 0.845715
vt 0.923510 0.817082
vt 0.853663 0.798177
vt 0.824041 0.786184
vt 0.750899 0.923901
vt 0.945786 0.700813
vt 0.728725 0.905506
vt 0.922674 0.701625
vn -0.241486 0.413799 -0.877756
vn 0.165165 0.773612 -0.611755
vn 0.344689 0.681827 -0.645215
vn 0.207634 -0.940274 -0.269764
vn 0.129888 -0.976952 0.169391
vn -0.050617 -0.995964 -0.074117
vn -0.943860 0.302145 -0.133555
vn -0.930550 0.345290 0.121864
vn -0.601687 0.666963 -0.439469
vn 0.530315 0.838218 0.127106
vn -0.100817 0.837657 0.536811
vn -0.009582 0.668538 0.743616
vn 0.207634 -0.940274 -0.269764
vn 0.743242 -0.663680 0.084388
vn 0.129888 -0.976952 0.169391
vn 0.530315 0.838218 0.127106
vn 0.344689 0.681827 -0.645215
vn 0.165165 0.773612 -0.611755
vn -0.241486 0.413799 -0.877756
vn -0.601687 0.666963 -0.439469
vn 0.165165 0.773612 -0.611755
vn -0.100817 0.837657 0.536811
vn 0.530315 0.838218 0.127106
vn 0.179501 0.978373 0.102791
vn -0.050617 -0.995964 -0.074117
vn 0.129888 -0.976952 0.169391
vn -0.154281 -0.955948 0.249721
vn -0.100817 0.837657 0.536811
vn -0.500800 -0.014785 0.865437
vn -0.009582 0.668538 0.743616
vn 0.129888 -0.976952 0.169391
vn 0.530315 0.838218 0.127106
vn 0.313243 0.486223 0.815761
vn -0.237190 -0.241992 0.940840
vn -0.154281 -0.955948 0.249721
vn 0.129888 -0.976952 0.169391
vn -0.930550 0.345290 0.121864
vn -0.943860 0.302145 -0.133555
vn -0.669096 -0.736411 0.100041
vn -0.500800 -0.014785 0.865437
vn -0.154281 -0.955948 0.249721
vn -0.237190 -0.241992 0.940840
vn -0.241486 0.413799 -0.877756
vn -0.720925 0.216634 -0.658283
vn -0.601687 0.666963 -0.439469
vn -0.669096 -0.736411 0.100041
vn -0.720925 0.216634 -0.658283
vn -0.050617 -0.995964 -0.074117
vn -0.601687 0.666963 -0.439469
vn -0.100817 0.837657 0.536811
vn 0.179501 0.978373 0.102791
vn -0.100817 0.837657 0.536811
vn -0.601687 0.666963 -0.439469
vn -0.930550 0.345290 0.121864
vn 0.207634 -0.940274 -0.269764
vn 0.344689 0.681827 -0.645215
vn 0.824512 0.383105 -0.416426
vn -0.241486 0.413799 -0.877756
vn 0.344689 0.681827 -0.645215
vn 0.207634 -0.940274 -0.269764
vn -0.669096 -0.736411 0.100041
vn -0.050617 -0.995964 -0.074117
vn -0.154281 -0.955948 0.249721
vn -0.154281 -0.955948 0.249721
vn -0.500800 -0.014785 0.865437
vn -0.669096 -0.736411 0.100041
vn -0.500800 -0.014785 0.865437
vn -0.237190 -0.241992 0.940840
vn -0.009582 0.668538 0.743616
vn 0.313243 0.486223 0.815761
vn -0.237190 -0.241992 0.940840
vn 0.129888 -0.976952 0.169391
vn -0.050617 -0.995964 -0.074117
vn -0.241486 0.413799 -0.877756
vn 0.207634 -0.940274 -0.269764
vn -0.241486 0.413799 -0.877756
vn -0.050617 -0.995964 -0.074117
vn -0.720925 0.216634 -0.658283
vn 0.313243 0.486223 0.815761
vn -0.009582 0.668538 0.743616
vn -0.237190 -0.241992 0.940840
vn 0.313243 0.486223 0.815761
vn 0.530315 0.838218 0.127106
vn -0.009582 0.668538 0.743616
vn 0.129888 -0.976952 0.169391
vn 0.743242 -0.663680 0.084388
vn 0.530315 0.838218 0.127106
vn 0.207634 -0.940274 -0.269764
vn 0.824512 0.383105 -0.416426
vn 0.743242 -0.663680 0.084388
vn 0.824512 0.383105 -0.416426
vn 0.344689 0.681827 -0.645215
vn 0.530315 0.838218 0.127106
vn 0.824512 0.383105 -0.416426
vn 0.530315 0.838218 0.127106
vn 0.743242 -0.663680 0.084388
vn 0.165165 0.773612 -0.611755
vn -0.601687 0.666963 -0.439469
vn 0.179501 0.978373 0.102791
vn 0.530315 0.838218 0.127106
vn 0.165165 0.773612 -0.611755
vn 0.179501 0.978373 0.102791
vn -0.930550 0.345290 0.121864
vn -0.669096 -0.736411 0.100041
vn -0.500800 -0.014785 0.865437
vn -0.500800 -0.014785 0.865437
vn -0.100817 0.837657 0.536811
vn -0.930550 0.345290 0.121864
vn -0.943860 0.302145 -0.133555
vn -0.720925 0.216634 -0.658283
vn -0.669096 -0.736411 0.100041
vn -0.601687 0.666963 -0.439469
vn -0.720925 0.216634 -0.658283
vn -0.943860 0.302145 -0.133555
s off
g polySurface7 TextureRockLittle:Group30440
usemtl TextureRockLittle:DefaultMaterial
f 1/1/1 2/2/2 3/3/3
f 4/4/4 5/5/5 6/6/6
f 7/7/7 8/8/8 9/9/9
f 10/10/10 11/11/11 12/12/12
f 4/4/13 13/13/14 5/5/15
f 10/10/16 3/3/17 2/2/18
f 1/1/19 9/9/20 2/2/21
f 11/11/22 10/10/23 14/14/24
f 6/6/25 5/5/26 15/15/27
f 11/11/28 16/16/29 12/12/30
f 5/5/31 10/10/32 17/17/33
f 18/18/34 15/15/35 5/5/36
f 8/8/37 7/7/38 19/19/39
f 16/16/40 15/15/41 18/18/42
f 1/1/43 20/20/44 9/9/45
f 19/19/46 20/20/47 6/6/48
f 9/9/49 11/11/50 14/14/51
f 11/11/52 9/9/53 8/8/54
f 4/4/55 3/3/56 21/21/57
f 1/1/58 3/3/59 4/4/60
f 19/19/61 6/6/62 15/15/63
f 15/15/64 16/16/65 19/19/66
f 16/16/67 18/18/68 12/12/69
f 17/17/70 18/18/71 5/5/72
f 6/6/73 1/1/74 4/4/75
f 1/1/76 6/6/77 20/20/78
f 17/17/79 12/12/80 18/18/81
f 17/17/82 10/10/83 12/12/84
f 5/5/85 13/13/86 10/22/87
f 4/4/88 21/21/89 13/23/90
f 21/21/91 3/3/92 10/10/93
f 21/24/94 10/22/95 13/13/96
f 2/2/97 9/9/98 14/14/99
f 10/10/100 2/2/101 14/14/102
f 8/8/103 19/19/104 16/16/105
f 16/16/106 11/11/107 8/8/108
f 7/7/109 20/20/110 19/19/111
f 9/9/112 20/20/113 7/7/114
