# This file uses centimeters as units for non-parametric coordinates.

v -49.663027 -1.389308 -6.356721
v -53.649501 32.970459 -25.715825
v -51.850015 41.205984 -42.771331
v -41.925732 46.203808 -64.715372
v -26.048267 43.551608 -73.048311
v -5.508924 31.065469 -50.395568
v 17.023882 48.759123 -67.661042
v 20.772189 33.902272 -26.789984
v 16.540492 -1.389308 -6.356721
v -5.139726 -6.996907 -17.702826
v -5.397451 24.057862 -34.755568
v -24.475680 23.818992 -34.480209
v -23.071769 -6.996907 -17.702826
v -39.781057 29.239822 -29.338868
v -37.668892 -3.689854 -11.011513
v 5.929318 29.812147 -29.998631
v 5.506718 -3.689851 -11.011514
v -16.374931 -6.717541 29.512634
v -24.345014 13.343651 26.334180
v -48.630429 49.390480 26.178052
v -43.623056 43.693335 10.381017
v -60.235986 67.870620 -9.055111
v -33.740688 31.162360 -13.384916
v -22.145239 42.969446 -28.049153
v -6.925536 48.729935 -49.100864
v 12.442584 -6.717539 -22.906222
v -13.166328 -11.601653 -0.559900
v -21.917836 12.719637 10.760510
v -13.737872 -8.721270 14.772875
v -6.110207 12.781619 -18.048074
v 1.339346 -8.721271 -12.652483
v -20.873870 9.985783 -5.560688
v 6.783684 14.051388 -30.912307
v -12.517067 -0.364639 -22.204203
v 21.621733 34.474451 -46.827131
v 47.820680 48.170412 -39.620962
v 60.095235 44.835012 -28.286776
v 42.201400 29.235213 -7.158205
v 55.311034 36.659556 0.642646
v 43.461215 33.513896 11.313853
v 25.624814 17.297548 17.215594
v 34.783761 24.499131 24.396705
v -2.787358 19.175204 -36.205783
v 9.596454 -0.364641 29.390553
v 9.961461 16.626467 -18.069228
v -2.621382 -3.431217 -9.751807
v 20.611565 12.437328 -8.921526
v 7.953726 -7.839467 -0.367518
v 25.292796 12.637900 1.623867
v 12.419664 -7.839472 10.052250
v 36.721354 20.725327 -3.959570
v 33.542569 22.962700 -15.578809
v 24.538575 30.192718 -26.597676
v 9.775615 28.314793 -41.118786
v 10.881020 -3.431221 21.751676
vt 0.060310 0.044030
vt 0.047207 0.156857
vt 0.053122 0.216854
vt 0.085741 0.281918
vt 0.137926 0.296766
vt 0.205434 0.213725
vt 0.279494 0.294734
vt 0.291814 0.161531
vt 0.277905 0.044030
vt 0.206648 0.044030
vt 0.205801 0.159887
vt 0.143095 0.158689
vt 0.147709 0.044030
vt 0.092790 0.157728
vt 0.099732 0.044030
vt 0.243029 0.160599
vt 0.241640 0.044030
vt 0.717343 0.043066
vt 0.713878 0.114697
vt 0.675874 0.251087
vt 0.729301 0.237900
vt 0.758976 0.341552
vt 0.813400 0.203441
vt 0.873997 0.235315
vt 0.958729 0.248729
vt 0.913951 0.043066
vt 0.809039 0.043066
vt 0.762577 0.119624
vt 0.763972 0.043066
vt 0.870581 0.119845
vt 0.866837 0.043066
vt 0.811238 0.120147
vt 0.928049 0.117224
vt 0.421851 0.041261
vt 0.391669 0.213406
vt 0.447267 0.290957
vt 0.485276 0.285426
vt 0.538930 0.206474
vt 0.578695 0.243010
vt 0.595589 0.205364
vt 0.590324 0.126015
vt 0.623877 0.155966
vt 0.392151 0.121154
vt 0.606350 0.041261
vt 0.463448 0.123271
vt 0.472283 0.041261
vt 0.504873 0.124167
vt 0.514325 0.041261
vt 0.542791 0.124987
vt 0.551585 0.041261
vt 0.540697 0.171067
vt 0.502540 0.181124
vt 0.456558 0.191784
vt 0.393575 0.171567
vt 0.584937 0.041261
vn -0.198629 0.898345 0.391820
vn 0.244406 0.867253 0.433748
vn 0.242474 0.709645 0.661521
vn -0.262714 0.629919 0.730878
vn 0.217172 0.475543 0.852464
vn -0.256063 0.463644 0.848213
vn -0.392832 0.466775 0.792341
vn -0.330521 0.734410 0.592788
vn -0.417585 0.701294 0.577763
vn -0.494438 0.426320 0.757484
vn -0.395668 0.861929 0.317058
vn 0.375837 0.835545 0.400763
vn 0.408831 0.662547 0.627605
vn 0.423928 0.455848 0.782616
vn 0.396738 0.833009 0.385611
vn 0.350156 0.618630 0.703340
vn 0.382365 0.472468 0.794085
vn 0.747867 0.591242 0.301873
vn 0.812177 0.582612 0.030528
vn 0.818356 0.572893 0.045676
vn 0.868598 0.492660 0.053139
vn 0.760889 0.496955 0.417232
vn 0.555570 0.481134 0.678124
vn 0.582265 0.509108 0.633859
vn 0.602392 0.529563 0.597233
vn 0.563381 0.513644 0.647126
vn 0.827666 0.557879 0.061158
vn 0.856021 0.506176 0.104950
vn 0.918649 0.376739 0.118961
vn 0.931075 0.362655 0.039751
vn 0.807649 0.396767 0.436210
vn 0.568107 0.377571 0.731228
vn 0.602503 0.401390 0.689838
vn -0.620770 0.758669 -0.197650
vn -0.686150 0.726754 -0.032037
vn -0.755904 0.654605 -0.010108
vn -0.756510 0.649527 -0.076213
vn -0.805149 0.504422 -0.311920
vn -0.791432 0.574709 -0.208193
vn -0.679999 0.718349 0.146888
vn -0.429031 0.829899 0.356651
vn -0.516569 0.708352 0.481034
vn -0.478897 0.668840 0.568605
vn -0.380909 0.786126 0.486739
vn -0.505040 0.654582 0.562546
vn -0.495428 0.598119 0.629924
vn -0.487235 0.681980 0.545441
vn -0.402946 0.763378 0.504865
vn -0.583325 0.596644 0.551134
vn -0.826241 0.563314 -0.001712
vn -0.401088 0.898048 -0.180660
vn -0.660096 0.751068 0.013073
vn -0.351069 0.783769 0.512306
vn -0.364582 0.807752 0.463268
vn -0.458495 0.853737 0.246810
s 1
f 6/6/1 5/5/2 12/12/3
f 12/12/3 11/11/4 6/6/1
f 13/13/5 10/10/6 11/11/4
f 11/11/4 12/12/3 13/13/5
f 9/9/7 8/8/8 16/16/9
f 16/16/9 17/17/10 9/9/7
f 16/16/9 8/8/8 7/7/11
f 4/4/12 14/14/13 12/12/3
f 12/12/3 5/5/2 4/4/12
f 12/12/3 14/14/13 15/15/14
f 15/15/14 13/13/5 12/12/3
f 3/3/15 2/2/16 14/14/13
f 14/14/13 4/4/12 3/3/15
f 14/14/13 2/2/16 1/1/17
f 1/1/17 15/15/14 14/14/13
f 6/6/1 11/11/4 16/16/9
f 16/16/9 7/7/11 6/6/1
f 11/11/4 10/10/6 17/17/10
f 17/17/10 16/16/9 11/11/4
s 6
f 23/23/18 22/22/19 21/21/20
f 23/23/18 21/21/20 28/28/21
f 23/23/18 28/28/21 32/32/22
f 30/30/23 33/33/24 25/25/25
f 25/25/25 24/24/26 30/30/23
f 21/21/20 20/20/27 19/19/28
f 19/19/28 28/28/21 21/21/20
f 30/30/23 24/24/26 23/23/18
f 23/23/18 32/32/22 30/30/23
f 28/28/21 19/19/28 18/18/29
f 18/18/29 29/29/30 28/28/21
f 28/28/21 29/29/30 27/27/31
f 27/27/31 32/32/22 28/28/21
f 32/32/22 27/27/31 31/31/32
f 31/31/32 30/30/23 32/32/22
f 30/30/23 31/31/32 26/26/33
f 26/26/33 33/33/24 30/30/23
s 8
f 40/40/34 51/51/35 49/49/36
f 49/49/36 41/41/37 40/40/34
f 41/41/37 55/55/38 44/44/39
f 44/44/39 42/42/40 41/41/37
f 54/54/41 43/43/42 45/45/43
f 45/45/43 53/53/44 54/54/41
f 43/43/42 34/34/45 46/46/46
f 46/46/46 45/45/43 43/43/42
f 45/45/43 47/47/47 52/52/48
f 52/52/48 53/53/44 45/45/43
f 47/47/47 45/45/43 46/46/46
f 46/46/46 48/48/49 47/47/47
f 47/47/47 49/49/36 51/51/35
f 51/51/35 52/52/48 47/47/47
f 49/49/36 47/47/47 48/48/49
f 48/48/49 50/50/50 49/49/36
f 40/40/34 39/39/51 38/38/52
f 38/38/52 51/51/35 40/40/34
f 38/38/52 37/37/53 52/52/48
f 52/52/48 51/51/35 38/38/52
f 37/37/53 36/36/54 53/53/44
f 53/53/44 52/52/48 37/37/53
f 53/53/44 36/36/54 35/35/55
f 35/35/55 54/54/41 53/53/44
f 41/41/37 49/49/36 50/50/50
f 50/50/50 55/55/38 41/41/37
