# This file uses centimeters as units for non-parametric coordinates.

v -10.768392 -3.618107 -23.756356
v -7.272643 16.443086 -31.592465
v -6.142012 52.489914 -55.852039
v 9.441326 46.792776 -50.214748
v 29.528510 70.970051 -66.034267
v 32.791519 34.261800 -39.386550
v 46.978585 46.068887 -27.211941
v 67.402529 51.829372 -11.159638
v 40.451715 -3.618101 7.141621
v 19.151144 -8.502214 -19.343459
v 8.191068 15.819080 -28.542227
v 3.853658 -5.621835 -20.529885
v 36.342043 15.881061 -11.591178
v 30.651830 -5.621830 -4.364170
v 24.457222 13.085218 -26.844105
v 48.678451 17.150827 1.808584
v -57.674749 -4.497073 -14.742514
v -62.760214 47.626682 -30.323276
v -43.852778 71.046039 -34.788155
v -27.124587 72.236965 -37.788648
v -18.346490 45.230963 -23.520528
v -5.642244 56.466693 -23.076587
v -3.606844 45.213124 -11.526597
v -6.798015 21.182190 -6.209752
v 3.134112 30.288083 -3.811163
v -66.197387 19.803281 -17.804176
v -3.715287 -4.497070 0.730125
v -43.910222 20.347628 -16.830307
v -41.494467 -4.596749 -15.503393
v -29.736168 20.476813 -20.536178
v -27.141615 -4.740044 -19.151085
v -18.644632 20.726244 -17.362080
v -16.244266 -4.740042 -16.026328
v -17.666866 34.647807 -23.056595
v -29.117834 37.430281 -26.410830
v -44.296282 41.082800 -23.089124
v -64.188911 35.033342 -23.236383
v -8.547099 -4.596749 -6.055882
v -84.758365 1.710117 -25.140295
v -88.744840 36.069881 -44.499399
v -86.945361 44.305402 -61.554917
v -77.021074 49.303238 -83.498950
v -61.143621 46.651031 -91.831882
v -40.604274 34.164894 -69.179152
v -18.071473 51.858552 -86.444621
v -14.323167 37.001697 -45.573562
v -18.554865 1.710116 -25.140295
v -40.235072 -3.897484 -36.486402
v -40.492804 27.157285 -53.539138
v -59.571028 26.918414 -53.263787
v -58.167116 -3.897491 -36.486410
v -74.876408 32.339235 -48.122456
v -72.764232 -0.590429 -29.795096
v -29.166034 32.911569 -48.782208
v -29.588627 -0.590433 -29.795095
v -9.438050 1.710131 -25.140254
v -13.424514 36.069886 -44.499365
v -11.625029 44.305415 -61.554866
v -1.700738 49.303240 -83.498907
v 14.176717 46.651039 -91.831842
v 34.716058 34.164904 -69.179090
v 57.248865 51.858550 -86.444567
v 60.997171 37.001702 -45.573510
v 56.765470 1.710132 -25.140251
v 35.085257 -3.897471 -36.486361
v 34.827531 27.157296 -53.539092
v 15.749315 26.918422 -53.263743
v 17.153216 -3.897471 -36.486361
v 0.443929 32.339248 -48.122401
v 2.556100 -0.590416 -29.795045
v 46.154300 32.911577 -48.782161
v 45.731705 -0.590414 -29.795047
v 6.070704 -3.058675 -8.641891
v 9.684637 36.093999 -13.668484
v 22.346530 50.229498 -15.016221
v 42.581088 63.244501 -9.899274
v 54.923293 63.983069 3.355547
v 44.305039 43.778553 27.229069
v 58.732165 66.732564 46.821425
v 28.557206 37.365954 58.323302
v 22.310922 -3.058677 55.538797
v 29.235120 -3.897460 31.423177
v 32.924166 31.319201 30.223848
v 28.086128 30.993139 11.768545
v 24.836248 -3.897468 14.039038
v 17.715676 34.033828 -1.395093
v 14.035497 -3.402796 1.714864
v 29.307369 34.815066 42.822811
v 24.626795 -3.402787 43.571247
v -0.884669 -3.058682 40.657086
v -5.168497 36.094008 36.187651
v -4.186224 50.229498 23.492158
v 4.532488 63.244504 4.528942
v 19.814543 63.983082 -5.191089
v 41.353285 43.778551 9.599956
v 63.246716 66.732553 -1.015168
v 69.057036 37.365954 30.750572
v 65.180859 -3.058690 36.384818
v 42.730897 -3.897477 25.181847
v 42.223936 31.319199 21.336009
v 23.195990 30.993134 22.729821
v 24.836221 -3.897470 26.339037
v 8.362917 34.033822 30.527729
v 10.750150 -3.402809 34.713018
v 53.952812 34.815063 27.188224
v 53.835756 -3.402803 31.926809
v -37.193441 -4.497057 -48.317270
v -22.841580 47.626699 -56.232203
v -14.912875 71.046050 -38.496309
v -8.830982 72.236991 -22.626660
v -21.201513 45.230972 -11.330491
v -19.257031 56.466700 1.231939
v -30.221063 45.213134 5.395517
v -36.041698 21.182202 3.257173
v -36.536720 30.288102 13.462824
v -35.782984 19.803291 -57.262660
v -42.281033 -4.497056 7.585699
v -32.563395 20.347629 -35.187782
v -33.414161 -4.596734 -32.566155
v -26.267211 20.476820 -21.959197
v -27.141596 -4.740027 -19.151066
v -27.306747 20.726257 -10.469350
v -28.169075 -4.740023 -7.861205
v -21.529856 34.647817 -10.575954
v -20.380741 37.430290 -22.452604
v -26.487811 41.082818 -36.739777
v -30.070649 35.033352 -56.307656
v -36.520587 -4.596730 1.567901
vt 0.717343 0.043066
vt 0.713878 0.114697
vt 0.675874 0.251087
vt 0.729301 0.237900
vt 0.758976 0.341552
vt 0.813400 0.203441
vt 0.873997 0.235315
vt 0.958729 0.248729
vt 0.913951 0.043066
vt 0.809039 0.043066
vt 0.762577 0.119624
vt 0.763972 0.043066
vt 0.870581 0.119845
vt 0.866837 0.043066
vt 0.811238 0.120147
vt 0.928049 0.117224
vt 0.421851 0.041261
vt 0.391669 0.213406
vt 0.447267 0.290957
vt 0.485276 0.285426
vt 0.538930 0.206474
vt 0.578695 0.243010
vt 0.595589 0.205364
vt 0.590324 0.126015
vt 0.623877 0.155966
vt 0.392151 0.121154
vt 0.606350 0.041261
vt 0.463448 0.123271
vt 0.472283 0.041261
vt 0.504873 0.124167
vt 0.514325 0.041261
vt 0.542791 0.124987
vt 0.551585 0.041261
vt 0.540697 0.171067
vt 0.502540 0.181124
vt 0.456558 0.191784
vt 0.393575 0.171567
vt 0.584937 0.041261
vt 0.060310 0.044030
vt 0.047207 0.156857
vt 0.053122 0.216854
vt 0.085741 0.281918
vt 0.137926 0.296766
vt 0.205434 0.213725
vt 0.279494 0.294734
vt 0.291814 0.161531
vt 0.277905 0.044030
vt 0.206648 0.044030
vt 0.205801 0.159887
vt 0.143095 0.158689
vt 0.147709 0.044030
vt 0.092790 0.157728
vt 0.099732 0.044030
vt 0.243029 0.160599
vt 0.241640 0.044030
vt 0.060310 0.044030
vt 0.047207 0.156857
vt 0.053122 0.216854
vt 0.085741 0.281918
vt 0.137926 0.296766
vt 0.205434 0.213725
vt 0.279494 0.294734
vt 0.291814 0.161531
vt 0.277905 0.044030
vt 0.206648 0.044030
vt 0.205801 0.159887
vt 0.143095 0.158689
vt 0.147709 0.044030
vt 0.092790 0.157728
vt 0.099732 0.044030
vt 0.243029 0.160599
vt 0.241640 0.044030
vt 0.060310 0.044030
vt 0.047207 0.156857
vt 0.053122 0.216854
vt 0.085741 0.281918
vt 0.137926 0.296766
vt 0.205434 0.213725
vt 0.279494 0.294734
vt 0.291814 0.161531
vt 0.277905 0.044030
vt 0.206648 0.044030
vt 0.205801 0.159887
vt 0.143095 0.158689
vt 0.147709 0.044030
vt 0.092790 0.157728
vt 0.099732 0.044030
vt 0.243029 0.160599
vt 0.241640 0.044030
vt 0.060310 0.044030
vt 0.047207 0.156857
vt 0.053122 0.216854
vt 0.085741 0.281918
vt 0.137926 0.296766
vt 0.205434 0.213725
vt 0.279494 0.294734
vt 0.291814 0.161531
vt 0.277905 0.044030
vt 0.206648 0.044030
vt 0.205801 0.159887
vt 0.143095 0.158689
vt 0.147709 0.044030
vt 0.092790 0.157728
vt 0.099732 0.044030
vt 0.243029 0.160599
vt 0.241640 0.044030
vt 0.421851 0.041261
vt 0.391669 0.213406
vt 0.447267 0.290957
vt 0.485276 0.285426
vt 0.538930 0.206474
vt 0.578695 0.243010
vt 0.595589 0.205364
vt 0.590324 0.126015
vt 0.623877 0.155966
vt 0.392151 0.121154
vt 0.606350 0.041261
vt 0.463448 0.123271
vt 0.472283 0.041261
vt 0.504873 0.124167
vt 0.514325 0.041261
vt 0.542791 0.124987
vt 0.551585 0.041261
vt 0.540697 0.171067
vt 0.502540 0.181124
vt 0.456558 0.191784
vt 0.393575 0.171567
vt 0.584937 0.041261
vn -0.331644 0.591242 0.735150
vn -0.063098 0.582612 0.810297
vn -0.078482 0.572894 0.815864
vn -0.087956 0.492660 0.865766
vn -0.447432 0.496955 0.743532
vn -0.699874 0.481134 0.527908
vn -0.656715 0.509108 0.556358
vn -0.620927 0.529563 0.577938
vn -0.669215 0.513644 0.536956
vn -0.094324 0.557879 0.824545
vn -0.139220 0.506176 0.851119
vn -0.155733 0.376739 0.913135
vn -0.077085 0.362655 0.928730
vn -0.468271 0.396767 0.789492
vn -0.753438 0.377571 0.538304
vn -0.713462 0.401390 0.574333
vn -0.641060 0.337394 0.689353
vn -0.542700 0.239216 0.805142
vn -0.554711 0.138354 0.820459
vn -0.606794 0.148853 0.780797
vn -0.799610 0.057821 0.597729
vn -0.720282 0.099079 0.686569
vn -0.395573 0.195059 0.897482
vn -0.099500 0.371448 0.923107
vn -0.032684 0.197564 0.979745
vn 0.065245 0.165311 0.984081
vn 0.039014 0.331600 0.942613
vn 0.047370 0.141201 0.988847
vn 0.115497 0.084823 0.989679
vn 0.039869 0.176902 0.983421
vn 0.044112 0.297237 0.953784
vn 0.001614 0.055010 0.998484
vn -0.574785 0.024588 0.817935
vn -0.520924 0.563682 0.641015
vn -0.495438 0.262658 0.827981
vn 0.077192 0.339650 0.937379
vn 0.026502 0.363238 0.931319
vn -0.207833 0.400259 0.892524
vn -0.198629 0.898344 0.391821
vn 0.244406 0.867253 0.433748
vn 0.242473 0.709645 0.661522
vn -0.262714 0.629919 0.730878
vn 0.217172 0.475543 0.852464
vn -0.256063 0.463644 0.848213
vn -0.392832 0.466775 0.792341
vn -0.330521 0.734410 0.592788
vn -0.417585 0.701294 0.577763
vn -0.494439 0.426320 0.757484
vn -0.395668 0.861929 0.317059
vn 0.375837 0.835545 0.400763
vn 0.408831 0.662547 0.627605
vn 0.423928 0.455849 0.782616
vn 0.396737 0.833009 0.385611
vn 0.350157 0.618630 0.703340
vn 0.382365 0.472468 0.794085
vn -0.198629 0.898345 0.391820
vn 0.244406 0.867253 0.433748
vn 0.242473 0.709645 0.661521
vn -0.262714 0.629919 0.730878
vn 0.217172 0.475543 0.852464
vn -0.256063 0.463644 0.848213
vn -0.392832 0.466775 0.792341
vn -0.330521 0.734410 0.592788
vn -0.417584 0.701294 0.577763
vn -0.494439 0.426320 0.757484
vn -0.395668 0.861929 0.317058
vn 0.375837 0.835545 0.400763
vn 0.408831 0.662547 0.627605
vn 0.423928 0.455849 0.782616
vn 0.396738 0.833008 0.385611
vn 0.350156 0.618631 0.703340
vn 0.382364 0.472468 0.794086
vn -0.732937 0.680019 -0.019428
vn -0.650275 0.635250 0.416654
vn -0.796283 0.402473 0.451607
vn -0.952751 0.302274 -0.029911
vn -0.886658 0.113121 0.448377
vn -0.994525 0.103754 -0.012480
vn -0.979195 0.128028 -0.157438
vn -0.884469 0.451657 -0.117133
vn -0.880084 0.426811 -0.208050
vn -0.957891 0.103992 -0.267638
vn -0.700801 0.674985 -0.230808
vn -0.576728 0.618578 0.533617
vn -0.707625 0.371940 0.600773
vn -0.766073 0.121655 0.631136
vn -0.557089 0.622033 0.550207
vn -0.773558 0.302383 0.556931
vn -0.792707 0.132620 0.595002
vn -0.152670 0.680019 0.717124
vn 0.291174 0.635249 0.715315
vn 0.298933 0.402473 0.865248
vn -0.203035 0.302274 0.931347
vn 0.279287 0.113120 0.953521
vn -0.193509 0.103754 0.975597
vn -0.333246 0.128028 0.934107
vn -0.276354 0.451657 0.848313
vn -0.364949 0.426811 0.827432
vn -0.437718 0.103992 0.893078
vn -0.354654 0.674986 0.647005
vn 0.419581 0.618577 0.664315
vn 0.461758 0.371940 0.805258
vn 0.480961 0.121655 0.868261
vn 0.439472 0.622033 0.648028
vn 0.406637 0.302383 0.862097
vn 0.440579 0.132620 0.887864
vn -0.797265 0.337394 -0.500534
vn -0.892572 0.239215 -0.382219
vn -0.909869 0.138354 -0.391148
vn -0.880668 0.148853 -0.449740
vn -0.736974 0.057821 -0.673444
vn -0.809374 0.099079 -0.578875
vn -0.955708 0.195060 -0.220397
vn -0.925401 0.371447 0.075235
vn -0.968515 0.197564 0.151481
vn -0.954424 0.165311 0.248488
vn -0.918606 0.331599 0.214952
vn -0.962455 0.141201 0.231822
vn -0.950507 0.084824 0.298899
vn -0.958531 0.176903 0.223438
vn -0.928624 0.297236 0.222053
vn -0.980496 0.055010 0.188683
vn -0.911151 0.024588 -0.411338
vn -0.727272 0.563683 -0.391582
vn -0.906151 0.262657 -0.331515
vn -0.906311 0.339650 0.251472
vn -0.909857 0.363238 0.200544
vn -0.915658 0.400259 -0.036909
s 1
f 6/6/1 5/5/2 4/4/3
f 6/6/1 4/4/3 11/11/4
f 6/6/1 11/11/4 15/15/5
f 13/13/6 16/16/7 8/8/8
f 8/8/8 7/7/9 13/13/6
f 4/4/3 3/3/10 2/2/11
f 2/2/11 11/11/4 4/4/3
f 13/13/6 7/7/9 6/6/1
f 6/6/1 15/15/5 13/13/6
f 11/11/4 2/2/11 1/1/12
f 1/1/12 12/12/13 11/11/4
f 11/11/4 12/12/13 10/10/14
f 10/10/14 15/15/5 11/11/4
f 15/15/5 10/10/14 14/14/15
f 14/14/15 13/13/6 15/15/5
f 13/13/6 14/14/15 9/9/16
f 9/9/16 16/16/7 13/13/6
s 3
f 23/23/17 34/34/18 32/32/19
f 32/32/19 24/24/20 23/23/17
f 24/24/20 38/38/21 27/27/22
f 27/27/22 25/25/23 24/24/20
f 37/37/24 26/26/25 28/28/26
f 28/28/26 36/36/27 37/37/24
f 26/26/25 17/17/28 29/29/29
f 29/29/29 28/28/26 26/26/25
f 28/28/26 30/30/30 35/35/31
f 35/35/31 36/36/27 28/28/26
f 30/30/30 28/28/26 29/29/29
f 29/29/29 31/31/32 30/30/30
f 30/30/30 32/32/19 34/34/18
f 34/34/18 35/35/31 30/30/30
f 32/32/19 30/30/30 31/31/32
f 31/31/32 33/33/33 32/32/19
f 23/23/17 22/22/34 21/21/35
f 21/21/35 34/34/18 23/23/17
f 21/21/35 20/20/36 35/35/31
f 35/35/31 34/34/18 21/21/35
f 20/20/36 19/19/37 36/36/27
f 36/36/27 35/35/31 20/20/36
f 36/36/27 19/19/37 18/18/38
f 18/18/38 37/37/24 36/36/27
f 24/24/20 32/32/19 33/33/33
f 33/33/33 38/38/21 24/24/20
s 7
f 44/44/39 43/43/40 50/50/41
f 50/50/41 49/49/42 44/44/39
f 51/51/43 48/48/44 49/49/42
f 49/49/42 50/50/41 51/51/43
f 47/47/45 46/46/46 54/54/47
f 54/54/47 55/55/48 47/47/45
f 54/54/47 46/46/46 45/45/49
f 42/42/50 52/52/51 50/50/41
f 50/50/41 43/43/40 42/42/50
f 50/50/41 52/52/51 53/53/52
f 53/53/52 51/51/43 50/50/41
f 41/41/53 40/40/54 52/52/51
f 52/52/51 42/42/50 41/41/53
f 52/52/51 40/40/54 39/39/55
f 39/39/55 53/53/52 52/52/51
f 44/44/39 49/49/42 54/54/47
f 54/54/47 45/45/49 44/44/39
f 49/49/42 48/48/44 55/55/48
f 55/55/48 54/54/47 49/49/42
s 12
f 61/61/56 60/60/57 67/67/58
f 67/67/58 66/66/59 61/61/56
f 68/68/60 65/65/61 66/66/59
f 66/66/59 67/67/58 68/68/60
f 64/64/62 63/63/63 71/71/64
f 71/71/64 72/72/65 64/64/62
f 71/71/64 63/63/63 62/62/66
f 59/59/67 69/69/68 67/67/58
f 67/67/58 60/60/57 59/59/67
f 67/67/58 69/69/68 70/70/69
f 70/70/69 68/68/60 67/67/58
f 58/58/70 57/57/71 69/69/68
f 69/69/68 59/59/67 58/58/70
f 69/69/68 57/57/71 56/56/72
f 56/56/72 70/70/69 69/69/68
f 61/61/56 66/66/59 71/71/64
f 71/71/64 62/62/66 61/61/56
f 66/66/59 65/65/61 72/72/65
f 72/72/65 71/71/64 66/66/59
s 17
f 78/78/73 77/77/74 84/84/75
f 84/84/75 83/83/76 78/78/73
f 85/85/77 82/82/78 83/83/76
f 83/83/76 84/84/75 85/85/77
f 81/81/79 80/80/80 88/88/81
f 88/88/81 89/89/82 81/81/79
f 88/88/81 80/80/80 79/79/83
f 76/76/84 86/86/85 84/84/75
f 84/84/75 77/77/74 76/76/84
f 84/84/75 86/86/85 87/87/86
f 87/87/86 85/85/77 84/84/75
f 75/75/87 74/74/88 86/86/85
f 86/86/85 76/76/84 75/75/87
f 86/86/85 74/74/88 73/73/89
f 73/73/89 87/87/86 86/86/85
f 78/78/73 83/83/76 88/88/81
f 88/88/81 79/79/83 78/78/73
f 83/83/76 82/82/78 89/89/82
f 89/89/82 88/88/81 83/83/76
s 22
f 95/95/90 94/94/91 101/101/92
f 101/101/92 100/100/93 95/95/90
f 102/102/94 99/99/95 100/100/93
f 100/100/93 101/101/92 102/102/94
f 98/98/96 97/97/97 105/105/98
f 105/105/98 106/106/99 98/98/96
f 105/105/98 97/97/97 96/96/100
f 93/93/101 103/103/102 101/101/92
f 101/101/92 94/94/91 93/93/101
f 101/101/92 103/103/102 104/104/103
f 104/104/103 102/102/94 101/101/92
f 92/92/104 91/91/105 103/103/102
f 103/103/102 93/93/101 92/92/104
f 103/103/102 91/91/105 90/90/106
f 90/90/106 104/104/103 103/103/102
f 95/95/90 100/100/93 105/105/98
f 105/105/98 96/96/100 95/95/90
f 100/100/93 99/99/95 106/106/99
f 106/106/99 105/105/98 100/100/93
s 27
f 113/113/107 124/124/108 122/122/109
f 122/122/109 114/114/110 113/113/107
f 114/114/110 128/128/111 117/117/112
f 117/117/112 115/115/113 114/114/110
f 127/127/114 116/116/115 118/118/116
f 118/118/116 126/126/117 127/127/114
f 116/116/115 107/107/118 119/119/119
f 119/119/119 118/118/116 116/116/115
f 118/118/116 120/120/120 125/125/121
f 125/125/121 126/126/117 118/118/116
f 120/120/120 118/118/116 119/119/119
f 119/119/119 121/121/122 120/120/120
f 120/120/120 122/122/109 124/124/108
f 124/124/108 125/125/121 120/120/120
f 122/122/109 120/120/120 121/121/122
f 121/121/122 123/123/123 122/122/109
f 113/113/107 112/112/124 111/111/125
f 111/111/125 124/124/108 113/113/107
f 111/111/125 110/110/126 125/125/121
f 125/125/121 124/124/108 111/111/125
f 110/110/126 109/109/127 126/126/117
f 126/126/117 125/125/121 110/110/126
f 126/126/117 109/109/127 108/108/128
f 108/108/128 127/127/114 126/126/117
f 114/114/110 122/122/109 123/123/123
f 123/123/123 128/128/111 114/114/110
