# This file uses centimeters as units for non-parametric coordinates.

v -94.317904 -6.326988 4.332114
v -99.403368 45.796769 -11.248653
v -80.495925 69.216118 -15.713542
v -63.767738 70.407055 -18.714026
v -54.989643 43.401049 -4.445904
v -42.285385 54.636770 -4.001972
v -40.249997 43.383206 7.548024
v -43.441160 19.352272 12.864865
v -33.509036 28.458166 15.263463
v -102.840543 17.973367 1.270453
v -40.358433 -6.326988 19.804749
v -80.553369 18.517709 2.244310
v -78.137615 -6.426669 3.571225
v -66.379315 18.646894 -1.461563
v -63.784769 -6.569958 -0.076460
v -55.287780 18.896327 1.712543
v -52.887421 -6.569958 3.048305
v -54.310020 32.817890 -3.981974
v -65.760980 35.600362 -7.336218
v -80.939441 39.252890 -4.014492
v -100.832066 33.203427 -4.161762
v -45.190249 -6.426669 13.018741
v -121.401508 -0.119807 -6.065684
v -125.387983 34.239956 -25.424787
v -123.588496 42.475484 -42.480293
v -113.664209 47.473306 -64.424327
v -97.786756 44.821113 -72.757266
v -77.247409 32.334971 -50.104531
v -54.714601 50.028624 -67.369992
v -50.966293 35.171774 -26.498942
v -55.197987 -0.119806 -6.065685
v -76.878202 -5.727404 -17.411793
v -77.135934 25.327363 -34.464530
v -96.214159 25.088492 -34.189170
v -94.810247 -5.727402 -17.411792
v -111.519545 30.509318 -29.047828
v -109.407369 -2.420349 -10.720472
v -65.809162 31.081646 -29.707597
v -66.231764 -2.420347 -10.720469
v -46.081198 -0.119812 -19.782357
v -50.067671 34.239953 -39.141456
v -48.268182 42.475474 -56.196957
v -38.343900 47.473302 -78.140997
v -22.466438 44.821103 -86.473930
v -1.927093 32.334965 -63.821192
v 20.605712 50.028614 -81.086664
v 24.354018 35.171764 -40.215608
v 20.122320 -0.119814 -19.782348
v -1.557900 -5.727407 -31.128451
v -1.815623 25.327360 -48.181196
v -20.893851 25.088485 -47.905844
v -19.489942 -5.727408 -31.128456
v -36.199226 30.509315 -42.764495
v -34.087062 -2.420356 -24.437146
v 9.511147 31.081642 -43.424257
v 9.088545 -2.420353 -24.437139
v -7.094365 -4.888623 49.898481
v -11.701245 34.264074 45.762802
v -11.673640 48.399567 33.029399
v -4.401305 61.414578 13.465837
v 10.108937 62.153143 2.627333
v 32.696070 41.948620 15.761804
v 53.731959 64.902636 3.535036
v 61.907689 35.536017 34.775702
v 58.464867 -4.888621 40.684726
v 35.238106 -5.727403 31.196559
v 34.444219 29.489266 27.399547
v 15.574335 29.163204 30.216129
v 17.480566 -5.727401 33.692215
v 1.367690 32.203891 39.104259
v 4.062000 -5.232737 43.098786
v 46.578878 32.985132 32.355872
v 46.817444 -5.232734 37.089900
v -47.411528 -5.448031 -4.681709
v -43.915755 14.613158 -12.517807
v -42.785154 50.659982 -36.777393
v -27.201802 44.962850 -31.140093
v -7.114617 69.140129 -46.959602
v -3.851605 32.431872 -20.311893
v 10.335478 44.238955 -8.137287
v 30.759423 49.999446 7.915030
v 3.808603 -5.448029 26.216273
v -17.491981 -10.332139 -0.268794
v -28.452065 13.989153 -9.467566
v -32.789474 -7.451756 -1.455231
v -0.301063 14.051127 7.483466
v -5.991294 -7.451760 14.710492
v -12.185920 11.255294 -7.769454
v 12.035338 15.320899 20.883253
v 21.890361 -0.119808 -49.497053
v 30.821833 34.239962 -67.129281
v 42.847439 42.475490 -79.356861
v 64.274745 47.473319 -90.352424
v 81.887963 44.821112 -86.989896
v 83.860555 32.334975 -56.475635
v 112.242916 50.028624 -55.960722
v 89.733531 35.171775 -21.641328
v 73.701779 -0.119806 -8.284385
v 63.797781 -5.727403 -30.660193
v 74.211679 25.327368 -44.166244
v 59.109467 25.088497 -55.827226
v 49.764011 -5.727404 -41.823154
v 43.930795 30.509320 -61.331402
v 34.174745 -2.420353 -45.673408
v 80.114826 31.081649 -33.392342
v 67.964337 -2.420346 -18.795955
v 51.852859 -6.326983 -10.771227
v 54.818174 45.796772 -26.890443
v 73.564818 69.216127 -21.792403
v 89.697565 70.407068 -16.447285
v 90.603737 43.401057 0.280321
v 101.556633 54.636783 6.732418
v 97.834190 43.383218 17.853950
v 92.492750 19.352284 21.003782
v 100.076757 28.458177 27.850923
v 45.823921 17.973381 -17.528513
v 91.890474 -6.326979 28.573639
v 64.945589 18.517718 -6.038157
v 66.435461 -6.426661 -3.719339
v 79.170283 18.646902 -2.531667
v 80.789512 -6.569946 -0.076396
v 87.403175 18.896332 5.550208
v 88.875276 -6.569950 7.869455
v 90.979638 32.817899 1.012331
v 82.516826 35.600369 -7.399362
v 67.592747 39.252903 -11.722708
v 50.181040 33.203440 -21.344079
v 90.882206 -6.426651 20.304423
vt 0.421851 0.041261
vt 0.391669 0.213406
vt 0.447267 0.290957
vt 0.485276 0.285426
vt 0.538930 0.206474
vt 0.578695 0.243010
vt 0.595589 0.205364
vt 0.590324 0.126015
vt 0.623877 0.155966
vt 0.392151 0.121154
vt 0.606350 0.041261
vt 0.463448 0.123271
vt 0.472283 0.041261
vt 0.504873 0.124167
vt 0.514325 0.041261
vt 0.542791 0.124987
vt 0.551585 0.041261
vt 0.540697 0.171067
vt 0.502540 0.181124
vt 0.456558 0.191784
vt 0.393575 0.171567
vt 0.584937 0.041261
vt 0.060310 0.044030
vt 0.047207 0.156857
vt 0.053122 0.216854
vt 0.085741 0.281918
vt 0.137926 0.296766
vt 0.205434 0.213725
vt 0.279494 0.294734
vt 0.291814 0.161531
vt 0.277905 0.044030
vt 0.206648 0.044030
vt 0.205801 0.159887
vt 0.143095 0.158689
vt 0.147709 0.044030
vt 0.092790 0.157728
vt 0.099732 0.044030
vt 0.243029 0.160599
vt 0.241640 0.044030
vt 0.060310 0.044030
vt 0.047207 0.156857
vt 0.053122 0.216854
vt 0.085741 0.281918
vt 0.137926 0.296766
vt 0.205434 0.213725
vt 0.279494 0.294734
vt 0.291814 0.161531
vt 0.277905 0.044030
vt 0.206648 0.044030
vt 0.205801 0.159887
vt 0.143095 0.158689
vt 0.147709 0.044030
vt 0.092790 0.157728
vt 0.099732 0.044030
vt 0.243029 0.160599
vt 0.241640 0.044030
vt 0.060310 0.044030
vt 0.047207 0.156857
vt 0.053122 0.216854
vt 0.085741 0.281918
vt 0.137926 0.296766
vt 0.205434 0.213725
vt 0.279494 0.294734
vt 0.291814 0.161531
vt 0.277905 0.044030
vt 0.206648 0.044030
vt 0.205801 0.159887
vt 0.143095 0.158689
vt 0.147709 0.044030
vt 0.092790 0.157728
vt 0.099732 0.044030
vt 0.243029 0.160599
vt 0.241640 0.044030
vt 0.717343 0.043066
vt 0.713878 0.114697
vt 0.675874 0.251087
vt 0.729301 0.237900
vt 0.758976 0.341552
vt 0.813400 0.203441
vt 0.873997 0.235315
vt 0.958729 0.248729
vt 0.913951 0.043066
vt 0.809039 0.043066
vt 0.762577 0.119624
vt 0.763972 0.043066
vt 0.870581 0.119845
vt 0.866837 0.043066
vt 0.811238 0.120147
vt 0.928049 0.117224
vt 0.060310 0.044030
vt 0.047207 0.156857
vt 0.053122 0.216854
vt 0.085741 0.281918
vt 0.137926 0.296766
vt 0.205434 0.213725
vt 0.279494 0.294734
vt 0.291814 0.161531
vt 0.277905 0.044030
vt 0.206648 0.044030
vt 0.205801 0.159887
vt 0.143095 0.158689
vt 0.147709 0.044030
vt 0.092790 0.157728
vt 0.099732 0.044030
vt 0.243029 0.160599
vt 0.241640 0.044030
vt 0.421851 0.041261
vt 0.391669 0.213406
vt 0.447267 0.290957
vt 0.485276 0.285426
vt 0.538930 0.206474
vt 0.578695 0.243010
vt 0.595589 0.205364
vt 0.590324 0.126015
vt 0.623877 0.155966
vt 0.392151 0.121154
vt 0.606350 0.041261
vt 0.463448 0.123271
vt 0.472283 0.041261
vt 0.504873 0.124167
vt 0.514325 0.041261
vt 0.542791 0.124987
vt 0.551585 0.041261
vt 0.540697 0.171067
vt 0.502540 0.181124
vt 0.456558 0.191784
vt 0.393575 0.171567
vt 0.584937 0.041261
vn -0.641060 0.337394 0.689353
vn -0.542700 0.239215 0.805142
vn -0.554711 0.138354 0.820459
vn -0.606794 0.148853 0.780797
vn -0.799610 0.057821 0.597729
vn -0.720282 0.099079 0.686569
vn -0.395574 0.195059 0.897482
vn -0.099500 0.371448 0.923107
vn -0.032683 0.197564 0.979745
vn 0.065245 0.165311 0.984081
vn 0.039014 0.331600 0.942613
vn 0.047371 0.141201 0.988847
vn 0.115497 0.084824 0.989679
vn 0.039869 0.176902 0.983421
vn 0.044112 0.297236 0.953784
vn 0.001613 0.055010 0.998484
vn -0.574785 0.024588 0.817935
vn -0.520924 0.563683 0.641015
vn -0.495438 0.262658 0.827980
vn 0.077191 0.339651 0.937379
vn 0.026502 0.363238 0.931319
vn -0.207833 0.400260 0.892523
vn -0.198629 0.898345 0.391821
vn 0.244406 0.867253 0.433748
vn 0.242474 0.709645 0.661521
vn -0.262714 0.629919 0.730878
vn 0.217172 0.475543 0.852464
vn -0.256063 0.463644 0.848213
vn -0.392831 0.466775 0.792341
vn -0.330521 0.734410 0.592788
vn -0.417585 0.701294 0.577763
vn -0.494438 0.426320 0.757484
vn -0.395668 0.861929 0.317058
vn 0.375837 0.835545 0.400763
vn 0.408831 0.662547 0.627605
vn 0.423927 0.455848 0.782616
vn 0.396737 0.833009 0.385611
vn 0.350156 0.618631 0.703340
vn 0.382364 0.472468 0.794086
vn -0.198629 0.898345 0.391820
vn 0.244406 0.867253 0.433748
vn 0.242474 0.709645 0.661521
vn -0.262714 0.629919 0.730878
vn 0.217172 0.475543 0.852464
vn -0.256063 0.463645 0.848213
vn -0.392831 0.466775 0.792341
vn -0.330521 0.734410 0.592788
vn -0.417584 0.701294 0.577763
vn -0.494438 0.426320 0.757484
vn -0.395668 0.861929 0.317058
vn 0.375837 0.835545 0.400763
vn 0.408831 0.662547 0.627605
vn 0.423928 0.455848 0.782616
vn 0.396737 0.833009 0.385611
vn 0.350156 0.618630 0.703340
vn 0.382364 0.472467 0.794086
vn -0.098471 0.680019 0.726552
vn 0.343988 0.635249 0.691470
vn 0.362967 0.402473 0.840399
vn -0.132632 0.302275 0.943948
vn 0.349995 0.113121 0.929896
vn -0.119815 0.103755 0.987360
vn -0.262270 0.128028 0.956464
vn -0.211970 0.451657 0.866646
vn -0.301882 0.426811 0.852467
vn -0.369524 0.103992 0.923384
vn -0.305145 0.674985 0.671775
vn 0.468209 0.618577 0.630985
vn 0.520836 0.371940 0.768369
vn 0.544709 0.121655 0.829754
vn 0.486823 0.622033 0.613252
vn 0.470131 0.302384 0.829181
vn 0.505910 0.132620 0.852330
vn -0.331644 0.591242 0.735150
vn -0.063099 0.582612 0.810297
vn -0.078482 0.572893 0.815864
vn -0.087956 0.492660 0.865765
vn -0.447432 0.496956 0.743532
vn -0.699874 0.481134 0.527908
vn -0.656716 0.509108 0.556357
vn -0.620928 0.529563 0.577938
vn -0.669215 0.513644 0.536956
vn -0.094325 0.557879 0.824545
vn -0.139220 0.506176 0.851119
vn -0.155733 0.376739 0.913135
vn -0.077086 0.362655 0.928730
vn -0.468271 0.396767 0.789492
vn -0.753437 0.377572 0.538304
vn -0.713461 0.401391 0.574333
vn -0.399363 0.898345 0.182992
vn -0.078740 0.867253 0.491601
vn -0.222045 0.709645 0.668655
vn -0.660585 0.629919 0.408448
vn -0.360711 0.475543 0.802338
vn -0.728422 0.463645 0.504416
vn -0.800677 0.466775 0.375549
vn -0.627688 0.734410 0.258167
vn -0.686471 0.701294 0.192209
vn -0.858496 0.426320 0.285018
vn -0.507026 0.861929 0.001823
vn 0.044652 0.835545 0.547605
vn -0.070739 0.662547 0.745672
vn -0.155421 0.455848 0.876383
vn 0.070441 0.833008 0.548758
vn -0.163804 0.618630 0.768417
vn -0.195088 0.472467 0.859486
vn -0.892305 0.337394 0.299927
vn -0.861114 0.239215 0.448619
vn -0.878979 0.138354 0.456348
vn -0.905826 0.148853 0.396639
vn -0.987923 0.057821 0.143755
vn -0.960599 0.099079 0.259678
vn -0.775880 0.195060 0.599969
vn -0.527911 0.371448 0.763765
vn -0.496216 0.197565 0.845422
vn -0.412225 0.165311 0.895959
vn -0.415490 0.331599 0.847001
vn -0.430206 0.141201 0.891619
vn -0.370733 0.084824 0.924858
vn -0.434210 0.176902 0.883271
vn -0.416340 0.297236 0.859251
vn -0.475018 0.055011 0.878255
vn -0.895416 0.024588 0.444551
vn -0.763663 0.563683 0.314770
vn -0.830478 0.262659 0.491241
vn -0.379441 0.339651 0.860617
vn -0.421097 0.363239 0.831105
vn -0.608522 0.400259 0.685196
s 1
f 7/7/1 18/18/2 16/16/3
f 16/16/3 8/8/4 7/7/1
f 8/8/4 22/22/5 11/11/6
f 11/11/6 9/9/7 8/8/4
f 21/21/8 10/10/9 12/12/10
f 12/12/10 20/20/11 21/21/8
f 10/10/9 1/1/12 13/13/13
f 13/13/13 12/12/10 10/10/9
f 12/12/10 14/14/14 19/19/15
f 19/19/15 20/20/11 12/12/10
f 14/14/14 12/12/10 13/13/13
f 13/13/13 15/15/16 14/14/14
f 14/14/14 16/16/3 18/18/2
f 18/18/2 19/19/15 14/14/14
f 16/16/3 14/14/14 15/15/16
f 15/15/16 17/17/17 16/16/3
f 7/7/1 6/6/18 5/5/19
f 5/5/19 18/18/2 7/7/1
f 5/5/19 4/4/20 19/19/15
f 19/19/15 18/18/2 5/5/19
f 4/4/20 3/3/21 20/20/11
f 20/20/11 19/19/15 4/4/20
f 20/20/11 3/3/21 2/2/22
f 2/2/22 21/21/8 20/20/11
f 8/8/4 16/16/3 17/17/17
f 17/17/17 22/22/5 8/8/4
s 5
f 28/28/23 27/27/24 34/34/25
f 34/34/25 33/33/26 28/28/23
f 35/35/27 32/32/28 33/33/26
f 33/33/26 34/34/25 35/35/27
f 31/31/29 30/30/30 38/38/31
f 38/38/31 39/39/32 31/31/29
f 38/38/31 30/30/30 29/29/33
f 26/26/34 36/36/35 34/34/25
f 34/34/25 27/27/24 26/26/34
f 34/34/25 36/36/35 37/37/36
f 37/37/36 35/35/27 34/34/25
f 25/25/37 24/24/38 36/36/35
f 36/36/35 26/26/34 25/25/37
f 36/36/35 24/24/38 23/23/39
f 23/23/39 37/37/36 36/36/35
f 28/28/23 33/33/26 38/38/31
f 38/38/31 29/29/33 28/28/23
f 33/33/26 32/32/28 39/39/32
f 39/39/32 38/38/31 33/33/26
s 10
f 45/45/40 44/44/41 51/51/42
f 51/51/42 50/50/43 45/45/40
f 52/52/44 49/49/45 50/50/43
f 50/50/43 51/51/42 52/52/44
f 48/48/46 47/47/47 55/55/48
f 55/55/48 56/56/49 48/48/46
f 55/55/48 47/47/47 46/46/50
f 43/43/51 53/53/52 51/51/42
f 51/51/42 44/44/41 43/43/51
f 51/51/42 53/53/52 54/54/53
f 54/54/53 52/52/44 51/51/42
f 42/42/54 41/41/55 53/53/52
f 53/53/52 43/43/51 42/42/54
f 53/53/52 41/41/55 40/40/56
f 40/40/56 54/54/53 53/53/52
f 45/45/40 50/50/43 55/55/48
f 55/55/48 46/46/50 45/45/40
f 50/50/43 49/49/45 56/56/49
f 56/56/49 55/55/48 50/50/43
s 15
f 62/62/57 61/61/58 68/68/59
f 68/68/59 67/67/60 62/62/57
f 69/69/61 66/66/62 67/67/60
f 67/67/60 68/68/59 69/69/61
f 65/65/63 64/64/64 72/72/65
f 72/72/65 73/73/66 65/65/63
f 72/72/65 64/64/64 63/63/67
f 60/60/68 70/70/69 68/68/59
f 68/68/59 61/61/58 60/60/68
f 68/68/59 70/70/69 71/71/70
f 71/71/70 69/69/61 68/68/59
f 59/59/71 58/58/72 70/70/69
f 70/70/69 60/60/68 59/59/71
f 70/70/69 58/58/72 57/57/73
f 57/57/73 71/71/70 70/70/69
f 62/62/57 67/67/60 72/72/65
f 72/72/65 63/63/67 62/62/57
f 67/67/60 66/66/62 73/73/66
f 73/73/66 72/72/65 67/67/60
s 20
f 79/79/74 78/78/75 77/77/76
f 79/79/74 77/77/76 84/84/77
f 79/79/74 84/84/77 88/88/78
f 86/86/79 89/89/80 81/81/81
f 81/81/81 80/80/82 86/86/79
f 77/77/76 76/76/83 75/75/84
f 75/75/84 84/84/77 77/77/76
f 86/86/79 80/80/82 79/79/74
f 79/79/74 88/88/78 86/86/79
f 84/84/77 75/75/84 74/74/85
f 74/74/85 85/85/86 84/84/77
f 84/84/77 85/85/86 83/83/87
f 83/83/87 88/88/78 84/84/77
f 88/88/78 83/83/87 87/87/88
f 87/87/88 86/86/79 88/88/78
f 86/86/79 87/87/88 82/82/89
f 82/82/89 89/89/80 86/86/79
s 22
f 95/95/90 94/94/91 101/101/92
f 101/101/92 100/100/93 95/95/90
f 102/102/94 99/99/95 100/100/93
f 100/100/93 101/101/92 102/102/94
f 98/98/96 97/97/97 105/105/98
f 105/105/98 106/106/99 98/98/96
f 105/105/98 97/97/97 96/96/100
f 93/93/101 103/103/102 101/101/92
f 101/101/92 94/94/91 93/93/101
f 101/101/92 103/103/102 104/104/103
f 104/104/103 102/102/94 101/101/92
f 92/92/104 91/91/105 103/103/102
f 103/103/102 93/93/101 92/92/104
f 103/103/102 91/91/105 90/90/106
f 90/90/106 104/104/103 103/103/102
f 95/95/90 100/100/93 105/105/98
f 105/105/98 96/96/100 95/95/90
f 100/100/93 99/99/95 106/106/99
f 106/106/99 105/105/98 100/100/93
s 27
f 113/113/107 124/124/108 122/122/109
f 122/122/109 114/114/110 113/113/107
f 114/114/110 128/128/111 117/117/112
f 117/117/112 115/115/113 114/114/110
f 127/127/114 116/116/115 118/118/116
f 118/118/116 126/126/117 127/127/114
f 116/116/115 107/107/118 119/119/119
f 119/119/119 118/118/116 116/116/115
f 118/118/116 120/120/120 125/125/121
f 125/125/121 126/126/117 118/118/116
f 120/120/120 118/118/116 119/119/119
f 119/119/119 121/121/122 120/120/120
f 120/120/120 122/122/109 124/124/108
f 124/124/108 125/125/121 120/120/120
f 122/122/109 120/120/120 121/121/122
f 121/121/122 123/123/123 122/122/109
f 113/113/107 112/112/124 111/111/125
f 111/111/125 124/124/108 113/113/107
f 111/111/125 110/110/126 125/125/121
f 125/125/121 124/124/108 111/111/125
f 110/110/126 109/109/127 126/126/117
f 126/126/117 125/125/121 110/110/126
f 126/126/117 109/109/127 108/108/128
f 108/108/128 127/127/114 126/126/117
f 114/114/110 122/122/109 123/123/123
f 123/123/123 128/128/111 114/114/110
