# This file uses inches as units for non-parametric coordinates.

v -18.867171 22.983484 -2.628472
v -12.547331 20.725124 -11.211242
v -13.365316 17.618307 -9.650835
v -18.629137 19.595227 -2.039653
v -4.885255 9.723311 10.563646
v 1.849890 6.237410 8.814901
v -1.902120 6.686185 12.467474
v -11.994591 13.693762 -7.346122
v -17.590223 17.183908 -1.226166
v -7.764943 4.683921 10.773156
v -3.792248 7.819060 13.960831
v -2.261240 16.144719 22.039988
v -6.169387 13.926659 19.125849
v -3.161322 8.100202 18.139746
v 10.604253 21.999472 23.837744
v 14.980582 22.599434 18.743935
v 9.200009 23.535094 22.677056
v 13.863177 18.141373 18.258659
v 12.897384 15.213968 15.394987
v 17.036648 16.180964 12.277373
v -13.026249 13.749285 -1.926859
v -12.630275 15.233093 2.661143
v -16.727184 17.274675 3.829497
v 11.061044 11.568051 6.823024
v -1.038522 1.537953 6.148445
v 0.673136 6.456779 8.539098
v -9.018900 12.835202 -3.762361
v -4.297293 0.627619 2.184956
v -9.005795 12.450648 3.325109
v 15.045226 5.784620 2.419530
v 17.938230 12.826973 3.824954
v 13.349394 12.668746 6.686436
v 11.415000 7.141236 -5.320848
v 7.752315 13.196950 -9.113740
v 15.838886 15.752707 -7.443162
v 6.755924 17.229791 -15.297596
v 14.610719 16.385323 -10.028747
v 18.417670 17.862745 11.315257
v 18.640821 21.539314 12.610195
v 14.181732 18.855662 -13.418905
v 7.152015 21.510451 -16.841789
v 19.863242 22.702909 -13.116989
v 19.136849 16.053641 -4.707452
v 22.261714 18.147412 -7.638801
v 19.408843 15.375151 1.894215
v -18.488277 23.098473 4.701882
v -13.217706 23.244285 19.341528
v 2.475823 23.468314 15.884702
v 21.479275 22.514512 6.456396
v 22.884402 18.558197 2.456347
v 23.450828 21.900327 -1.447410
v 5.770925 18.492049 -16.400419
v 2.661188 17.951052 -16.139852
v 1.848845 22.013279 -16.388333
v -19.394550 22.218093 8.055661
v -19.497376 19.707999 5.790690
v -17.129728 17.119944 11.008415
v -0.171283 0.335400 4.045027
v 1.684958 0.574976 1.363709
v 2.503690 6.226775 7.188598
v -0.119829 7.269933 19.054423
v 4.931057 4.400633 17.475995
v 1.985072 12.428039 22.064728
v 9.767017 9.415504 6.335157
v 4.887075 5.655441 1.353335
v 10.935849 6.365008 4.753994
v 1.741431 23.301367 -14.456142
v 13.694099 23.492531 -8.337448
v 13.256234 23.517289 -14.186834
v -6.513762 17.572045 -14.049561
v -10.036056 15.317835 -11.516971
v 2.796991 6.300206 -3.159952
v 3.155138 11.069963 -6.514681
v 7.650913 4.967817 -5.275208
v 22.254742 22.855508 -6.236008
v 9.285720 23.223916 -4.588710
v 14.204236 22.447998 2.402352
v 5.337503 8.218580 6.966880
v 7.894680 5.406032 9.811806
v 6.996771 9.711044 5.539452
v -15.476643 15.044731 12.215113
v -14.787765 14.610864 7.460322
v -10.794386 15.667438 18.279407
v -6.699947 12.970379 17.093888
v -6.731915 8.545047 9.102181
v 5.670199 3.953662 -3.113725
v 6.462272 3.192308 0.116259
v 3.721173 4.946754 -1.441831
v -13.852363 22.521438 20.449979
v -14.496952 16.416376 15.582614
v 9.313497 16.648057 20.779839
v 7.515083 18.213182 23.027997
v 8.073231 10.908280 20.033857
v 11.635803 18.513120 21.894969
v -9.755689 23.285419 -5.553998
v 4.372711 23.483239 -2.026396
v 14.310086 5.397069 0.052368
v 11.602086 3.857672 -2.280158
v 7.859909 23.047578 -16.413127
v 0.000004 0.000001 -0.000005
v -1.274943 -0.320058 2.903179
v -2.210129 4.435697 -4.964098
v -8.493864 12.977806 -5.519840
v -2.084916 11.349362 -9.186545
v -6.107091 5.547947 5.212542
v -7.499257 14.206892 -11.689555
v -3.301542 14.247963 -12.758778
v 23.895718 19.924024 -5.098964
v -17.140831 22.156897 13.700201
v -0.774080 2.459931 -4.389745
v -0.887018 8.142851 -7.145805
v 1.450375 1.072000 -2.100922
v -9.421606 10.979980 4.698566
v -10.573611 9.083129 5.688666
v -10.123984 14.209785 2.671904
v 9.942287 5.378562 15.200624
v 12.312315 11.006225 13.987679
v -12.679818 11.497544 5.098964
v -15.209948 12.635241 7.550269
v -13.159186 14.934501 3.982560
v -1.992950 6.749724 17.641600
v 8.454478 4.755261 11.829049
v 3.618274 3.569833 12.762636
v 0.956352 12.718740 -8.776935
v 0.628307 14.394798 -11.208186
v 5.718471 12.149952 -8.408829
v 5.346192 7.393836 4.368042
v 3.118898 2.078715 0.215417
v -11.880075 5.806526 13.674731
v -12.400433 6.083604 11.395466
v -9.461063 3.964202 10.605308
v -9.387898 4.301552 12.707144
v -5.365786 6.809569 14.260098
v -10.515172 5.550281 14.068848
v -11.403609 12.541162 16.706977
v -10.622243 9.031968 16.111011
v -4.891925 9.528551 16.136580
v -15.571610 13.171597 11.657848
v -13.046086 15.652039 16.545821
v 8.713143 22.777728 14.754355
v 14.135839 22.943314 17.413263
v -2.584382 23.398263 4.413638
v -10.000654 14.221294 -0.029963
v 2.484187 15.097807 23.694870
v 6.532400 18.255735 23.770501
v 7.714660 20.772733 23.644629
v 7.559209 23.361495 23.637221
v 5.925294 23.516032 25.301431
v -1.146314 23.400286 26.674928
v 5.510583 22.991334 26.318701
v 5.354393 4.096107 10.812086
v -8.925330 16.640509 21.405141
v -0.042076 20.583047 26.095510
v -8.389578 22.556219 24.651935
v -12.256140 21.550526 22.187395
v -12.372953 17.609583 19.853157
v -9.534075 13.441492 -5.704186
v -4.832351 2.850947 -1.939775
v 15.230690 14.598120 6.501622
v 17.584833 14.712581 4.447688
v 20.431714 16.578172 6.435054
v 20.983770 16.598852 -0.531052
v 8.517945 3.041435 0.558279
v 23.309054 22.438585 -5.611193
v 19.771988 23.328383 -11.848044
v -18.749285 18.343803 0.933956
v -18.687971 23.032387 1.504415
v 12.168292 11.162132 15.496944
v 20.231226 19.219532 -11.892918
v -14.219198 8.949538 11.514488
v 19.173314 22.345073 9.565845
v 19.055275 19.954028 9.771235
v 12.181847 22.755125 6.056948
v 1.715448 17.578840 23.687886
v 21.230655 18.439405 7.901503
v 20.910091 21.169770 8.544425
v 18.618059 17.329206 9.040322
v -5.094693 23.235322 -14.325242
v -9.724487 22.769554 -13.091942
v -3.116628 22.809187 -15.493091
v -3.079360 18.578755 -15.450524
v -10.098199 4.892709 8.990428
v 11.230123 11.351768 9.488497
v 11.402058 16.275602 18.567904
v -14.118806 14.097554 -3.029556
v -18.045888 18.646810 3.507166
v -18.228891 22.797291 2.886271
v -3.622232 13.845644 -9.443110
v 0.575150 16.214343 -13.613255
v -19.767009 22.532213 5.655977
v 3.113761 23.232605 11.007031
v 5.299452 23.498872 3.835076
v -18.630633 22.986269 9.100041
v 8.393137 3.204976 -2.207596
v 17.950717 22.713089 10.475624
v 7.841163 5.566684 17.355775
v 7.220601 9.413233 19.857118
v -0.152374 20.856160 -15.796261
v 0.154761 18.295761 -15.455283
v 0.345272 22.746905 27.078982
v 12.726927 21.299247 22.573923
v -9.279196 23.154401 23.702202
v -0.753981 13.815767 -9.809359
v 4.912608 23.342925 9.603545
v 2.993901 4.324638 10.820333
v 0.644269 22.854877 -15.565184
v 5.038353 23.128792 15.524554
v 3.744939 22.852480 13.600259
v -7.691381 8.863246 7.238943
v 5.749132 23.241608 5.951026
vt 0.342860 0.169002
vt 0.382681 0.164252
vt 0.383225 0.185508
vt 0.347014 0.188585
vt 0.290813 0.345812
vt 0.153878 0.333520
vt 0.198945 0.318773
vt 0.387861 0.216686
vt 0.350304 0.204416
vt 0.284179 0.317914
vt 0.218781 0.311563
vt 0.179504 0.218726
vt 0.204868 0.247346
vt 0.181599 0.274453
vt 0.147379 0.131213
vt 0.136350 0.099240
vt 0.159795 0.124257
vt 0.109641 0.123503
vt 0.087525 0.140549
vt 0.080849 0.099588
vt 0.364620 0.233771
vt 0.340744 0.249770
vt 0.329214 0.221794
vt 0.028821 0.148497
vt 0.410274 0.353965
vt 0.403902 0.380899
vt 0.386043 0.246543
vt 0.407604 0.323473
vt 0.348689 0.278506
vt 0.553899 0.247406
vt 0.585469 0.194289
vt 0.601503 0.244609
vt 0.511254 0.223003
vt 0.483263 0.186124
vt 0.524287 0.154961
vt 0.460466 0.141739
vt 0.508362 0.148810
vt 0.088011 0.079150
vt 0.119483 0.062969
vt 0.490793 0.125496
vt 0.447767 0.113195
vt 0.505459 0.095971
vt 0.549297 0.148112
vt 0.540329 0.115674
vt 0.584546 0.162845
vt 0.314290 0.171400
vt 0.244050 0.185491
vt 0.215471 0.110962
vt 0.611224 0.070212
vt 0.591075 0.115010
vt 0.567335 0.084741
vt 0.451238 0.132764
vt 0.441225 0.141399
vt 0.423603 0.112584
vt 0.304025 0.188688
vt 0.317878 0.201674
vt 0.289307 0.221494
vt 0.425421 0.339126
vt 0.447072 0.322499
vt 0.444632 0.372856
vt 0.156224 0.263746
vt 0.117492 0.266424
vt 0.149067 0.223235
vt 0.561044 0.301579
vt 0.489145 0.312813
vt 0.550579 0.283414
vt 0.412426 0.092892
vt 0.468104 0.061677
vt 0.471338 0.093262
vt 0.411882 0.165690
vt 0.400371 0.188762
vt 0.468708 0.267515
vt 0.465492 0.221861
vt 0.495505 0.247163
vt 0.535077 0.073228
vt 0.432632 0.033706
vt 0.521761 0.000106
vt 0.000105 0.187560
vt 0.019907 0.163934
vt 0.027554 0.203409
vt 0.526625 0.328629
vt 0.282404 0.236079
vt 0.310222 0.242334
vt 0.234077 0.237125
vt 0.214237 0.260178
vt 0.314831 0.328749
vt 0.488650 0.268603
vt 0.499515 0.287403
vt 0.476547 0.286461
vt 0.241350 0.192022
vt 0.261695 0.228118
vt 0.121512 0.159789
vt 0.137081 0.161841
vt 0.107997 0.207504
vt 0.126388 0.139652
vt 0.350362 0.120912
vt 0.352845 0.025399
vt 0.539941 0.243254
vt 0.519970 0.250176
vt 0.446740 0.103444
vt 0.438553 0.314341
vt 0.423379 0.330622
vt 0.435149 0.273234
vt 0.397392 0.237066
vt 0.437293 0.220473
vt 0.360712 0.318967
vt 0.411490 0.191199
vt 0.430334 0.185859
vt 0.551456 0.098899
vt 0.276092 0.191916
vt 0.441446 0.285473
vt 0.444284 0.244285
vt 0.452660 0.300655
vt 0.337238 0.287242
vt 0.321581 0.291068
vt 0.348366 0.265180
vt 0.066426 0.221920
vt 0.070578 0.171033
vt 0.323545 0.271191
vt 0.307924 0.254054
vt 0.333341 0.251945
vt 0.174711 0.280333
vt 0.040003 0.213675
vt 0.136350 0.303172
vt 0.452301 0.206834
vt 0.448475 0.185995
vt 0.476153 0.199939
vt 0.494996 0.335731
vt 0.463361 0.311253
vt 0.265412 0.287555
vt 0.279038 0.286977
vt 0.282193 0.306332
vt 0.269471 0.303271
vt 0.231332 0.305986
vt 0.260621 0.292987
vt 0.244846 0.253308
vt 0.246981 0.273196
vt 0.209412 0.284842
vt 0.284368 0.246267
vt 0.251317 0.234427
vt 0.189317 0.086495
vt 0.145188 0.091140
vt 0.288792 0.085047
vt 0.361873 0.255056
vt 0.148383 0.203784
vt 0.141704 0.167127
vt 0.148814 0.148090
vt 0.163888 0.132597
vt 0.168148 0.142780
vt 0.185435 0.171871
vt 0.165826 0.150118
vt 0.130025 0.352974
vt 0.127442 0.315706
vt 0.215185 0.226539
vt 0.172699 0.183652
vt 0.212905 0.190568
vt 0.231302 0.197672
vt 0.236973 0.220984
vt 0.394426 0.233208
vt 0.416180 0.294067
vt 0.609027 0.206317
vt 0.596753 0.183535
vt 0.613056 0.144235
vt 0.574572 0.141533
vt 0.514261 0.277566
vt 0.541658 0.081080
vt 0.506684 0.089262
vt 0.339087 0.200607
vt 0.327399 0.169175
vt 0.079247 0.174944
vt 0.085998 0.278998
vt 0.516588 0.112852
vt 0.281796 0.269449
vt 0.128247 0.040557
vt 0.102173 0.053190
vt 0.200922 0.028479
vt 0.110762 0.325921
vt 0.103358 0.308486
vt 0.587319 0.275741
vt 0.033619 0.128414
vt 0.158172 0.195378
vt 0.622388 0.123907
vt 0.628856 0.101425
vt 0.642064 0.122626
vt 0.632768 0.147575
vt 0.070008 0.077013
vt 0.396232 0.124874
vt 0.388858 0.145953
vt 0.405373 0.121550
vt 0.420617 0.148585
vt 0.291593 0.301571
vt 0.044036 0.156923
vt 0.106788 0.149218
vt 0.366312 0.223827
vt 0.329029 0.206005
vt 0.321603 0.169252
vt 0.427266 0.208022
vt 0.440814 0.165740
vt 0.312228 0.182463
vt 0.235362 0.089470
vt 0.199840 0.000106
vt 0.274918 0.044395
vt 0.297733 0.184513
vt 0.505349 0.265017
vt 0.136219 0.047191
vt 0.094623 0.250629
vt 0.110158 0.222188
vt 0.116730 0.030718
vt 0.125615 0.015399
vt 0.421146 0.125360
vt 0.432407 0.145343
vt 0.178535 0.171549
vt 0.137793 0.124571
vt 0.218601 0.188017
vt 0.442116 0.199887
vt 0.236774 0.076549
vt 0.040357 0.107308
vt 0.145288 0.315564
vt 0.414729 0.105456
vt 0.205419 0.102143
vt 0.219468 0.097198
vt 0.493889 0.356398
vt 0.422104 0.390692
vt 0.328859 0.313586
vt 0.001763 0.170322
vt 0.254223 0.052960
vn -0.590925 0.735679 -0.331036
vn -0.662250 -0.021088 -0.748986
vn -0.782098 -0.328669 -0.529433
vn -0.860765 -0.290572 -0.417914
vn -0.003317 -0.945483 0.325656
vn -0.272115 -0.846567 -0.457469
vn -0.520042 -0.829587 -0.203326
vn -0.471471 -0.823420 -0.315745
vn -0.766072 -0.541157 -0.346818
vn 0.638071 -0.618951 -0.458002
vn 0.055054 -0.987542 -0.147408
vn -0.264986 -0.500678 0.824077
vn -0.409219 -0.606395 0.681781
vn -0.468584 -0.426284 0.773764
vn 0.361696 0.168768 0.916893
vn 0.766892 0.430455 0.476009
vn 0.107449 0.993394 0.040293
vn 0.755871 -0.405974 0.513657
vn 0.748169 -0.606291 0.269545
vn 0.564261 -0.767632 0.303894
vn -0.190520 -0.964089 0.185028
vn -0.307084 -0.940105 0.147992
vn -0.573382 -0.818491 0.036132
vn 0.535889 -0.757230 0.373396
vn -0.137647 -0.643799 0.752712
vn 0.120998 -0.545084 0.829604
vn -0.908090 -0.412790 -0.070551
vn -0.798281 -0.600739 0.043125
vn -0.907101 -0.418438 -0.045575
vn 0.729762 -0.606112 0.316346
vn 0.672100 -0.340546 0.657503
vn 0.544632 -0.555992 0.627892
vn 0.434402 -0.461047 -0.773777
vn 0.261713 -0.599773 -0.756160
vn 0.418601 -0.522880 -0.742543
vn 0.213146 -0.762793 -0.610505
vn 0.300468 -0.825338 -0.478055
vn 0.854317 -0.276168 0.440312
vn 0.874358 -0.111172 0.472376
vn 0.293848 -0.503197 -0.812679
vn 0.197218 -0.174646 -0.964678
vn 0.550178 0.012616 -0.834952
vn 0.714201 -0.596183 -0.366718
vn 0.507369 -0.824622 -0.250150
vn 0.802091 -0.597198 -0.002173
vn -0.028067 0.999545 -0.011081
vn -0.039406 0.999112 0.014917
vn 0.002540 0.999964 -0.008094
vn 0.353208 0.929123 0.109431
vn 0.942628 -0.291296 0.163091
vn 0.964646 0.214061 0.153737
vn 0.241274 -0.348985 -0.905537
vn -0.081131 -0.604267 -0.792640
vn -0.140800 0.118177 -0.982960
vn -0.938610 -0.125686 0.321269
vn -0.863414 -0.500182 -0.065843
vn -0.882304 -0.274458 0.382378
vn 0.595531 -0.651431 0.470086
vn 0.674064 -0.671588 0.307582
vn 0.630162 -0.615990 0.472707
vn -0.172734 -0.527116 0.832052
vn 0.010557 -0.765473 0.643381
vn -0.011204 -0.462408 0.886597
vn 0.638515 -0.768010 -0.049593
vn -0.056696 -0.729033 0.682127
vn 0.038450 -0.601756 0.797754
vn -0.009288 0.999560 -0.028158
vn 0.006994 0.999178 0.039925
vn 0.023447 0.994246 -0.104527
vn -0.372809 -0.280557 -0.884478
vn -0.525919 -0.416381 -0.741644
vn 0.206386 -0.537036 -0.817922
vn -0.254766 -0.572219 -0.779525
vn -0.106865 -0.566468 -0.817125
vn 0.044215 0.997106 0.061846
vn 0.030178 0.998243 0.050994
vn 0.044401 0.998692 0.025374
vn 0.231948 -0.804586 -0.546664
vn 0.212497 -0.726377 -0.653622
vn 0.234871 -0.891198 0.388074
vn -0.883466 -0.456187 0.106681
vn -0.792568 -0.585156 -0.171547
vn -0.359085 -0.670784 0.648928
vn -0.402172 -0.535348 0.742738
vn -0.299516 -0.909829 0.287229
vn -0.386284 -0.839808 -0.381454
vn -0.382094 -0.820100 0.425958
vn 0.315647 -0.876745 -0.362885
vn -0.859994 -0.006991 0.510256
vn -0.812170 -0.354505 0.463363
vn 0.574590 -0.438322 0.691173
vn 0.457496 -0.360129 0.813022
vn 0.549795 -0.341136 0.762464
vn 0.460672 -0.575032 0.676106
vn -0.019611 0.999780 -0.007385
vn 0.017518 0.999835 -0.004843
vn 0.768133 -0.542307 -0.340404
vn 0.555621 -0.710335 -0.432099
vn 0.073234 0.733440 -0.675798
vn -0.118040 -0.938406 -0.324747
vn -0.079439 -0.978371 0.190997
vn -0.474288 -0.461384 -0.749784
vn -0.579533 -0.466139 -0.668472
vn -0.331171 -0.445342 -0.831863
vn -0.905341 -0.418264 0.073577
vn -0.233474 -0.746669 -0.622877
vn -0.018557 -0.862590 -0.505563
vn 0.947442 -0.249328 -0.200471
vn -0.907463 -0.099380 0.408209
vn -0.167857 -0.761329 -0.626261
vn 0.440942 -0.418038 -0.794238
vn 0.609553 -0.496288 -0.618177
vn 0.116497 -0.692170 -0.712270
vn 0.219532 -0.564553 -0.795667
vn -0.414278 -0.617156 -0.668948
vn 0.752937 -0.638761 0.158338
vn 0.934163 -0.314699 -0.168239
vn -0.579964 -0.478965 -0.658965
vn -0.855630 -0.370410 -0.361515
vn -0.645909 -0.516686 -0.561995
vn -0.454266 -0.866585 0.206576
vn 0.549103 -0.815156 -0.184409
vn -0.156663 -0.985409 0.066521
vn 0.271569 -0.619560 -0.736475
vn 0.008724 -0.854166 -0.519927
vn -0.074777 -0.733550 -0.675510
vn 0.732868 -0.597209 0.325954
vn 0.853367 -0.519056 -0.048442
vn -0.743818 -0.398801 0.536370
vn -0.747961 -0.616794 -0.245193
vn -0.361409 -0.930175 -0.064477
vn 0.147021 -0.897782 0.415177
vn 0.320208 -0.745802 0.584163
vn 0.025928 -0.578544 0.815239
vn -0.276886 -0.300735 0.912629
vn -0.130650 -0.364529 0.921981
vn -0.162103 -0.515989 0.841117
vn -0.890031 -0.236554 0.389726
vn -0.728461 -0.340218 0.594640
vn 0.043851 0.998720 -0.025227
vn 0.033445 0.999236 -0.020203
vn -0.012953 0.999915 0.001791
vn -0.405300 -0.907611 0.109428
vn -0.080370 -0.373960 0.923956
vn 0.226040 -0.393982 0.890890
vn 0.417774 -0.110298 0.901831
vn 0.165045 0.967559 0.191286
vn -0.001279 0.999860 0.016702
vn -0.046533 0.981133 0.187653
vn 0.355031 -0.173665 0.918582
vn 0.066478 -0.805481 -0.588882
vn -0.279242 -0.571558 0.771586
vn -0.090041 -0.518342 0.850420
vn -0.335608 -0.289755 0.896331
vn -0.537027 -0.323379 0.779120
vn -0.649422 -0.483724 0.586739
vn -0.091561 -0.992970 -0.075009
vn -0.711378 -0.536228 -0.454314
vn 0.460811 -0.811733 0.358809
vn 0.578652 -0.628253 0.520058
vn 0.571163 -0.784811 0.240510
vn 0.694313 -0.719673 -0.000711
vn 0.186988 -0.926213 0.327361
vn 0.776856 0.610285 -0.155073
vn 0.125699 0.991164 -0.042362
vn -0.909468 -0.401555 0.107801
vn -0.158203 0.986728 0.036610
vn 0.795466 -0.275721 0.539640
vn 0.532921 -0.557261 -0.636753
vn -0.911560 -0.409288 0.039264
vn 0.412388 0.888629 0.200685
vn 0.837428 -0.146158 0.526642
vn 0.047287 0.998866 -0.005606
vn -0.074380 -0.428379 0.900533
vn 0.855827 -0.226494 0.465039
vn 0.753901 0.122030 0.645556
vn 0.643964 -0.713853 0.275182
vn -0.055768 0.995345 -0.078603
vn -0.471702 0.385913 -0.792823
vn -0.219695 0.260347 -0.940188
vn -0.232372 -0.197959 -0.952269
vn -0.516332 -0.646101 -0.562099
vn 0.956103 -0.227405 -0.184810
vn 0.698998 -0.407820 0.587440
vn -0.599754 -0.799999 0.017248
vn -0.959379 -0.273016 -0.071089
vn -0.612487 0.783598 -0.104090
vn -0.196883 -0.841779 -0.502638
vn 0.068894 -0.730892 -0.679006
vn -0.927941 0.339279 -0.154323
vn 0.073502 0.997258 0.008607
vn 0.061449 0.998050 0.010931
vn -0.445371 0.879206 0.169240
vn 0.021226 -0.952657 -0.303305
vn 0.102071 0.994724 -0.010310
vn 0.472430 -0.510506 0.718466
vn 0.192673 -0.438139 0.878016
vn -0.149882 -0.030203 -0.988243
vn -0.061285 -0.479119 -0.875608
vn -0.108122 -0.240756 0.964545
vn 0.785586 -0.188600 0.589308
vn -0.220409 0.921496 0.319790
vn -0.012294 -0.545392 -0.838091
vn 0.046521 0.998660 0.022659
vn -0.387215 -0.835060 -0.390818
vn -0.106844 0.676460 -0.728688
vn -0.012877 0.999754 -0.018068
vn 0.086453 0.995741 -0.032023
vn -0.852784 -0.521980 -0.017226
vn 0.040195 0.998750 0.029696
s 1
f 1/1/1 2/2/2 3/3/3
f 4/4/4 1/1/1 3/3/3
f 5/5/5 6/6/6 7/7/7
f 8/8/8 9/9/9 3/3/3
f 10/10/10 5/5/5 11/11/11
f 12/12/12 13/13/13 14/14/14
f 15/15/15 16/16/16 17/17/17
f 18/18/18 19/19/19 20/20/20
f 21/21/21 22/22/22 23/23/23
f 19/19/19 24/24/24 20/20/20
f 25/25/25 26/26/26 5/5/5
f 27/27/27 28/28/28 29/29/29
f 30/30/30 31/31/31 32/32/32
f 33/33/33 34/34/34 35/35/35
f 36/36/36 37/37/37 34/34/34
f 37/37/37 35/35/35 34/34/34
f 18/18/18 38/38/38 39/39/39
f 40/40/40 41/41/41 42/42/42
f 43/43/43 44/44/44 45/45/45
f 46/46/46 47/47/47 48/48/48
f 49/49/49 50/50/50 51/51/51
f 52/52/52 41/41/41 40/40/40
f 41/41/41 53/53/53 54/54/54
f 55/55/55 56/56/56 57/57/57
f 58/58/58 59/59/59 60/60/60
f 61/61/61 62/62/62 63/63/63
f 64/64/64 65/65/65 66/66/66
f 67/67/67 68/68/68 69/69/69
f 2/2/2 70/70/70 71/71/71
f 72/72/72 73/73/73 74/74/74
f 75/75/75 76/76/76 77/77/77
f 78/78/78 64/79/64 79/80/79
f 80/81/80 65/65/65 64/64/64
f 81/82/81 56/56/56 82/83/82
f 13/13/13 83/84/83 84/85/84
f 25/25/25 85/86/85 28/28/28
f 7/7/7 11/11/11 5/5/5
f 86/87/86 87/88/87 88/89/88
f 89/90/89 57/57/57 90/91/90
f 91/92/91 92/93/92 93/94/93
f 92/93/92 91/92/91 94/95/94
f 95/96/95 96/97/96 67/67/67
f 97/98/97 30/30/30 98/99/98
f 67/67/67 69/69/69 99/100/99
f 28/28/28 100/101/100 101/102/101
f 102/103/102 103/104/103 104/105/104
f 105/106/105 29/29/29 28/28/28
f 106/107/106 70/70/70 107/108/107
f 50/50/50 108/109/108 51/51/51
f 57/57/57 89/90/89 109/110/109
f 106/107/106 107/108/107 8/8/8
f 110/111/110 111/112/111 112/113/112
f 113/114/113 114/115/114 115/116/115
f 116/117/116 64/79/64 117/118/117
f 45/45/45 30/30/30 43/43/43
f 118/119/118 119/120/119 120/121/120
f 84/85/84 14/14/14 13/13/13
f 121/122/121 11/11/11 7/7/7
f 122/123/122 64/79/64 116/117/116
f 62/62/62 121/122/121 123/124/123
f 73/73/73 72/72/72 124/125/124
f 125/126/125 53/53/53 126/127/126
f 127/128/127 128/129/128 65/65/65
f 112/113/112 111/112/111 72/72/72
f 129/130/129 130/131/130 131/132/131
f 132/133/132 133/134/133 134/135/134
f 135/136/135 136/137/136 137/138/137
f 138/139/138 129/130/129 139/140/139
f 140/141/140 17/17/17 141/142/141
f 46/46/46 48/48/48 142/143/142
f 143/144/143 22/22/22 21/21/21
f 120/121/120 115/116/115 118/119/118
f 144/145/144 93/94/93 145/146/145
f 146/147/146 15/15/15 147/148/147
f 148/149/148 47/47/47 149/150/149
f 146/147/146 147/148/147 150/151/150
f 6/6/6 78/152/78 151/153/151
f 127/128/127 60/60/60 59/59/59
f 152/154/152 153/155/153 154/156/154
f 152/154/152 155/157/155 156/158/156
f 143/144/143 21/21/21 157/159/157
f 157/159/157 8/8/8 107/108/107
f 158/160/158 28/28/28 27/27/27
f 100/101/100 28/28/28 110/111/110
f 159/161/159 160/162/160 161/163/161
f 162/164/162 108/109/108 50/50/50
f 30/30/30 163/165/163 98/99/98
f 30/30/30 32/32/32 66/66/66
f 108/109/108 42/42/42 164/166/164
f 165/167/165 68/68/68 75/75/75
f 1/1/1 166/168/166 167/169/167
f 142/143/142 95/96/95 167/169/167
f 93/94/93 116/117/116 168/170/168
f 116/171/116 62/62/62 123/124/123
f 42/42/42 108/109/108 169/172/169
f 44/44/44 43/43/43 37/37/37
f 170/173/170 129/130/129 138/139/138
f 81/82/81 82/83/82 119/120/119
f 171/174/171 39/39/39 172/175/172
f 141/142/141 173/176/173 140/141/140
f 78/152/78 79/177/79 151/153/151
f 123/124/123 122/178/122 116/171/116
f 30/30/30 66/66/66 163/165/163
f 87/88/87 66/66/66 65/65/65
f 53/53/53 36/36/36 126/127/126
f 53/53/53 41/41/41 52/52/52
f 32/32/32 24/179/24 66/66/66
f 32/180/32 20/20/20 24/24/24
f 152/154/152 12/12/12 153/155/153
f 145/146/145 153/155/153 174/181/174
f 144/145/144 12/12/12 14/14/14
f 174/181/174 144/145/144 145/146/145
f 5/5/5 10/10/10 85/86/85
f 85/86/85 25/25/25 5/5/5
f 175/182/175 176/183/176 172/184/172
f 177/185/177 159/161/159 161/163/161
f 177/186/177 20/20/20 32/180/32
f 172/175/172 39/39/39 38/38/38
f 126/127/126 74/74/74 73/73/73
f 126/127/126 73/73/73 124/125/124
f 1/1/1 178/187/178 179/188/179
f 180/189/180 181/190/181 179/188/179
f 119/120/119 170/173/170 138/139/138
f 182/191/182 130/131/130 119/120/119
f 83/84/83 13/13/13 152/154/152
f 12/12/12 152/154/152 13/13/13
f 19/19/19 117/118/117 183/192/183
f 168/170/168 184/193/184 93/94/93
f 23/23/23 166/168/166 185/194/185
f 166/168/166 186/195/186 187/196/187
f 85/86/85 10/10/10 114/115/114
f 182/191/182 119/120/119 118/119/118
f 188/197/188 157/159/157 107/108/107
f 125/126/125 107/108/107 189/198/189
f 187/196/187 56/56/56 190/199/190
f 142/143/142 187/196/187 46/46/46
f 191/200/191 142/143/142 48/48/48
f 77/201/77 96/97/96 192/202/192
f 47/47/47 193/203/193 89/90/89
f 152/154/152 154/156/154 155/157/155
f 35/35/35 43/43/43 33/33/33
f 35/35/35 37/37/37 43/43/43
f 2/2/2 71/71/71 3/3/3
f 71/71/71 8/8/8 3/3/3
f 82/83/82 120/121/120 119/120/119
f 23/23/23 120/121/120 82/83/82
f 142/143/142 96/97/96 95/96/95
f 192/202/192 96/97/96 142/143/142
f 23/23/23 82/83/82 56/56/56
f 187/196/187 186/195/186 56/56/56
f 194/204/194 98/99/98 163/165/163
f 34/34/34 33/33/33 74/74/74
f 75/75/75 77/77/77 49/49/49
f 195/205/195 173/176/173 141/142/141
f 196/206/196 62/62/62 116/171/116
f 197/207/197 63/63/63 62/62/62
f 87/88/87 65/65/65 88/89/88
f 128/129/128 88/89/88 65/65/65
f 44/44/44 169/172/169 108/109/108
f 162/164/162 44/44/44 108/109/108
f 16/16/16 18/18/18 39/39/39
f 171/174/171 16/16/16 39/39/39
f 184/193/184 19/19/19 18/18/18
f 168/170/168 19/19/19 184/193/184
f 171/174/171 172/175/172 176/208/176
f 171/174/171 49/209/49 173/176/173
f 128/129/128 112/113/112 88/89/88
f 59/59/59 101/102/101 100/101/100
f 149/150/149 150/151/150 148/149/148
f 150/151/150 153/155/153 145/146/145
f 181/190/181 198/210/198 199/211/199
f 199/211/199 107/108/107 181/190/181
f 64/64/64 66/66/66 24/179/24
f 117/118/117 64/79/64 183/192/183
f 43/43/43 98/99/98 33/33/33
f 98/99/98 74/74/74 33/33/33
f 137/138/137 134/135/134 133/134/133
f 121/122/121 137/138/137 11/11/11
f 154/156/154 153/155/153 200/212/200
f 200/212/200 153/155/153 150/151/150
f 156/158/156 83/84/83 152/154/152
f 90/91/90 81/82/81 139/140/139
f 94/95/94 15/15/15 92/93/92
f 16/16/16 15/15/15 201/213/201
f 202/214/202 149/150/149 47/47/47
f 202/214/202 47/47/47 89/90/89
f 58/58/58 60/60/60 25/25/25
f 101/102/101 25/25/25 28/28/28
f 9/9/9 8/8/8 185/194/185
f 21/21/21 8/8/8 157/159/157
f 179/188/179 70/70/70 2/2/2
f 1/1/1 179/188/179 2/2/2
f 103/104/103 188/197/188 104/105/104
f 111/112/111 124/125/124 72/72/72
f 99/100/99 69/69/69 42/42/42
f 42/42/42 165/167/165 164/166/164
f 203/215/203 104/105/104 188/197/188
f 107/108/107 125/126/125 188/197/188
f 198/210/198 53/53/53 199/211/199
f 53/53/53 125/126/125 189/198/189
f 164/166/164 51/51/51 108/109/108
f 51/51/51 164/166/164 49/49/49
f 84/85/84 135/136/135 137/138/137
f 137/138/137 14/14/14 84/85/84
f 175/182/175 50/50/50 49/49/49
f 161/163/161 162/164/162 50/50/50
f 191/200/191 204/216/204 142/143/142
f 173/176/173 204/216/204 140/141/140
f 169/172/169 44/44/44 37/37/37
f 40/40/40 37/37/37 36/36/36
f 169/172/169 40/40/40 42/42/42
f 169/172/169 37/37/37 40/40/40
f 74/74/74 98/99/98 194/204/194
f 72/72/72 74/74/74 86/87/86
f 114/115/114 113/114/113 85/86/85
f 105/106/105 28/28/28 85/86/85
f 99/100/99 42/42/42 41/41/41
f 54/54/54 99/100/99 41/41/41
f 133/134/133 132/133/132 10/10/10
f 132/133/132 129/130/129 131/132/131
f 182/191/182 114/115/114 10/10/10
f 132/133/132 131/132/131 10/10/10
f 161/163/161 160/162/160 45/45/45
f 30/30/30 45/45/45 31/31/31
f 32/32/32 160/162/160 159/161/159
f 32/180/32 159/217/159 177/186/177
f 182/191/182 118/119/118 114/115/114
f 115/116/115 114/115/114 118/119/118
f 7/7/7 6/6/6 205/218/205
f 123/124/123 121/122/121 7/7/7
f 67/67/67 96/97/96 76/76/76
f 96/97/96 77/77/77 76/76/76
f 110/111/110 112/113/112 100/101/100
f 59/59/59 100/101/100 112/113/112
f 57/57/57 109/110/109 55/55/55
f 109/110/109 89/90/89 193/203/193
f 181/190/181 180/189/180 198/210/198
f 206/219/206 99/100/99 54/54/54
f 77/201/77 173/176/173 49/209/49
f 173/176/173 77/201/77 192/202/192
f 193/203/193 55/55/55 109/110/109
f 190/199/190 46/46/46 187/196/187
f 17/17/17 140/141/140 207/220/207
f 140/141/140 204/216/204 207/220/207
f 68/68/68 67/67/67 76/76/76
f 75/75/75 68/68/68 76/76/76
f 165/167/165 42/42/42 69/69/69
f 68/68/68 165/167/165 69/69/69
f 125/126/125 203/215/203 188/197/188
f 125/126/125 126/127/126 124/125/124
f 45/45/45 160/162/160 31/31/31
f 160/162/160 32/32/32 31/31/31
f 112/113/112 72/72/72 88/89/88
f 86/87/86 88/89/88 72/72/72
f 167/169/167 95/96/95 1/1/1
f 1/1/1 95/96/95 178/187/178
f 143/144/143 27/27/27 29/29/29
f 143/144/143 115/116/115 22/22/22
f 145/146/145 93/94/93 92/93/92
f 145/146/145 92/93/92 150/151/150
f 135/136/135 139/140/139 129/130/129
f 156/158/156 139/140/139 83/84/83
f 81/82/81 57/57/57 56/56/56
f 57/57/57 81/82/81 90/91/90
f 156/158/156 155/157/155 89/90/89
f 155/157/155 154/156/154 89/90/89
f 201/213/201 18/18/18 16/16/16
f 201/213/201 15/15/15 94/95/94
f 138/139/138 81/82/81 119/120/119
f 81/82/81 138/139/138 139/140/139
f 94/95/94 18/18/18 201/213/201
f 184/193/184 18/18/18 94/95/94
f 161/163/161 175/182/175 177/185/177
f 161/163/161 50/50/50 175/182/175
f 144/145/144 174/181/174 12/12/12
f 153/155/153 12/12/12 174/181/174
f 176/183/176 175/182/175 49/49/49
f 171/174/171 176/208/176 49/209/49
f 147/148/147 148/149/148 150/151/150
f 208/221/208 48/48/48 147/148/147
f 80/81/80 127/128/127 65/65/65
f 60/60/60 127/128/127 78/222/78
f 180/189/180 206/219/206 198/210/198
f 95/96/95 67/67/67 178/187/178
f 17/17/17 207/220/207 147/148/147
f 15/15/15 17/17/17 147/148/147
f 205/218/205 123/124/123 7/7/7
f 122/178/122 123/124/123 151/153/151
f 126/127/126 36/36/36 34/34/34
f 126/127/126 34/34/34 74/74/74
f 63/63/63 144/145/144 14/14/14
f 63/63/63 93/94/93 144/145/144
f 71/71/71 70/70/70 106/107/106
f 106/107/106 8/8/8 71/71/71
f 70/70/70 179/188/179 181/190/181
f 181/190/181 107/108/107 70/70/70
f 16/16/16 195/205/195 141/142/141
f 16/16/16 141/142/141 17/17/17
f 47/47/47 46/46/46 193/203/193
f 190/199/190 193/203/193 46/46/46
f 104/105/104 124/125/124 111/112/111
f 102/103/102 104/105/104 111/112/111
f 154/156/154 200/212/200 149/150/149
f 149/150/149 200/212/200 150/151/150
f 196/206/196 197/207/197 62/62/62
f 93/94/93 196/206/196 116/117/116
f 158/160/158 103/104/103 102/103/102
f 158/160/158 110/111/110 28/28/28
f 23/23/23 186/195/186 166/168/166
f 186/195/186 23/23/23 56/56/56
f 130/131/130 129/130/129 170/173/170
f 130/131/130 170/173/170 119/120/119
f 87/88/87 86/87/86 194/204/194
f 194/204/194 86/87/86 74/74/74
f 197/207/197 196/206/196 93/94/93
f 93/94/93 63/63/63 197/207/197
f 102/103/102 110/111/110 158/160/158
f 102/103/102 111/112/111 110/111/110
f 206/219/206 54/54/54 198/210/198
f 198/210/198 54/54/54 53/53/53
f 10/10/10 11/11/11 133/134/133
f 11/11/11 137/138/137 133/134/133
f 162/164/162 45/45/45 44/44/44
f 161/163/161 45/45/45 162/164/162
f 135/136/135 84/85/84 83/84/83
f 139/140/139 135/136/135 83/84/83
f 6/223/6 60/60/60 78/222/78
f 60/60/60 26/26/26 25/25/25
f 166/168/166 187/196/187 167/169/167
f 187/196/187 142/143/142 167/169/167
f 22/22/22 120/121/120 23/23/23
f 120/121/120 22/22/22 115/116/115
f 163/165/163 87/88/87 194/204/194
f 87/88/87 163/165/163 66/66/66
f 27/27/27 103/104/103 158/160/158
f 27/27/27 143/144/143 157/159/157
f 177/186/177 38/38/38 20/20/20
f 38/38/38 18/18/18 20/20/20
f 26/26/26 6/223/6 5/5/5
f 26/26/26 60/60/60 6/223/6
f 113/114/113 209/224/209 85/86/85
f 113/114/113 29/29/29 209/224/209
f 27/27/27 157/159/157 103/104/103
f 103/104/103 157/159/157 188/197/188
f 172/184/172 177/185/177 175/182/175
f 177/186/177 172/175/172 38/38/38
f 48/48/48 47/47/47 148/149/148
f 48/48/48 148/149/148 147/148/147
f 53/53/53 52/52/52 36/36/36
f 36/36/36 52/52/52 40/40/40
f 154/156/154 149/150/149 202/214/202
f 154/156/154 202/214/202 89/90/89
f 115/116/115 29/29/29 113/114/113
f 143/144/143 29/29/29 115/116/115
f 136/137/136 135/136/135 129/130/129
f 136/137/136 134/135/134 137/138/137
f 208/221/208 191/200/191 48/48/48
f 208/221/208 204/216/204 191/200/191
f 208/221/208 147/148/147 207/220/207
f 207/220/207 204/216/204 208/221/208
f 151/153/151 79/177/79 122/178/122
f 122/123/122 79/80/79 64/79/64
f 67/67/67 206/219/206 180/189/180
f 67/67/67 99/100/99 206/219/206
f 59/59/59 112/113/112 128/129/128
f 127/128/127 59/59/59 128/129/128
f 178/187/178 180/189/180 179/188/179
f 178/187/178 67/67/67 180/189/180
f 199/211/199 189/198/189 107/108/107
f 199/211/199 53/53/53 189/198/189
f 9/9/9 4/4/4 3/3/3
f 1/1/1 4/4/4 166/168/166
f 78/222/78 127/128/127 80/81/80
f 64/79/64 78/78/78 80/225/80
f 101/102/101 59/59/59 58/58/58
f 25/25/25 101/102/101 58/58/58
f 4/4/4 9/9/9 166/168/166
f 9/9/9 185/194/185 166/168/166
f 146/147/146 150/151/150 92/93/92
f 15/15/15 146/147/146 92/93/92
f 8/8/8 21/21/21 185/194/185
f 21/21/21 23/23/23 185/194/185
f 134/135/134 129/130/129 132/133/132
f 134/135/134 136/137/136 129/130/129
f 195/205/195 16/16/16 171/174/171
f 195/205/195 171/174/171 173/176/173
f 210/226/210 204/216/204 173/176/173
f 210/226/210 142/143/142 204/216/204
f 205/218/205 6/6/6 151/153/151
f 205/218/205 151/153/151 123/124/123
f 131/132/131 130/131/130 182/191/182
f 182/191/182 10/10/10 131/132/131
f 168/170/168 117/118/117 19/19/19
f 117/118/117 168/170/168 116/117/116
f 24/24/24 183/192/183 64/79/64
f 183/192/183 24/24/24 19/19/19
f 121/122/121 62/62/62 61/61/61
f 14/14/14 61/61/61 63/63/63
f 124/125/124 104/105/104 203/215/203
f 125/126/125 124/125/124 203/215/203
f 142/143/142 210/226/210 192/202/192
f 210/226/210 173/176/173 192/202/192
f 184/193/184 91/92/91 93/94/93
f 91/92/91 184/193/184 94/95/94
f 89/90/89 90/91/90 156/158/156
f 156/158/156 90/91/90 139/140/139
f 105/106/105 85/86/85 209/224/209
f 29/29/29 105/106/105 209/224/209
f 55/55/55 193/203/193 190/199/190
f 56/56/56 55/55/55 190/199/190
f 61/61/61 14/14/14 121/122/121
f 121/122/121 14/14/14 137/138/137
f 165/167/165 75/75/75 164/166/164
f 164/166/164 75/75/75 49/49/49
f 43/43/43 97/98/97 98/99/98
f 97/98/97 43/43/43 30/30/30
