# This file uses inches as units for non-parametric coordinates.

v 7.103828 2.711854 11.738739
v 11.755096 -0.135064 10.248505
v 11.881500 4.915236 10.503677
v 7.004112 -0.166816 10.569805
v 10.939270 -0.051403 3.884254
v 14.142441 -0.047406 7.981277
v 10.377777 6.925107 4.258049
v 12.480072 7.743854 6.417137
v 11.857483 5.817454 4.167282
v 14.010094 6.405835 6.979820
v 15.389130 2.044647 6.843292
v 7.469910 6.184199 8.247566
v 6.262421 3.411555 11.171936
v 12.835838 7.289099 8.618950
v 5.800514 0.655860 4.820160
v 4.867043 0.469212 8.426968
v 5.580627 3.802379 5.945801
v 11.784241 1.810970 2.666397
v 10.724190 3.300023 2.411079
v 4.868294 1.790241 8.960876
v 7.459869 0.076848 4.161369
v 14.024147 5.244178 9.560539
v 14.730553 1.522622 9.410782
v 8.558441 6.812687 4.592072
v 6.716164 5.758146 5.633057
v -2.149498 10.093914 7.490746
v 2.485893 10.283501 3.797012
v -3.382584 9.985856 4.289948
v 8.996292 5.215364 5.654831
v 8.008034 8.294693 3.741631
v 7.513130 8.953869 5.996979
v 8.668098 3.500237 3.665924
v 3.579460 1.047030 -1.275772
v 4.683784 4.755116 -0.481407
v -0.291786 0.142947 6.043144
v -0.600128 0.784035 -0.142273
v 6.690582 0.404108 4.520630
v -5.464104 6.385417 5.786118
v -6.359161 1.437190 4.462265
v -6.030418 3.313457 10.320122
v 6.867989 3.435164 10.428875
v 5.413963 8.415333 9.249489
v 3.498878 4.740269 13.592697
v -5.369263 0.357107 9.734005
v 3.070679 0.364542 12.776646
v -2.072090 0.314482 12.806801
v -4.395294 1.784189 1.391586
v -3.261070 8.249065 1.124084
v -1.128342 1.476801 -0.848930
v 5.846390 0.277484 9.667580
v -4.964813 6.314451 9.327045
v -2.205559 6.903342 11.530045
v -2.175858 3.246569 14.476612
v 0.589928 6.180639 13.183708
v 2.393303 9.315802 10.393784
v 1.178879 1.486585 -1.575089
v -0.454338 8.776170 -0.513062
v 3.308022 7.976035 -1.139954
v 1.576080 1.179102 13.850071
v 1.583214 3.982313 14.731552
v 4.070076 2.403853 13.432362
v 7.705055 1.338370 3.742043
v 8.021904 0.999240 6.416328
v 8.205284 2.673036 7.813911
v -4.560654 0.698720 2.911972
v -5.487907 3.926371 3.141502
v 0.514015 10.084965 1.968086
v -4.533455 2.600980 13.190056
v 5.233582 9.302896 0.959969
v -0.363525 9.549037 9.676842
v -6.983025 15.789011 -10.786331
v -3.479675 20.856787 -6.955833
v -3.821960 15.383637 -7.700195
v -11.394081 6.059116 -8.913223
v -12.833672 11.572256 -8.801804
v -9.584435 12.307490 -10.104271
v -4.401077 22.877163 -4.764091
v -6.706169 23.092192 -9.067055
v -10.868965 25.671974 -6.280960
v -8.662125 25.117132 -3.871902
v -5.733940 0.442656 1.460197
v -7.920975 0.663016 -6.281853
v -0.823357 0.418817 -3.494904
v 0.441368 1.307403 0.142357
v -14.637253 4.686259 -5.916672
v -10.842194 0.524847 -2.380234
v -13.659172 1.742330 0.183075
v -14.197495 2.801377 -4.754173
v -3.342751 19.921412 -4.622177
v -1.888031 10.915419 -1.964523
v -3.147614 15.974015 -6.330307
v -15.698280 12.588682 -2.513008
v -13.991852 17.531925 -1.973274
v -15.781532 16.355392 -4.734489
v -9.065178 5.624492 4.634041
v -10.273232 10.778465 3.261597
v -12.312157 6.257495 2.070641
v -2.647377 1.836539 2.679283
v -9.831436 23.158092 -1.545143
v -8.406425 11.597893 2.129211
v -7.612350 7.134829 -9.907379
v -4.585182 6.676100 -9.768661
v -7.239555 24.195248 -3.385773
v -2.848152 9.691776 -0.462463
v -8.465652 22.817444 -9.235451
v -11.413795 15.916212 -9.225563
v -12.794250 23.697454 -6.826004
v -11.903641 24.569046 -5.064980
v -14.765594 19.940689 -5.656570
v -10.676445 13.880163 2.328568
v -15.995613 11.098494 -4.600853
v -15.116783 6.309525 -0.760536
v -15.729340 5.016531 -3.191681
v -10.826439 0.918391 2.852585
v -7.794273 2.127975 4.932503
v -14.533745 15.957521 -7.293701
v -6.776093 20.041695 -10.398033
v -2.163658 1.130920 -7.457825
v -0.894981 2.137568 -7.103249
v -2.479630 8.414778 -7.333221
v -0.687332 6.114256 -6.043228
v -1.987099 10.162960 -5.097420
v 0.817856 3.485194 -4.176117
v -5.832451 1.607964 -8.883514
v -9.169960 2.394926 -8.757744
v -11.901192 2.089386 -7.074265
v -4.315529 22.251076 -7.912117
v 0.479439 4.793006 -1.014938
v -10.897964 17.947546 0.785614
v -12.793541 11.201915 1.192429
v -13.609070 14.126053 -0.129120
v -2.914734 3.115619 -8.720848
v 0.216576 2.275864 0.733765
v 21.653526 23.740526 -19.454605
v 1.173607 4.056623 -3.282501
v 16.592506 17.034977 -11.910431
v 0.381271 0.453714 -2.899742
v 7.411011 0.624496 -10.253944
v 11.435524 0.206685 -0.906662
v 19.352661 0.777478 -7.455917
v 23.023354 22.505085 -23.686256
v 23.835014 23.537067 -16.983551
v 28.172394 21.653484 -19.647881
v 4.989037 2.036581 2.768234
v -3.457352 1.805608 -4.158958
v 5.356369 0.241600 2.195129
v 28.119125 16.843716 -19.540512
v 24.762680 13.239828 -12.097198
v 24.610344 8.174887 -14.763466
v 27.134365 17.942221 -23.475296
v 24.132042 9.736565 -19.559952
v 25.940140 21.414669 -23.824837
v 3.777596 1.418845 -14.483589
v 4.724663 6.367662 -14.977386
v 11.558739 11.404808 -19.722244
v 24.833504 21.271881 -14.757004
v 20.799042 8.800216 -22.704033
v 17.954475 4.293823 -20.080429
v 12.410713 1.387557 -18.956299
v 24.476120 16.590975 -24.618584
v 20.405914 17.279362 -23.970436
v 21.087280 20.572662 -23.491875
v 10.374207 1.285141 3.126091
v 12.989204 2.282398 1.041466
v 21.647705 11.575771 -7.681007
v 18.631279 10.494047 -22.741394
v 15.286133 14.636564 -21.713554
v 4.597710 10.314590 -13.145821
v 18.082550 16.420229 -9.763657
v 7.722466 5.203495 0.773544
v 21.605316 14.250883 -9.051140
v 21.766945 5.523284 -17.806946
v 8.645782 1.028248 -16.746902
v 17.843681 1.228357 -15.821472
v 22.453690 4.069141 -11.671013
v 19.764427 4.771164 -6.249886
v 19.954597 1.030631 -11.189957
v 2.253471 7.821467 -10.182899
v -3.007523 1.484543 -9.684319
v -3.731651 1.025151 -4.757881
v -3.213181 4.049102 -9.385590
v 22.844337 12.305895 -23.858719
v 20.282021 22.960136 -19.794220
v 10.254395 0.483956 2.400543
v 17.349945 1.328484 -3.830215
v 28.810886 20.312550 -18.274574
v 7.282585 1.901408 -16.733383
v 27.265614 19.243141 -14.913887
v 27.890366 20.987841 -21.996719
v 1.464600 6.802999 -12.266747
v 17.681580 5.337815 -3.500252
v 19.902084 18.290867 -11.403999
v 3.781090 2.983132 1.372337
v 19.988922 16.952818 -10.609673
vt 0.730567 0.061794
vt 0.721026 0.033718
vt 0.747239 0.035811
vt 0.716859 0.068034
vt 0.684354 0.044558
vt 0.712705 0.017994
vt 0.779941 0.054324
vt 0.772016 0.040232
vt 0.788325 0.046857
vt 0.771119 0.028279
vt 0.778203 0.000045
vt 0.753488 0.066261
vt 0.733508 0.066967
vt 0.762032 0.035199
vt 0.759399 0.109982
vt 0.717090 0.092044
vt 0.755885 0.089503
vt 0.704333 0.003325
vt 0.671548 0.037172
vt 0.802560 0.066645
vt 0.727388 0.085202
vt 0.686019 0.072840
vt 0.755276 0.023304
vt 0.735502 0.009416
vt 0.773768 0.063120
vt 0.763318 0.074888
vt 0.812081 0.044308
vt 0.661571 0.046087
vt 0.686575 0.086221
vt 0.021251 0.741461
vt 0.032733 0.785874
vt 0.000000 0.742306
vt 0.083735 0.786900
vt 0.066367 0.795451
vt 0.061706 0.785328
vt 0.094447 0.795188
vt 0.118613 0.832326
vt 0.085400 0.820895
vt 0.129937 0.732622
vt 0.157271 0.768750
vt 0.115681 0.784036
vt 0.039938 0.690857
vt 0.108980 0.670667
vt 0.079222 0.697531
vt 0.086956 0.763815
vt 0.060298 0.767473
vt 0.073219 0.746680
vt 0.107004 0.698269
vt 0.092550 0.741221
vt 0.092290 0.717245
vt 0.028033 0.868432
vt 0.000000 0.821559
vt 0.055492 0.860895
vt 0.104387 0.757827
vt 0.049904 0.703963
vt 0.051983 0.723266
vt 0.076023 0.721008
vt 0.061039 0.736334
vt 0.047804 0.753955
vt 0.079136 0.853661
vt 0.019732 0.819286
vt 0.052992 0.821005
vt 0.086938 0.734548
vt 0.074041 0.736654
vt 0.084119 0.746351
vt 0.107459 0.792206
vt 0.104559 0.779353
vt 0.094506 0.774886
vt 0.144893 0.699135
vt 0.008525 0.681838
vt 0.061746 0.669683
vt 0.023363 0.794182
vt 0.079188 0.709182
vt 0.051573 0.807079
vt 0.037150 0.743179
vt 0.066358 0.650487
vt 0.161413 0.704805
vt 0.164289 0.767122
vt 0.145669 0.801235
vt 0.379243 0.821909
vt 0.413747 0.795877
vt 0.407020 0.827249
vt 0.293505 0.859771
vt 0.327674 0.827026
vt 0.353263 0.834994
vt 0.424064 0.779286
vt 0.395206 0.779794
vt 0.398712 0.748433
vt 0.426369 0.753233
vt 0.192643 0.809131
vt 0.218859 0.859474
vt 0.168818 0.845177
vt 0.158537 0.815432
vt 0.277942 0.839357
vt 0.229889 0.836114
vt 0.243098 0.819081
vt 0.261373 0.838644
vt 0.426456 0.798197
vt 0.448617 0.848569
vt 0.417122 0.823248
vt 0.301314 0.790068
vt 0.317788 0.762003
vt 0.325703 0.782686
vt 0.229341 0.785319
vt 0.257560 0.771187
vt 0.251647 0.794876
vt 0.175031 0.777549
vt 0.326927 0.713659
vt 0.256258 0.758994
vt 0.354267 0.869625
vt 0.381684 0.879164
vt 0.435161 0.760997
vt 0.462265 0.850777
vt 0.386350 0.775431
vt 0.353311 0.808269
vt 0.367021 0.753438
vt 0.363159 0.738245
vt 0.343890 0.768778
vt 0.277144 0.759800
vt 0.302908 0.804647
vt 0.268074 0.808714
vt 0.271062 0.823861
vt 0.224513 0.809134
vt 0.210402 0.794650
vt 0.336593 0.796800
vt 0.387203 0.797056
vt 0.182777 0.871828
vt 0.410197 0.907911
vt 0.409082 0.869939
vt 0.421257 0.884224
vt 0.426062 0.857471
vt 0.170977 0.873830
vt 0.149083 0.856817
vt 0.210214 0.875678
vt 0.240541 0.873029
vt 0.252907 0.856132
vt 0.407708 0.788060
vt 0.435362 0.900703
vt 0.455967 0.887870
vt 0.468266 0.906883
vt 0.492892 0.890858
vt 0.300664 0.742884
vt 0.275957 0.778031
vt 0.295160 0.771305
vt 0.455905 0.753960
vt 0.419661 0.733856
vt 0.193427 0.889170
vt 0.470380 0.899190
vt 0.248521 0.901328
vt 0.223570 0.907911
vt 0.392745 0.901094
vt 0.805644 0.787946
vt 0.849649 0.885673
vt 0.786827 0.817738
vt 0.965086 0.736362
vt 0.921751 0.729335
vt 0.841824 0.619728
vt 0.828968 0.655788
vt 0.816237 0.776571
vt 0.794113 0.782052
vt 0.798918 0.765230
vt 0.948238 0.601909
vt 0.999998 0.842543
vt 0.939558 0.611836
vt 0.803243 0.748528
vt 0.778947 0.731643
vt 0.809045 0.713517
vt 0.815276 0.756241
vt 0.825664 0.728246
vt 0.813162 0.767403
vt 0.931853 0.793830
vt 0.913231 0.819040
vt 0.876783 0.794570
vt 0.783395 0.775113
vt 0.847300 0.741656
vt 0.862007 0.733220
vt 0.893737 0.747356
vt 0.826330 0.758771
vt 0.836583 0.771089
vt 0.825912 0.776420
vt 0.699472 0.698159
vt 0.720107 0.695916
vt 0.756588 0.735567
vt 0.854986 0.755214
vt 0.857244 0.786374
vt 0.892615 0.840764
vt 0.766263 0.800750
vt 0.712841 0.832902
vt 0.756470 0.760594
vt 0.834941 0.714002
vt 0.910769 0.749155
vt 0.856707 0.708946
vt 0.813127 0.690010
vt 0.779318 0.687548
vt 0.833957 0.678765
vt 0.901382 0.859168
vt 0.920839 0.898595
vt 0.972438 0.837684
vt 0.998441 0.857278
vt 0.960426 0.857934
vt 0.837091 0.748928
vt 0.813912 0.789563
vt 0.892546 0.591428
vt 0.744516 0.653090
vt 0.787244 0.663607
vt 0.794954 0.759786
vt 0.915202 0.769023
vt 0.783973 0.757843
vt 0.806475 0.763593
vt 0.889342 0.598629
vt 0.699472 0.889707
vt 0.919412 0.843988
vt 0.751032 0.700799
vt 0.776262 0.796956
vt 0.742630 0.886699
vt 0.768990 0.793442
vn 0.063964 0.101027 0.992825
vn 0.259431 -0.362796 0.895028
vn 0.242853 0.142918 0.959477
vn -0.157380 -0.960073 0.231284
vn 0.184247 -0.950788 -0.249109
vn 0.266593 -0.962758 -0.044993
vn 0.096980 0.645006 -0.757998
vn 0.033715 0.994834 -0.095756
vn 0.656705 0.329187 -0.678509
vn 0.863207 0.425704 -0.271386
vn 0.906579 -0.058338 -0.417985
vn -0.514979 0.811394 0.276471
vn -0.521164 0.530054 0.668903
vn -0.000035 0.787506 0.616307
vn -0.711103 -0.022103 -0.702740
vn -0.776688 -0.624300 -0.083701
vn -0.839385 0.304323 -0.450356
vn 0.524936 -0.164963 -0.835002
vn -0.343333 0.182444 -0.921323
vn -0.918943 0.263415 0.293523
vn -0.215669 -0.874490 -0.434459
vn 0.808792 0.314195 0.497129
vn 0.648798 -0.148023 0.746425
vn -0.407812 0.822825 -0.395788
vn -0.690387 0.417131 -0.591073
vn -0.274705 0.924332 0.264853
vn 0.114401 0.992694 0.038366
vn -0.527248 0.844601 -0.093058
vn 0.967327 0.126332 0.219817
vn 0.820672 0.259668 -0.508989
vn 0.569557 0.779450 0.260887
vn 0.837532 -0.081014 -0.540349
vn 0.467082 -0.539441 -0.700598
vn 0.698848 0.067346 -0.712093
vn -0.014951 -0.998939 -0.043566
vn -0.027290 -0.986597 -0.160878
vn 0.102604 -0.989776 -0.099080
vn -0.939203 0.332929 -0.083998
vn -0.982413 -0.149068 -0.112442
vn -0.978957 0.094724 0.180749
vn 0.804619 0.145555 0.575675
vn 0.632793 0.485105 0.603528
vn 0.556459 0.415547 0.719496
vn -0.261722 -0.961620 0.082391
vn 0.121739 -0.968156 0.218754
vn -0.217785 -0.792629 0.569481
vn -0.689047 -0.063631 -0.721918
vn -0.721125 0.259452 -0.642389
vn -0.489570 -0.079022 -0.868376
vn 0.242493 -0.954896 0.171379
vn -0.731913 0.569040 0.374829
vn -0.460213 0.622143 0.633358
vn -0.281518 0.120071 0.952014
vn -0.154818 0.630487 0.760604
vn 0.188867 0.883753 0.428147
vn -0.121905 -0.020966 -0.992320
vn -0.266815 0.472677 -0.839873
vn 0.173808 0.211397 -0.961822
vn 0.055802 -0.466331 0.882849
vn 0.145368 0.264509 0.953364
vn 0.619180 -0.259891 0.740994
vn 0.710934 -0.568399 -0.414120
vn 0.848322 -0.523124 0.081799
vn 0.884757 -0.239480 0.399819
vn -0.211340 -0.962336 -0.171013
vn -0.885525 0.196419 -0.421028
vn -0.042098 0.951705 -0.304115
vn -0.711129 0.089532 0.697337
vn 0.414398 0.774591 -0.477790
vn -0.235919 0.744110 0.625015
vn 0.250223 0.031470 -0.967677
vn 0.852420 0.095509 -0.514060
vn 0.775060 0.095060 -0.624696
vn -0.426190 -0.174481 -0.887648
vn -0.548495 -0.039069 -0.835241
vn -0.260936 -0.067096 -0.963022
vn 0.664609 0.635615 0.392795
vn 0.365976 0.805649 -0.465823
vn 0.130419 0.933599 -0.333742
vn 0.096036 0.947992 0.303460
vn 0.044496 -0.987547 0.150900
vn -0.062932 -0.983962 -0.166909
vn 0.251854 -0.964751 -0.076321
vn 0.631917 -0.743083 0.220246
vn -0.771998 -0.159301 -0.615339
vn -0.230555 -0.971033 -0.062765
vn -0.773669 -0.527692 0.350681
vn -0.658359 -0.727140 -0.194499
vn 0.984634 0.172207 0.029008
vn 0.945111 0.302082 0.124548
vn 0.975839 0.109059 -0.189325
vn -0.914416 0.096352 0.393140
vn -0.743666 0.372695 0.555032
vn -0.983624 0.177703 0.030104
vn 0.005832 0.185742 0.982581
vn -0.393207 0.277961 0.876428
vn -0.665289 -0.007228 0.746551
vn 0.479568 0.209651 0.852092
vn 0.181138 0.435050 0.881998
vn 0.386267 0.316368 0.866435
vn -0.097586 -0.139013 -0.985471
vn 0.493194 0.016115 -0.869770
vn 0.498863 0.348387 0.793575
vn 0.570431 0.328894 0.752620
vn -0.350670 0.305606 -0.885232
vn -0.427768 0.132912 -0.894063
vn -0.584569 0.298468 -0.754451
vn -0.679787 0.559647 0.474009
vn -0.924120 0.377381 0.059890
vn -0.104148 0.221691 0.969539
vn -0.951479 -0.038780 -0.305260
vn -0.818867 0.000631 0.573983
vn -0.978600 -0.203307 0.031742
vn -0.452239 -0.672418 0.585948
vn 0.073044 -0.486346 0.870708
vn -0.741771 0.050748 -0.668731
vn 0.139383 0.154983 -0.978035
vn 0.183789 -0.890729 -0.415720
vn 0.773372 -0.072030 -0.629847
vn 0.775799 0.164764 -0.609088
vn 0.882155 0.291137 -0.370191
vn 0.941063 0.217106 -0.259357
vn 0.981353 0.056364 -0.183762
vn 0.015878 -0.478131 -0.878145
vn -0.246326 -0.445513 -0.860722
vn -0.474051 -0.702056 -0.531406
vn 0.688853 0.488033 -0.536008
vn 0.896581 0.304726 0.321379
vn -0.570459 0.354729 0.740772
vn -0.610965 0.124272 0.781843
vn -0.716084 0.182584 0.673711
vn 0.351759 -0.225045 -0.908637
vn 0.603232 0.290260 0.742873
vn -0.445914 0.824075 0.349372
vn -0.445569 0.795563 0.410546
vn -0.406932 0.796071 0.447970
vn -0.053208 -0.997232 -0.051939
vn -0.025194 -0.997309 -0.068849
vn 0.017090 -0.999632 -0.021047
vn 0.195204 -0.979868 0.041888
vn 0.056647 0.823870 -0.563941
vn 0.002183 0.944395 0.328805
vn 0.472319 0.881269 0.016720
vn -0.353066 0.169510 0.920115
vn -0.548490 0.708685 0.443762
vn -0.213885 -0.902023 0.374978
vn 0.940886 -0.338713 0.002556
vn 0.892199 -0.190862 0.409332
vn 0.917924 -0.395273 0.034272
vn 0.794670 -0.314893 -0.518982
vn 0.765605 -0.513987 -0.386867
vn 0.379694 0.453875 -0.806121
vn -0.519391 -0.438106 -0.733687
vn -0.596000 0.073202 -0.799641
vn -0.547449 0.071735 -0.833759
vn 0.363706 0.620032 0.695182
vn 0.298594 -0.530376 -0.793438
vn 0.383073 -0.698713 -0.604198
vn -0.252015 -0.358617 -0.898823
vn 0.030428 0.011472 -0.999471
vn -0.290292 -0.010601 -0.956879
vn -0.604322 0.467952 -0.644838
vn 0.282017 0.387424 0.877707
vn 0.673065 -0.004366 0.739570
vn 0.679184 0.125304 0.723193
vn -0.309562 -0.139963 -0.940522
vn -0.530010 0.136071 -0.837003
vn -0.685252 0.570299 -0.452977
vn -0.014530 0.703539 0.710508
vn -0.029522 0.686073 0.726934
vn 0.252698 0.540763 0.802321
vn 0.669293 -0.644104 -0.370374
vn -0.010942 -0.994949 -0.099783
vn 0.239234 -0.938508 -0.248939
vn 0.895410 -0.383785 0.225720
vn 0.840720 -0.167428 0.514935
vn 0.635478 -0.747250 -0.194384
vn -0.539316 0.804137 0.250003
vn -0.251684 -0.939558 -0.232135
vn -0.616567 -0.778472 0.117585
vn -0.777075 0.394588 -0.490361
vn 0.309938 -0.377660 -0.872532
vn -0.655325 0.713357 -0.248337
vn 0.262767 -0.913392 0.310915
vn 0.716102 -0.357425 0.599538
vn 0.981560 0.003909 0.191116
vn -0.456802 -0.124333 -0.880837
vn 0.695441 0.236649 0.678497
vn 0.887229 0.186844 -0.421798
vn -0.684390 0.432157 -0.587241
vn 0.741334 -0.059715 0.668474
vn -0.145200 0.730643 0.667141
vn -0.427346 0.770887 0.472343
vn 0.114239 0.610679 0.783595
s 1
f 1/1/1 2/2/2 3/3/3
f 4/4/4 5/5/5 6/6/6
f 7/7/7 8/8/8 9/9/9
f 10/10/10 11/11/11 9/9/9
f 12/12/12 13/13/13 14/14/14
f 15/15/15 16/16/16 17/17/17
f 11/18/11 5/5/5 18/19/18
f 19/20/19 15/15/15 17/17/17
f 2/2/2 1/1/1 4/4/4
f 13/13/13 12/12/12 20/21/20
f 5/5/5 4/4/4 21/22/21
f 18/19/18 5/5/5 21/22/21
f 11/18/11 6/6/6 5/5/5
f 11/11/11 22/23/22 23/24/23
f 10/10/10 22/23/22 11/11/11
f 14/14/14 1/1/1 3/3/3
f 24/25/24 12/12/12 8/8/8
f 24/25/24 19/20/19 25/26/25
f 17/17/17 20/21/20 12/12/12
f 12/12/12 24/25/24 25/26/25
f 4/4/4 16/16/16 21/22/21
f 20/21/20 4/4/4 13/13/13
f 6/6/6 2/2/2 4/4/4
f 3/3/3 2/2/2 23/24/23
f 2/2/2 6/6/6 23/24/23
f 23/24/23 6/6/6 11/18/11
f 9/9/9 11/11/11 18/27/18
f 18/19/18 21/22/21 19/28/19
f 14/14/14 8/8/8 12/12/12
f 22/23/22 10/10/10 14/14/14
f 17/17/17 16/16/16 20/21/20
f 20/21/20 16/16/16 4/4/4
f 9/9/9 19/20/19 7/7/7
f 18/27/18 19/20/19 9/9/9
f 25/26/25 17/17/17 12/12/12
f 19/20/19 17/17/17 25/26/25
f 10/10/10 9/9/9 8/8/8
f 8/8/8 14/14/14 10/10/10
f 13/13/13 4/4/4 1/1/1
f 14/14/14 13/13/13 1/1/1
f 22/23/22 14/14/14 3/3/3
f 3/3/3 23/24/23 22/23/22
f 21/22/21 16/16/16 15/29/15
f 21/22/21 15/29/15 19/28/19
f 8/8/8 7/7/7 24/25/24
f 7/7/7 19/20/19 24/25/24
s 9
f 26/30/26 27/31/27 28/32/28
f 29/33/29 30/34/30 31/35/31
f 32/36/32 33/37/33 34/38/34
f 35/39/35 36/40/36 37/41/37
f 38/42/38 39/43/39 40/44/40
f 41/45/41 42/46/42 43/47/43
f 44/48/44 45/49/45 46/50/46
f 47/51/47 48/52/48 49/53/49
f 50/54/50 35/39/35 37/41/37
f 51/55/51 26/30/26 28/32/28
f 52/56/52 53/57/53 54/58/54
f 55/59/55 43/47/43 42/46/42
f 27/31/27 55/59/55 31/35/31
f 56/60/56 57/61/57 58/62/58
f 53/57/53 59/63/59 60/64/60
f 50/54/50 41/45/41 61/65/61
f 33/37/33 32/36/32 62/66/62
f 63/67/63 64/68/64 50/54/50
f 39/43/39 44/48/44 40/44/40
f 35/39/35 65/69/65 36/40/36
f 48/70/48 66/71/66 38/42/38
f 57/61/57 28/32/28 67/72/67
f 51/55/51 68/73/68 52/56/52
f 68/73/68 40/44/40 44/48/44
f 69/74/69 58/62/58 57/61/57
f 30/34/30 32/36/32 34/38/34
f 41/45/41 29/33/29 31/35/31
f 64/68/64 63/67/63 29/33/29
f 27/31/27 26/30/26 55/59/55
f 70/75/70 54/58/54 55/59/55
f 67/72/67 69/74/69 57/61/57
f 31/35/31 69/74/69 27/31/27
f 37/41/37 36/40/36 33/37/33
f 33/37/33 56/60/56 58/62/58
f 43/47/43 55/59/55 60/64/60
f 61/65/61 60/64/60 59/63/59
f 31/35/31 30/34/30 69/74/69
f 34/38/34 69/74/69 30/34/30
f 35/39/35 44/48/44 65/69/65
f 44/48/44 35/39/35 50/54/50
f 44/48/44 50/54/50 45/49/45
f 45/49/45 50/54/50 61/65/61
f 57/61/57 48/52/48 28/32/28
f 57/61/57 49/53/49 48/52/48
f 29/33/29 63/67/63 32/36/32
f 29/33/29 32/36/32 30/34/30
f 48/70/48 38/42/38 28/32/28
f 38/42/38 51/55/51 28/32/28
f 47/76/47 66/71/66 48/70/48
f 65/69/65 44/48/44 39/43/39
f 38/42/38 40/44/40 51/55/51
f 51/55/51 40/44/40 68/73/68
f 65/69/65 39/43/39 47/77/47
f 65/69/65 47/77/47 49/78/49
f 43/47/43 61/65/61 41/45/41
f 61/65/61 43/47/43 60/64/60
f 46/50/46 59/63/59 53/57/53
f 46/50/46 68/73/68 44/48/44
f 55/59/55 42/46/42 31/35/31
f 41/45/41 31/35/31 42/46/42
f 50/54/50 37/41/37 63/67/63
f 63/67/63 62/66/62 32/36/32
f 68/73/68 53/57/53 52/56/52
f 68/73/68 46/50/46 53/57/53
f 34/38/34 33/37/33 58/62/58
f 69/74/69 34/38/34 58/62/58
f 54/58/54 70/75/70 52/56/52
f 51/55/51 52/56/52 26/30/26
f 67/72/67 27/31/27 69/74/69
f 28/32/28 27/31/27 67/72/67
f 36/40/36 65/69/65 49/78/49
f 56/60/56 49/53/49 57/61/57
f 26/30/26 70/75/70 55/59/55
f 52/56/52 70/75/70 26/30/26
f 54/58/54 53/57/53 60/64/60
f 60/64/60 55/59/55 54/58/54
f 37/41/37 62/66/62 63/67/63
f 37/41/37 33/37/33 62/66/62
f 41/45/41 50/54/50 64/68/64
f 29/33/29 41/45/41 64/68/64
f 33/37/33 36/40/36 56/79/56
f 56/79/56 36/40/36 49/78/49
f 59/63/59 46/50/46 45/49/45
f 59/63/59 45/49/45 61/65/61
f 38/42/38 66/71/66 39/43/39
f 66/71/66 47/76/47 39/43/39
s 24
f 71/80/71 72/81/72 73/82/73
f 74/83/74 75/84/75 76/85/76
f 77/86/77 78/87/78 79/88/79
f 80/89/80 77/86/77 79/88/79
f 81/90/81 82/91/82 83/92/83
f 81/90/81 83/92/83 84/93/84
f 75/84/75 74/83/74 85/94/85
f 86/95/86 87/96/87 88/97/88
f 89/98/89 90/99/90 91/100/91
f 92/101/92 93/102/93 94/103/94
f 95/104/95 96/105/96 97/106/97
f 98/107/98 99/108/99 100/109/100
f 101/110/101 71/80/71 102/111/102
f 77/86/77 103/112/103 104/113/104
f 105/114/105 106/115/106 107/116/107
f 108/117/108 109/118/109 93/102/93
f 100/109/100 99/108/99 110/119/110
f 93/102/93 99/108/99 108/117/108
f 92/101/92 94/103/94 111/120/111
f 87/96/87 112/121/112 113/122/113
f 97/106/97 114/123/114 95/104/95
f 98/107/98 115/124/115 81/90/81
f 109/118/109 107/116/107 116/125/116
f 111/120/111 94/103/94 116/125/116
f 106/115/106 117/126/117 71/80/71
f 71/80/71 117/126/117 72/81/72
f 102/111/102 71/80/71 73/82/73
f 82/91/82 118/127/118 83/92/83
f 119/128/119 120/129/120 121/130/121
f 121/130/121 122/131/122 90/99/90
f 119/132/119 123/133/123 83/92/83
f 123/133/123 84/93/84 83/92/83
f 82/91/82 124/134/124 118/127/118
f 125/135/125 82/91/82 126/136/126
f 114/123/114 87/96/87 86/95/86
f 114/123/114 97/106/97 87/96/87
f 127/137/127 78/87/78 77/86/77
f 72/81/72 89/98/89 91/100/91
f 116/125/116 85/94/85 111/120/111
f 87/96/87 113/122/113 88/97/88
f 74/83/74 76/85/76 101/110/101
f 74/83/74 125/135/125 126/136/126
f 123/138/123 128/139/128 84/140/84
f 104/113/104 103/112/103 98/141/98
f 129/142/129 110/119/110 99/108/99
f 130/143/130 131/144/131 112/121/112
f 113/122/113 112/121/112 92/101/92
f 92/101/92 112/121/112 131/144/131
f 103/112/103 99/145/99 98/141/98
f 99/145/99 80/89/80 108/146/108
f 124/134/124 132/147/132 118/127/118
f 119/128/119 102/111/102 120/129/120
f 108/146/108 80/89/80 79/88/79
f 107/116/107 79/88/79 105/114/105
f 114/123/114 86/95/86 81/90/81
f 115/124/115 114/123/114 81/90/81
f 86/95/86 82/91/82 81/90/81
f 86/95/86 126/136/126 82/91/82
f 100/109/100 96/105/96 95/104/95
f 98/107/98 100/109/100 95/104/95
f 73/82/73 72/81/72 91/100/91
f 120/129/120 122/131/122 121/130/121
f 100/109/100 110/119/110 130/143/130
f 131/144/131 130/143/130 110/119/110
f 100/109/100 130/143/130 96/105/96
f 130/143/130 97/106/97 96/105/96
f 107/116/107 108/117/108 79/88/79
f 107/116/107 109/118/109 108/117/108
f 104/113/104 98/141/98 133/148/133
f 84/93/84 98/107/98 81/90/81
f 74/83/74 126/136/126 85/94/85
f 86/95/86 88/97/88 126/136/126
f 113/122/113 111/120/111 85/94/85
f 113/122/113 92/101/92 111/120/111
f 106/115/106 116/125/116 107/116/107
f 75/84/75 85/94/85 116/125/116
f 117/126/117 106/115/106 105/114/105
f 117/126/117 78/87/78 127/137/127
f 119/128/119 121/130/121 123/138/123
f 123/138/123 121/130/121 90/99/90
f 115/124/115 95/104/95 114/123/114
f 95/104/95 115/124/115 98/107/98
f 71/80/71 101/110/101 76/85/76
f 71/80/71 76/85/76 75/84/75
f 102/111/102 73/82/73 120/129/120
f 120/129/120 73/82/73 122/131/122
f 88/97/88 113/122/113 85/94/85
f 88/97/88 85/94/85 126/136/126
f 118/127/118 119/132/119 83/92/83
f 118/127/118 132/147/132 119/132/119
f 112/121/112 87/96/87 97/106/97
f 97/106/97 130/143/130 112/121/112
f 105/114/105 78/87/78 117/126/117
f 79/88/79 78/87/78 105/114/105
f 124/134/124 101/149/101 102/150/102
f 125/135/125 124/134/124 82/91/82
f 125/135/125 74/83/74 101/149/101
f 125/135/125 101/149/101 124/134/124
f 106/115/106 71/80/71 75/84/75
f 106/115/106 75/84/75 116/125/116
f 99/108/99 93/102/93 129/142/129
f 129/142/129 131/144/131 110/119/110
f 93/102/93 92/101/92 131/144/131
f 131/144/131 129/142/129 93/102/93
f 128/139/128 104/113/104 133/148/133
f 123/138/123 90/99/90 128/139/128
f 77/86/77 104/113/104 90/99/90
f 90/99/90 104/113/104 128/139/128
f 89/98/89 77/86/77 90/99/90
f 77/86/77 89/98/89 72/81/72
f 73/82/73 91/100/91 122/131/122
f 91/100/91 90/99/90 122/131/122
f 94/103/94 93/102/93 109/118/109
f 116/125/116 94/103/94 109/118/109
f 117/126/117 127/137/127 72/81/72
f 77/86/77 72/81/72 127/137/127
f 80/89/80 103/112/103 77/86/77
f 80/89/80 99/145/99 103/112/103
f 128/139/128 133/148/133 84/140/84
f 98/141/98 84/140/84 133/148/133
f 132/151/132 102/111/102 119/128/119
f 124/134/124 102/150/102 132/147/132
s 40
f 134/152/134 135/153/135 136/154/136
f 137/155/137 138/156/138 139/157/139
f 138/156/138 140/158/140 139/157/139
f 141/159/141 142/160/142 143/161/143
f 144/162/144 145/163/145 146/164/146
f 147/165/147 148/166/148 149/167/149
f 134/152/134 136/154/136 142/160/142
f 150/168/150 147/165/147 151/169/151
f 141/159/141 143/161/143 152/170/152
f 153/171/153 154/172/154 155/173/155
f 143/161/143 142/160/142 156/174/156
f 157/175/157 158/176/158 159/177/159
f 160/178/160 161/179/161 162/180/162
f 163/181/163 164/182/164 165/183/165
f 159/177/159 166/184/166 157/175/157
f 167/185/167 168/186/168 162/180/162
f 169/187/169 170/188/170 171/189/171
f 171/189/171 170/188/170 163/181/163
f 157/175/157 172/190/172 158/176/158
f 140/158/140 173/191/173 174/192/174
f 175/193/175 148/166/148 176/194/176
f 174/192/174 177/195/177 140/158/140
f 178/196/178 145/197/145 134/152/134
f 179/198/179 180/199/180 181/200/181
f 150/168/150 151/169/151 182/201/182
f 182/201/182 161/179/161 160/178/160
f 142/160/142 141/159/141 134/152/134
f 168/186/168 183/202/183 162/180/162
f 163/203/163 144/162/144 146/164/146
f 163/181/163 184/204/184 185/205/185
f 145/197/145 181/200/181 180/199/180
f 145/163/145 180/199/180 146/164/146
f 151/169/151 147/165/147 149/167/149
f 177/195/177 174/192/174 172/190/172
f 172/190/172 175/193/175 177/195/177
f 175/193/175 140/158/140 177/195/177
f 179/198/179 138/156/138 137/155/137
f 179/198/179 181/200/181 153/171/153
f 148/166/148 147/165/147 186/206/186
f 186/206/186 147/165/147 150/168/150
f 179/198/179 153/171/153 138/156/138
f 155/173/155 159/177/159 187/207/187
f 167/185/167 166/184/166 159/177/159
f 162/180/162 161/179/161 167/185/167
f 163/181/163 165/183/165 171/189/171
f 176/194/176 148/166/148 165/183/165
f 165/183/165 188/208/188 171/189/171
f 186/206/186 156/174/156 188/208/188
f 172/190/172 174/192/174 158/176/158
f 159/177/159 158/176/158 174/192/174
f 189/209/189 150/168/150 152/170/152
f 141/159/141 152/170/152 160/178/160
f 150/168/150 182/201/182 160/178/160
f 152/170/152 150/168/150 160/178/160
f 137/155/137 139/157/139 146/164/146
f 146/164/146 184/210/184 163/203/163
f 170/188/170 169/187/169 136/154/136
f 163/181/163 170/188/170 144/211/144
f 178/196/178 181/200/181 145/197/145
f 168/186/168 155/173/155 190/212/190
f 181/200/181 178/196/178 190/212/190
f 153/171/153 181/200/181 154/172/154
f 190/212/190 178/196/178 168/186/168
f 178/196/178 183/202/183 168/186/168
f 182/201/182 166/184/166 161/179/161
f 167/185/167 161/179/161 166/184/166
f 143/161/143 156/174/156 186/206/186
f 150/168/150 189/209/189 186/206/186
f 185/205/185 164/182/164 163/181/163
f 176/194/176 165/183/165 191/213/191
f 140/158/140 185/205/185 184/204/184
f 140/158/140 175/193/175 176/194/176
f 146/164/146 180/199/180 137/155/137
f 137/155/137 180/199/180 179/198/179
f 192/214/192 142/160/142 136/154/136
f 156/174/156 142/160/142 192/214/192
f 148/166/148 188/208/188 165/183/165
f 188/208/188 148/166/148 186/206/186
f 170/188/170 193/215/193 144/211/144
f 145/197/145 144/211/144 193/215/193
f 173/191/173 159/177/159 174/192/174
f 173/191/173 187/207/187 159/177/159
f 186/206/186 189/209/189 143/161/143
f 152/170/152 143/161/143 189/209/189
f 156/174/156 194/216/194 171/189/171
f 156/174/156 171/189/171 188/208/188
f 184/210/184 146/164/146 139/157/139
f 139/157/139 140/158/140 184/204/184
f 151/169/151 172/190/172 157/175/157
f 149/167/149 172/190/172 151/169/151
f 138/156/138 173/191/173 140/158/140
f 138/156/138 153/171/153 173/191/173
f 172/190/172 149/167/149 175/193/175
f 149/167/149 148/166/148 175/193/175
f 155/173/155 168/186/168 167/185/167
f 159/177/159 155/173/155 167/185/167
f 162/180/162 141/159/141 160/178/160
f 183/202/183 141/159/141 162/180/162
f 178/196/178 134/152/134 183/202/183
f 141/159/141 183/202/183 134/152/134
f 151/169/151 157/175/157 182/201/182
f 166/184/166 182/201/182 157/175/157
f 136/154/136 135/153/135 193/215/193
f 170/188/170 136/154/136 193/215/193
f 169/187/169 171/189/171 194/216/194
f 194/216/194 136/154/136 169/187/169
f 194/216/194 156/174/156 192/214/192
f 194/216/194 192/214/192 136/154/136
f 155/173/155 154/172/154 190/212/190
f 190/212/190 154/172/154 181/200/181
f 187/207/187 153/171/153 155/173/155
f 187/207/187 173/191/173 153/171/153
f 145/197/145 135/153/135 134/152/134
f 135/153/135 145/197/145 193/215/193
f 165/183/165 164/182/164 191/213/191
f 185/205/185 191/213/191 164/182/164
f 185/205/185 140/158/140 176/194/176
f 176/194/176 191/213/191 185/205/185
