# This file uses inches as units for non-parametric coordinates.

v 10.609480 7.629054 1.381536
v 6.686616 2.277066 10.437613
v 6.936953 3.425218 -3.065593
v -9.411755 16.677479 14.320591
v -11.785505 13.282881 12.727711
v -7.856981 2.768948 14.422295
v 1.229194 0.514608 -2.632091
v -0.340163 2.664410 -11.891864
v 2.483962 1.698346 -7.884632
v -8.118232 5.503609 -11.076006
v -9.874458 15.400287 -10.291206
v -0.962283 8.742178 -13.366974
v -10.557649 3.265040 5.380350
v -10.211399 18.517942 2.263673
v -7.494481 22.455848 10.038561
v -5.424783 29.164334 -3.062380
v -1.090687 31.037437 -2.872897
v 0.460725 31.059734 3.539900
v 10.112015 25.242137 3.778061
v 6.545135 15.675414 -7.096172
v 3.688745 13.160678 -10.443530
v 3.639319 16.645961 -8.405864
v -7.523465 18.312213 10.153424
v -11.131209 15.808036 6.048030
v -9.560906 17.813657 12.767552
v 8.074916 23.666179 -6.539998
v 10.000014 23.630187 -3.822242
v -12.595631 12.735201 7.222431
v -11.585071 17.252733 -5.403910
v -12.087701 10.606286 -3.002540
v 12.529729 17.149844 4.250318
v 12.020907 20.130735 7.048207
v 12.481889 12.444794 9.011243
v -11.096519 16.975912 -8.026311
v 3.582215 16.350385 12.060243
v -6.717711 13.334470 15.520841
v 2.024602 13.697452 13.005456
v -7.746981 18.224182 13.201271
v -2.619775 17.974913 10.690216
v 10.203376 24.342200 -1.300034
v -6.094563 4.727456 15.253240
v 4.688002 0.320217 1.750958
v -10.019167 20.689569 -7.093559
v -3.570995 26.533411 -7.110367
v 1.884544 19.617416 -7.299220
v 12.288729 9.938566 3.657746
v 12.352142 17.365784 1.208316
v 12.541950 10.488008 7.032714
v 8.112301 4.682604 8.876030
v 1.535455 0.405996 10.573714
v 4.505089 0.262729 6.674769
v -5.899465 1.688838 -6.154777
v -2.754903 2.778083 -11.961000
v 0.000004 -0.000000 -0.000000
v -6.439471 1.210628 -2.918366
v -0.020869 -0.179957 6.604159
v 6.016602 8.168861 -7.448795
v 4.492697 12.313767 -9.994129
v 9.987576 14.608291 -3.921472
v -1.709798 3.604251 -12.884749
v 0.717740 8.006479 -12.761013
v 0.928557 4.367758 -11.784108
v -8.808895 22.827533 -6.911466
v -3.921950 23.540069 10.141946
v 1.120573 17.837496 8.306165
v 11.146349 9.124020 0.424963
v 8.893505 20.362871 -6.661075
v 11.510166 17.292673 -1.408214
v 5.039786 22.762817 8.086561
v 8.655146 25.830870 4.606352
v -2.220458 27.773362 7.565879
v -9.979150 3.827780 -5.777387
v -3.892776 3.608262 -12.534542
v -2.734597 18.188942 -8.728447
v -4.235466 18.217093 -7.142903
v 0.442024 28.660118 -6.264236
v 4.090721 25.857944 -7.171077
v -7.111711 15.493100 -11.191378
v -8.263607 18.225750 -7.211950
v 12.069576 14.756329 10.216963
v 8.350417 17.406269 10.183553
v 9.212573 8.936880 10.198645
v 2.925053 3.446438 12.650261
v 2.683827 8.359787 13.204141
v 6.413071 3.473459 10.186852
v 6.474953 14.913484 10.253100
v 8.000129 17.501344 -7.107718
v -10.718941 2.866304 0.493171
v -2.925198 0.899234 12.091752
v -3.677128 3.572058 14.478201
v 7.334675 14.409002 -6.797617
v -3.689566 16.984636 13.015879
v 1.829134 17.550522 11.754118
v 7.991107 21.193064 7.888088
v 5.726699 17.624187 8.255405
v -12.443460 9.981606 2.669435
v -10.358405 3.224690 -3.159988
v -10.918806 4.319045 -1.175465
v -5.960760 25.721703 8.882293
v -1.608405 31.114658 -1.303720
v -8.980046 2.442134 -2.872257
v 4.410393 1.884869 -5.599503
v -10.399854 18.619862 -3.924428
v 3.441914 2.988593 -8.364775
v -4.230130 25.142321 9.995066
vt 0.229137 0.542310
vt 0.189745 0.585847
vt 0.202964 0.521246
vt 0.213661 0.706093
vt 0.181311 0.709543
vt 0.091936 0.619830
vt 0.167514 0.519839
vt 0.182440 0.475787
vt 0.184874 0.497361
vt 0.161974 0.451447
vt 0.191488 0.397878
vt 0.202515 0.448869
vt 0.089436 0.535800
vt 0.000456 0.505678
vt 0.424375 0.409608
vt 0.428849 0.504740
vt 0.357985 0.432626
vt 0.344748 0.454286
vt 0.357528 0.492301
vt 0.317699 0.532733
vt 0.255184 0.468302
vt 0.235259 0.456305
vt 0.252235 0.446229
vt 0.243470 0.721231
vt 0.213124 0.757000
vt 0.220618 0.714456
vt 0.292786 0.478402
vt 0.295615 0.496164
vt 0.035743 0.471481
vt 0.159693 0.381457
vt 0.116359 0.439679
vt 0.279527 0.548707
vt 0.299456 0.561470
vt 0.260640 0.575328
vt 0.182595 0.385548
vt 0.269279 0.636163
vt 0.198584 0.677716
vt 0.240836 0.639132
vt 0.458668 0.447428
vt 0.230368 0.705332
vt 0.280995 0.668972
vt 0.303150 0.507872
vt 0.127202 0.630327
vt 0.179713 0.544027
vt 0.286531 0.355098
vt 0.318959 0.420468
vt 0.276858 0.437805
vt 0.243844 0.551043
vt 0.276249 0.532968
vt 0.248968 0.567889
vt 0.206052 0.579936
vt 0.155079 0.587280
vt 0.174814 0.568076
vt 0.144345 0.488524
vt 0.173709 0.471751
vt 0.156627 0.530603
vt 0.130787 0.500276
vt 0.148472 0.566654
vt 0.222066 0.490618
vt 0.234300 0.463475
vt 0.257936 0.503444
vt 0.181851 0.468704
vt 0.204850 0.458227
vt 0.192826 0.473401
vt 0.300033 0.374340
vt 0.398902 0.532824
vt 0.451766 0.518358
vt 0.331294 0.627922
vt 0.236473 0.535597
vt 0.277697 0.481345
vt 0.272160 0.518026
vt 0.339557 0.566480
vt 0.325657 0.534558
vt 0.382218 0.510329
vt 0.132464 0.471407
vt 0.173714 0.465128
vt 0.256280 0.405739
vt 0.268212 0.395341
vt 0.322974 0.447729
vt 0.304690 0.459025
vt 0.213590 0.398409
vt 0.240947 0.372619
vt 0.273791 0.580519
vt 0.292441 0.599031
vt 0.236184 0.588955
vt 0.176518 0.601904
vt 0.207192 0.619103
vt 0.194899 0.588814
vt 0.272553 0.613703
vt 0.264267 0.475428
vt 0.099291 0.500660
vt 0.124206 0.598734
vt 0.133814 0.619025
vt 0.250483 0.480401
vt 0.248885 0.674796
vt 0.275674 0.644754
vt 0.318815 0.572534
vt 0.313283 0.606742
vt 0.070880 0.469940
vt 0.119505 0.483112
vt 0.108249 0.485875
vt 0.406931 0.504867
vt 0.350963 0.459961
vt 0.121464 0.490831
vt 0.190658 0.509146
vt 0.041068 0.441893
vt 0.081482 0.403719
vt 0.163381 0.368254
vt 0.193307 0.494252
vt 0.398891 0.521469
vt 0.340690 0.367099
vn 0.806104 -0.591281 -0.024139
vn 0.731282 -0.671059 0.122088
vn 0.806930 -0.540383 -0.238432
vn -0.365095 0.149836 0.918833
vn -0.936891 -0.077958 0.340819
vn -0.624118 -0.545396 0.559482
vn 0.075601 -0.992879 -0.092063
vn 0.120522 -0.921948 -0.368085
vn 0.236098 -0.933734 -0.269070
vn -0.728633 -0.150351 -0.668198
vn -0.443929 0.034389 -0.895402
vn -0.113891 0.143040 -0.983142
vn -0.935196 -0.306415 0.177533
vn -0.894014 0.440252 0.083170
vn -0.872718 0.409725 0.265498
vn -0.809607 0.586903 -0.009019
vn 0.392996 0.874117 -0.285434
vn 0.174872 0.938225 0.298587
vn 0.616175 0.785342 -0.059722
vn 0.224396 0.323699 -0.919166
vn 0.253527 0.411115 -0.875619
vn 0.230179 0.564434 -0.792737
vn -0.181620 0.521779 0.833523
vn -0.876251 0.462994 0.133492
vn -0.734588 0.674694 0.071898
vn 0.538358 0.697890 -0.472356
vn 0.782636 0.509251 -0.357972
vn -0.997719 0.039962 0.054397
vn -0.964182 0.264864 -0.014169
vn -0.973684 -0.098808 -0.205369
vn 0.998394 0.053920 0.017403
vn 0.860547 0.385936 0.332434
vn 0.962313 -0.076003 0.261106
vn -0.894219 0.122145 -0.430642
vn 0.373900 0.335505 0.864659
vn 0.071722 0.135167 0.988224
vn 0.262489 0.031453 0.964422
vn 0.081480 0.911011 0.404252
vn 0.083132 0.982752 0.165187
vn 0.787137 0.600411 -0.141143
vn 0.190727 -0.045325 0.980596
vn 0.523514 -0.845981 -0.101242
vn -0.619493 0.238115 -0.748017
vn -0.141482 0.301091 -0.943041
vn -0.003333 -0.004990 -0.999982
vn 0.969780 -0.176565 -0.168377
vn 0.983489 0.081288 -0.161683
vn 0.925078 -0.345452 0.157780
vn 0.833019 -0.533896 0.145031
vn 0.162228 -0.900032 0.404505
vn 0.159064 -0.985032 0.066413
vn -0.255770 -0.930046 -0.263811
vn -0.089363 -0.960682 -0.262876
vn -0.070537 -0.985543 -0.154046
vn -0.270154 -0.962815 -0.002124
vn -0.099837 -0.994568 0.029436
vn 0.786431 -0.229284 -0.573546
vn 0.712960 -0.080206 -0.696602
vn 0.823222 -0.150123 -0.547512
vn 0.181548 -0.240001 -0.953646
vn 0.516203 -0.068374 -0.853733
vn 0.672029 -0.214893 -0.708659
vn -0.528089 0.580919 -0.619399
vn 0.171201 -0.074501 0.982415
vn 0.178807 0.104651 0.978303
vn 0.877326 -0.228268 -0.422130
vn 0.731607 0.033730 -0.680892
vn 0.919648 -0.033742 -0.391292
vn 0.244156 0.268057 0.931951
vn 0.341162 0.588085 0.733324
vn 0.237654 0.611410 0.754784
vn -0.755295 -0.537585 -0.374876
vn -0.438176 -0.571323 -0.693968
vn 0.086708 0.885116 -0.457221
vn 0.141853 0.797033 -0.587040
vn 0.213715 0.741541 -0.635958
vn 0.079825 0.115302 -0.990118
vn 0.038078 0.520622 -0.852938
vn -0.284337 0.696771 -0.658531
vn 0.426597 0.144265 0.892862
vn 0.024672 0.295605 0.954992
vn 0.295970 -0.163409 0.941116
vn 0.342381 -0.307435 0.887840
vn 0.445589 -0.001449 0.895236
vn 0.530883 -0.080958 0.843569
vn 0.380407 0.085079 0.920897
vn 0.259135 -0.034794 -0.965214
vn -0.613642 -0.789345 0.019430
vn -0.279748 -0.956149 0.086713
vn 0.215670 -0.248769 0.944246
vn 0.670451 -0.041111 -0.740814
vn 0.161114 0.582739 0.796528
vn 0.145605 0.900829 0.409031
vn 0.162852 0.453343 0.876333
vn 0.043674 0.631198 0.774391
vn -0.981098 -0.193264 0.009821
vn -0.842688 -0.506177 -0.183474
vn -0.926436 -0.354659 -0.126224
vn -0.585754 0.762641 0.274357
vn -0.484092 0.855003 0.186080
vn -0.533943 -0.829224 -0.165202
vn 0.590153 -0.759697 -0.273094
vn -0.862635 0.462795 -0.204160
vn 0.738467 -0.374230 -0.560909
vn 0.134805 0.448514 0.883551
s 1
f 1/1/1 2/2/2 3/3/3
f 4/4/4 5/5/5 6/6/6
f 7/7/7 8/8/8 9/9/9
f 10/10/10 11/11/11 12/12/12
f 13/13/13 6/6/6 5/14/5
f 14/15/14 15/16/15 16/17/16
f 17/18/17 18/19/18 19/20/19
f 20/21/20 21/22/21 22/23/22
f 23/24/23 24/25/24 25/26/25
f 26/27/26 17/18/17 27/28/27
f 28/29/28 29/30/29 30/31/30
f 31/32/31 32/33/32 33/34/33
f 10/10/10 30/31/30 34/35/34
f 35/36/35 36/37/36 37/38/37
f 15/16/15 14/15/14 24/39/24
f 38/40/38 39/41/39 23/24/23
f 19/20/19 40/42/40 17/18/17
f 36/37/36 41/43/41 37/38/37
f 42/44/42 3/3/3 2/2/2
f 43/45/43 44/46/44 45/47/45
f 46/48/46 47/49/47 48/50/48
f 49/51/49 1/1/1 48/50/48
f 2/2/2 50/52/50 51/53/51
f 52/54/52 53/55/53 54/56/54
f 55/57/55 54/56/54 56/58/56
f 57/59/57 58/60/58 59/61/59
f 60/62/60 61/63/61 62/64/62
f 44/46/44 63/65/63 16/17/16
f 64/66/64 23/67/23 65/68/65
f 15/16/15 24/39/24 23/67/23
f 57/59/57 59/61/59 66/69/66
f 67/70/67 26/27/26 27/28/27
f 59/61/59 68/71/68 66/69/66
f 69/72/69 70/73/70 71/74/71
f 72/75/72 10/10/10 73/76/73
f 10/10/10 12/12/12 73/76/73
f 74/77/74 75/78/75 20/21/20
f 11/11/11 10/10/10 34/35/34
f 76/79/76 44/46/44 17/18/17
f 45/47/45 44/46/44 77/80/77
f 74/77/74 78/81/78 79/82/79
f 78/81/78 22/23/22 21/22/21
f 80/83/80 81/84/81 82/85/82
f 81/84/81 80/83/80 32/33/32
f 83/86/83 50/52/50 2/2/2
f 84/87/84 85/88/85 86/89/86
f 48/50/48 31/32/31 33/34/33
f 33/34/33 82/85/82 48/50/48
f 45/47/45 77/80/77 87/90/87
f 59/61/59 67/70/67 68/71/68
f 6/6/6 88/91/88 89/92/89
f 90/93/90 50/52/50 83/86/83
f 58/60/58 91/94/91 59/61/59
f 91/94/91 87/90/87 59/61/59
f 39/41/39 92/95/92 93/96/93
f 69/72/69 64/66/64 65/68/65
f 25/26/25 24/25/24 5/5/5
f 13/13/13 5/14/5 28/29/28
f 81/84/81 32/33/32 94/97/94
f 81/84/81 94/97/94 95/98/95
f 30/31/30 96/99/96 28/29/28
f 10/10/10 72/75/72 30/31/30
f 88/91/88 55/57/55 89/92/89
f 30/31/30 97/100/97 98/101/98
f 17/18/17 44/46/44 16/17/16
f 16/17/16 99/102/99 100/103/100
f 4/4/4 6/6/6 36/37/36
f 35/36/35 92/95/92 36/37/36
f 72/75/72 73/76/73 52/54/52
f 97/100/97 52/54/52 101/104/101
f 42/44/42 102/105/102 3/3/3
f 3/3/3 57/59/57 66/69/66
f 29/30/29 24/106/24 14/107/14
f 78/81/78 34/35/34 79/82/79
f 79/82/79 34/35/34 103/108/103
f 75/78/75 43/45/43 20/21/20
f 50/52/50 7/7/7 51/53/51
f 7/7/7 9/9/9 42/44/42
f 84/87/84 83/86/83 85/88/85
f 90/93/90 83/86/83 84/87/84
f 67/70/67 27/28/27 68/71/68
f 32/33/32 47/49/47 40/42/40
f 43/45/43 79/82/79 103/108/103
f 16/17/16 43/45/43 14/15/14
f 21/22/21 12/12/12 78/81/78
f 62/64/62 61/63/61 58/60/58
f 35/36/35 86/89/86 95/98/95
f 35/36/35 84/87/84 86/89/86
f 81/84/81 95/98/95 86/89/86
f 81/84/81 86/89/86 82/85/82
f 5/14/5 24/106/24 28/29/28
f 24/106/24 29/30/29 28/29/28
f 6/6/6 41/43/41 36/37/36
f 50/52/50 90/93/90 6/6/6
f 94/97/94 32/33/32 70/73/70
f 32/33/32 40/42/40 19/20/19
f 12/12/12 11/11/11 78/81/78
f 78/81/78 11/11/11 34/35/34
f 62/64/62 104/109/104 8/8/8
f 104/109/104 57/59/57 3/3/3
f 70/73/70 18/19/18 71/74/71
f 18/19/18 100/103/100 99/102/99
f 71/74/71 18/19/18 99/102/99
f 15/16/15 23/67/23 64/66/64
f 99/102/99 16/17/16 15/16/15
f 105/110/105 99/102/99 15/16/15
f 20/21/20 22/23/22 74/77/74
f 74/77/74 22/23/22 78/81/78
f 95/98/95 39/41/39 93/96/93
f 65/68/65 95/98/95 69/72/69
f 62/64/62 58/60/58 57/59/57
f 62/64/62 57/59/57 104/109/104
f 25/26/25 5/5/5 4/4/4
f 38/40/38 92/95/92 39/41/39
f 48/50/48 85/88/85 49/51/49
f 85/88/85 83/86/83 2/2/2
f 50/52/50 6/6/6 89/92/89
f 50/52/50 56/58/56 7/7/7
f 37/38/37 90/93/90 84/87/84
f 37/38/37 84/87/84 35/36/35
f 55/57/55 56/58/56 89/92/89
f 89/92/89 56/58/56 50/52/50
f 77/80/77 44/46/44 76/79/76
f 26/27/26 76/79/76 17/18/17
f 105/110/105 71/74/71 99/102/99
f 71/74/71 105/110/105 69/72/69
f 76/79/76 26/27/26 77/80/77
f 67/70/67 77/80/77 26/27/26
f 30/31/30 88/91/88 96/99/96
f 96/99/96 13/13/13 28/29/28
f 88/91/88 13/13/13 96/99/96
f 6/6/6 13/13/13 88/91/88
f 51/53/51 42/44/42 2/2/2
f 7/7/7 42/44/42 51/53/51
f 95/98/95 65/68/65 39/41/39
f 65/68/65 23/24/23 39/41/39
f 74/77/74 79/82/79 75/78/75
f 79/82/79 43/45/43 75/78/75
f 68/71/68 47/49/47 66/69/66
f 68/71/68 27/28/27 47/49/47
f 4/4/4 92/95/92 38/40/38
f 4/4/4 36/37/36 92/95/92
f 52/54/52 73/76/73 53/55/53
f 60/62/60 73/76/73 12/12/12
f 92/95/92 35/36/35 93/96/93
f 93/96/93 35/36/35 95/98/95
f 94/97/94 70/73/70 69/72/69
f 69/72/69 95/98/95 94/97/94
f 56/58/56 54/56/54 7/7/7
f 54/56/54 8/8/8 7/7/7
f 43/45/43 45/47/45 20/21/20
f 20/21/20 45/47/45 87/90/87
f 80/83/80 33/34/33 32/33/32
f 33/34/33 80/83/80 82/85/82
f 49/51/49 2/2/2 1/1/1
f 85/88/85 2/2/2 49/51/49
f 103/108/103 34/35/34 29/30/29
f 34/35/34 30/31/30 29/30/29
f 12/12/12 21/22/21 61/63/61
f 12/12/12 61/63/61 60/62/60
f 37/38/37 41/43/41 90/93/90
f 41/43/41 6/6/6 90/93/90
f 98/101/98 88/91/88 30/31/30
f 88/91/88 101/104/101 55/57/55
f 38/40/38 23/24/23 25/26/25
f 4/4/4 38/40/38 25/26/25
f 103/108/103 29/30/29 14/107/14
f 103/111/103 14/15/14 43/45/43
f 40/42/40 47/49/47 27/28/27
f 40/42/40 27/28/27 17/18/17
f 8/8/8 104/109/104 9/9/9
f 104/109/104 3/3/3 102/105/102
f 82/85/82 85/88/85 48/50/48
f 85/88/85 82/85/82 86/89/86
f 100/103/100 17/18/17 16/17/16
f 17/18/17 100/103/100 18/19/18
f 32/33/32 19/20/19 70/73/70
f 18/19/18 70/73/70 19/20/19
f 101/104/101 88/91/88 98/101/98
f 98/101/98 97/100/97 101/104/101
f 54/56/54 55/57/55 52/54/52
f 101/104/101 52/54/52 55/57/55
f 87/90/87 67/70/67 59/61/59
f 67/70/67 87/90/87 77/80/77
f 97/100/97 72/75/72 52/54/52
f 72/75/72 97/100/97 30/31/30
f 60/62/60 62/64/62 8/8/8
f 54/56/54 53/55/53 8/8/8
f 42/44/42 9/9/9 102/105/102
f 9/9/9 104/109/104 102/105/102
f 20/21/20 58/60/58 21/22/21
f 21/22/21 58/60/58 61/63/61
f 60/62/60 8/8/8 53/55/53
f 53/55/53 73/76/73 60/62/60
f 105/110/105 15/16/15 64/66/64
f 64/66/64 69/72/69 105/110/105
f 47/49/47 31/32/31 48/50/48
f 31/32/31 47/49/47 32/33/32
f 1/1/1 46/48/46 48/50/48
f 66/69/66 47/49/47 46/48/46
f 3/3/3 66/69/66 1/1/1
f 1/1/1 66/69/66 46/48/46
f 91/94/91 20/21/20 87/90/87
f 58/60/58 20/21/20 91/94/91
f 44/46/44 43/45/43 63/65/63
f 63/65/63 43/45/43 16/17/16
