# This file uses inches as units for non-parametric coordinates.

v -1.219389 14.988339 -7.397783
v 6.080394 17.817538 -6.500342
v -2.388166 5.434766 -9.434917
v 3.656885 9.535788 -8.222716
v 2.915616 5.163249 -6.865447
v 8.865557 2.064674 0.226471
v 3.351102 -0.270687 0.320050
v -14.707075 10.045818 -4.726325
v -14.844690 3.666341 4.312907
v -16.361899 12.570125 0.628754
v -17.046522 8.488462 10.621314
v -17.520663 12.004938 10.284622
v 4.576109 22.886260 0.618110
v 12.069657 20.275196 9.269579
v 10.546319 19.215829 -2.483327
v -12.313677 21.185115 13.106507
v -13.948385 17.665899 4.044590
v 14.298383 17.796610 2.104387
v 6.086198 27.157281 3.244522
v 13.071041 24.231214 11.400342
v -1.209502 33.109181 13.667228
v 1.907382 35.105258 7.039631
v -2.447749 32.319474 7.669602
v -5.596133 19.035241 21.031380
v -14.306090 11.470385 17.519599
v -9.792704 10.021839 21.878232
v -0.491216 27.715217 -2.839040
v 3.756917 31.101194 1.721148
v 1.612495 24.117798 -2.121106
v 4.842183 -1.243690 3.439990
v -2.775127 -0.363860 12.274169
v -2.284691 -0.078410 4.322082
v -4.099077 1.977895 -6.285109
v -15.013218 14.139139 -2.736404
v -11.106298 19.675297 -4.890068
v -11.390685 13.461681 -6.919028
v -5.169769 25.585049 17.655704
v -3.628442 31.413728 13.942927
v -8.208170 27.244150 13.032557
v 11.692835 31.429036 10.433007
v 3.354788 20.877363 -5.605145
v -5.096973 19.353412 -5.915453
v -1.178651 22.253586 -4.129972
v 2.299985 13.182543 21.906343
v 3.034521 22.010301 21.036539
v -2.960329 18.230320 23.226164
v -3.125415 5.791975 20.449974
v -0.245592 9.474921 22.594774
v -5.432633 11.053863 23.471680
v -16.185934 5.952023 12.964056
v -15.183342 7.040488 17.643276
v -16.457325 9.652305 16.194974
v -3.100035 30.503858 -0.923082
v -5.522229 29.356373 1.028152
v -8.596564 25.205925 0.961665
v -6.333274 26.971975 -2.734700
v 14.122329 10.557699 14.380584
v 16.245255 9.136696 10.897937
v 16.927040 14.724046 11.392072
v 7.006324 8.781415 19.886774
v 14.227751 7.117114 12.836391
v 9.911896 0.130857 4.088536
v 3.939974 0.318700 9.913154
v 6.909843 3.517158 15.231659
v 11.415965 3.289312 11.953821
v -7.318769 0.581961 11.630139
v -12.686857 2.646688 5.752291
v 17.278968 13.881610 10.372144
v 15.183242 9.767591 4.956289
v 8.263381 33.538614 9.193354
v 4.055166 30.247032 17.272930
v 9.029137 28.839355 15.747623
v 4.429364 27.003929 19.532223
v 0.948907 27.648424 20.074094
v -0.643071 24.147499 21.796663
v -11.756790 7.326592 20.486115
v 7.976534 23.130667 18.947438
v 7.830429 14.668852 19.828025
v 10.510052 16.335123 18.373973
v 12.580137 28.879921 11.829072
v 13.812841 22.624360 13.377145
v -12.573396 3.919850 17.981906
v -14.194756 2.834008 12.536863
v 7.751991 10.511049 -5.378944
v 9.628672 15.725390 -3.660932
v 13.776412 5.702065 0.807350
v 14.368412 14.035790 1.535541
v 1.933862 4.926732 18.313844
v 12.778029 1.792341 6.878772
v 13.832931 1.940925 4.437607
v 0.000004 0.000001 -0.000000
v -8.450774 5.281725 -9.177081
v -10.520598 7.610682 -8.456218
v -6.666609 10.657060 -8.345479
v 15.615645 18.485033 11.911727
v 13.060442 14.492005 15.609269
v -11.167377 3.750114 -5.762940
v 16.812876 16.870284 7.950501
v -10.883558 1.758039 16.389265
v -4.280737 2.532186 17.857851
v -4.633080 0.553652 15.275618
v 0.213750 1.431661 15.669127
v 3.406791 35.521109 7.941758
v -0.256786 30.525750 17.585090
v -6.907807 28.774251 6.647073
v -9.467841 25.318183 8.082122
v 14.486001 19.908555 12.658385
v 1.898279 33.809843 1.225107
v -6.301261 1.813169 -2.509887
v -4.055852 14.046881 23.739948
v 10.011793 12.196368 18.545250
v 14.096390 2.468407 6.156205
v 7.776262 35.055638 6.163924
v 4.734283 35.966571 5.163968
v -13.506014 4.715091 -3.404922
v -17.000720 12.776336 13.617054
v -14.257602 7.729339 19.285248
v -7.652996 3.406964 -7.943448
v -5.303202 4.276925 -9.175324
v 7.792134 20.273272 -4.220802
v -15.510927 4.177136 8.386423
v 5.351734 35.344032 4.110743
v 5.321704 6.586613 -6.975555
v 12.129060 4.608029 -0.763287
v 13.995971 18.903493 11.923471
v 9.243189 31.169979 7.246757
vt 0.784900 0.441721
vt 0.745970 0.454989
vt 0.776568 0.395806
vt 0.750874 0.411307
vt 0.749632 0.385295
vt 0.716621 0.340704
vt 0.743661 0.335882
vt 0.840393 0.381229
vt 0.834757 0.335703
vt 0.865482 0.369314
vt 0.870891 0.324861
vt 0.887601 0.336353
vt 0.750424 0.512126
vt 0.629278 0.438969
vt 0.700387 0.442912
vt 0.943591 0.347019
vt 0.897642 0.379210
vt 0.658002 0.411159
vt 0.754586 0.536925
vt 0.642742 0.487885
vt 0.964431 0.476321
vt 0.898497 0.512166
vt 0.922552 0.477538
vt 0.901830 0.240629
vt 0.888472 0.290512
vt 0.858957 0.255083
vt 0.826043 0.486780
vt 0.817504 0.521852
vt 0.790164 0.492369
vt 0.736046 0.319110
vt 0.776091 0.280298
vt 0.770230 0.318637
vt 0.780653 0.371479
vt 0.859422 0.384390
vt 0.861467 0.418181
vt 0.836851 0.402685
vt 0.988848 0.303176
vt 0.974334 0.445131
vt 0.959913 0.388497
vt 0.710685 0.584593
vt 0.762115 0.475898
vt 0.829400 0.445361
vt 0.801518 0.470438
vt 0.777562 0.207789
vt 0.804080 0.171043
vt 0.864864 0.210302
vt 0.802201 0.245350
vt 0.791964 0.226517
vt 0.844584 0.238251
vt 0.859457 0.309822
vt 0.863281 0.290683
vt 0.880284 0.301606
vt 0.860472 0.476791
vt 0.887190 0.461951
vt 0.892362 0.434774
vt 0.863708 0.453515
vt 0.659589 0.230374
vt 0.656451 0.283977
vt 0.629425 0.293994
vt 0.729165 0.215132
vt 0.669046 0.255361
vt 0.712999 0.317298
vt 0.740911 0.284401
vt 0.725139 0.253318
vt 0.695326 0.270151
vt 0.799665 0.293874
vt 0.824417 0.326625
vt 0.635346 0.299054
vt 0.668441 0.340315
vt 0.897254 0.553378
vt 0.983285 0.515288
vt 0.920791 0.575185
vt 0.968033 0.555900
vt 0.795336 0.145607
vt 0.859799 0.161722
vt 0.880807 0.186957
vt 0.853254 0.269246
vt 0.748616 0.145060
vt 0.729134 0.189617
vt 0.698596 0.185669
vt 0.690192 0.105426
vt 0.739214 0.107615
vt 0.653663 0.161299
vt 0.841801 0.282125
vt 0.839548 0.304680
vt 0.724886 0.407955
vt 0.708571 0.428125
vt 0.691070 0.357428
vt 0.667402 0.390091
vt 0.761043 0.239223
vt 0.696921 0.304005
vt 0.695480 0.318289
vt 0.759521 0.338201
vt 0.800227 0.389598
vt 0.813813 0.392851
vt 0.805896 0.415013
vt 0.610026 0.305789
vt 0.650404 0.192951
vt 0.810105 0.372238
vt 0.632805 0.331473
vt 0.825648 0.284850
vt 0.796372 0.261411
vt 0.790897 0.273437
vt 0.763303 0.255711
vt 0.900897 0.520636
vt 0.999999 0.461414
vt 0.925694 0.443370
vt 0.928244 0.408006
vt 0.625799 0.184376
vt 0.892926 0.150440
vt 0.853472 0.508387
vt 0.788962 0.353909
vt 0.848113 0.224500
vt 0.702220 0.204426
vt 0.786235 0.126195
vt 0.690954 0.307719
vt 0.838304 0.547494
vt 0.860826 0.528454
vt 0.822787 0.366098
vt 0.896207 0.325236
vt 0.863635 0.282286
vt 0.795417 0.380702
vt 0.787220 0.388151
vt 0.731452 0.463500
vt 0.844229 0.322855
vt 0.845692 0.531387
vt 0.740265 0.392120
vt 0.704491 0.358050
vt 0.619230 0.222263
vt 0.940243 0.584593
vt 0.676000 0.553792
vt 0.754950 0.562437
vt 0.598123 0.420202
vt 0.609360 0.380193
vn 0.000282 0.248818 -0.968550
vn 0.291987 0.182558 -0.938838
vn 0.107745 -0.024289 -0.993882
vn 0.364976 0.014734 -0.930900
vn 0.317276 -0.725419 -0.610822
vn 0.354363 -0.750411 -0.557952
vn 0.279605 -0.795794 -0.537152
vn -0.894445 -0.128462 -0.428330
vn -0.875873 -0.452152 -0.168539
vn -0.987074 0.018457 -0.159201
vn -0.973921 -0.213797 -0.075955
vn -0.941838 0.334800 -0.029151
vn 0.644944 0.572659 -0.506072
vn 0.634018 0.712372 -0.300911
vn 0.628240 0.680990 -0.376253
vn -0.814977 0.504680 0.284801
vn -0.851215 0.516367 -0.093799
vn 0.697801 0.661371 -0.275069
vn 0.756923 0.094490 -0.646637
vn 0.786076 0.102502 -0.609572
vn -0.204454 0.920124 0.334021
vn -0.492268 0.864268 -0.103505
vn -0.580801 0.812969 -0.041845
vn -0.578073 0.373608 0.725430
vn -0.637377 0.387601 0.665970
vn -0.533403 0.251067 0.807742
vn 0.265256 0.350736 -0.898122
vn 0.685768 0.154994 -0.711125
vn 0.644481 0.137856 -0.752091
vn 0.022925 -0.999727 -0.004484
vn -0.035042 -0.991199 0.127662
vn -0.225933 -0.969988 -0.089877
vn 0.055692 -0.889852 -0.452838
vn -0.844636 0.389675 -0.367074
vn -0.685857 0.508788 -0.520322
vn -0.388488 0.262540 -0.883261
vn -0.604477 0.450368 0.657097
vn -0.629856 0.715967 0.301118
vn -0.746785 0.606707 0.272430
vn 0.837089 0.534034 -0.118704
vn 0.090075 0.626957 -0.773829
vn -0.064499 0.336524 -0.939463
vn 0.287515 0.534932 -0.794470
vn 0.319721 0.020482 0.947290
vn 0.325963 0.104458 0.939594
vn -0.052770 0.195428 0.979297
vn -0.003919 -0.577176 0.816610
vn 0.215195 -0.369207 0.904089
vn -0.085600 -0.387600 0.917845
vn -0.906157 -0.391704 0.159522
vn -0.804973 -0.469807 0.362353
vn -0.941794 -0.033457 0.334521
vn -0.380026 0.791156 -0.479220
vn -0.639445 0.754329 -0.148654
vn -0.817565 0.557296 -0.144944
vn -0.394121 0.541962 -0.742257
vn 0.711452 -0.179101 0.679529
vn 0.968581 -0.241229 0.060495
vn 0.840795 0.053691 0.538685
vn 0.444329 -0.404870 0.799157
vn 0.669648 -0.476985 0.569260
vn 0.317965 -0.945951 -0.063828
vn 0.235731 -0.923223 0.303463
vn 0.324858 -0.678387 0.658982
vn 0.422948 -0.763546 0.487968
vn -0.265979 -0.963106 -0.041020
vn -0.293974 -0.950584 -0.099849
vn 0.977702 -0.133531 -0.162075
vn 0.957880 -0.113878 -0.263624
vn 0.278807 0.843763 0.458618
vn 0.239988 0.794724 0.557512
vn 0.582665 0.432306 0.688196
vn 0.363435 0.354689 0.861459
vn 0.074358 0.556468 0.827535
vn -0.244491 0.395176 0.885472
vn -0.172265 -0.492771 0.852937
vn 0.545029 0.199536 0.814327
vn 0.384524 0.037791 0.922341
vn 0.658204 0.109021 0.744904
vn 0.864902 0.340526 0.368762
vn 0.735563 0.208376 0.644613
vn -0.323963 -0.630970 0.704929
vn -0.547180 -0.831520 0.095755
vn 0.650882 -0.027863 -0.758667
vn 0.707557 0.011807 -0.706558
vn 0.863270 -0.084248 -0.497661
vn 0.858137 0.004524 -0.513401
vn 0.228837 -0.635380 0.737514
vn 0.310426 -0.902665 0.298047
vn 0.789527 -0.528131 -0.312608
vn -0.182454 -0.970606 -0.156953
vn -0.238322 -0.094978 -0.966531
vn -0.555373 -0.062769 -0.829229
vn -0.071245 0.235394 -0.969285
vn 0.686371 0.700922 0.193915
vn 0.752918 0.069013 0.654486
vn -0.409960 -0.869076 -0.276839
vn 0.957137 0.154235 -0.245156
vn -0.249184 -0.913456 0.321723
vn 0.035336 -0.682492 0.730038
vn 0.003835 -0.887273 0.461229
vn 0.228317 -0.844413 0.484602
vn 0.132970 0.901175 0.412555
vn -0.341623 0.636406 0.691578
vn -0.718595 0.693983 -0.044819
vn -0.833011 0.549303 -0.066022
vn 0.981255 0.064485 -0.181603
vn -0.138875 0.801537 -0.581594
vn -0.258177 -0.956654 -0.134750
vn 0.032827 0.042758 0.998546
vn 0.620842 -0.108306 0.776418
vn 0.766134 -0.558587 0.317835
vn 0.722024 0.570901 -0.390836
vn -0.124003 0.983710 -0.130145
vn -0.824796 -0.397525 -0.402100
vn -0.825117 0.402600 0.396353
vn -0.643469 0.005651 0.765451
vn -0.245585 -0.801170 -0.545723
vn 0.027507 -0.637643 -0.769841
vn 0.389457 0.787172 -0.478209
vn -0.890292 -0.455042 -0.017803
vn 0.558523 0.360174 -0.747212
vn 0.509468 -0.285822 -0.811633
vn 0.555495 -0.479965 -0.679013
vn 0.817020 0.483828 0.313670
vn 0.734452 0.091406 -0.672477
s 1
f 1/1/1 2/2/2 3/3/3
f 2/2/2 4/4/4 3/3/3
f 5/5/5 6/6/6 7/7/7
f 8/8/8 9/9/9 10/10/10
f 11/11/11 12/12/12 10/10/10
f 13/13/13 14/14/14 15/15/15
f 12/12/12 16/16/16 17/17/17
f 18/18/18 15/15/15 14/14/14
f 19/19/19 20/20/20 13/13/13
f 21/21/21 22/22/22 23/23/23
f 24/24/24 25/25/25 26/26/26
f 27/27/27 28/28/28 29/29/29
f 30/30/30 31/31/31 32/32/32
f 33/33/33 5/5/5 7/7/7
f 34/34/34 35/35/35 36/36/36
f 25/25/25 37/37/37 16/16/16
f 37/37/37 38/38/38 39/39/39
f 19/19/19 40/40/40 20/20/20
f 41/41/41 42/42/42 43/43/43
f 44/44/44 45/45/45 46/46/46
f 24/24/24 26/26/26 46/46/46
f 47/47/47 48/48/48 49/49/49
f 50/50/50 51/51/51 52/52/52
f 53/53/53 54/54/54 22/22/22
f 35/35/35 55/55/55 56/56/56
f 57/57/57 58/58/58 59/59/59
f 57/57/57 60/60/60 61/61/61
f 62/62/62 63/63/63 30/30/30
f 7/7/7 6/6/6 62/62/62
f 60/60/60 64/64/64 65/65/65
f 32/32/32 66/66/66 67/67/67
f 68/68/68 58/58/58 69/69/69
f 70/70/70 71/71/71 40/72/40
f 43/43/43 42/42/42 27/27/27
f 72/73/72 40/72/40 71/71/71
f 73/74/73 74/75/74 75/76/75
f 49/49/49 76/77/76 47/47/47
f 77/78/77 45/45/45 78/79/78
f 77/78/77 78/79/78 79/80/79
f 80/81/80 72/82/72 81/83/81
f 82/84/82 51/51/51 83/85/83
f 84/86/84 85/87/85 86/88/86
f 55/55/55 35/35/35 17/17/17
f 87/89/87 86/88/86 85/87/85
f 47/47/47 88/90/88 48/48/48
f 63/63/63 31/31/31 30/30/30
f 65/65/65 63/63/63 89/91/89
f 58/58/58 90/92/90 86/88/86
f 30/30/30 91/93/91 33/33/33
f 92/94/92 93/95/93 94/96/94
f 81/83/81 77/78/77 79/80/79
f 95/97/95 96/98/96 59/59/59
f 8/8/8 34/34/34 36/36/36
f 97/99/97 93/95/93 92/94/92
f 87/89/87 98/100/98 69/69/69
f 18/18/18 95/97/95 98/100/98
f 47/47/47 76/77/76 82/84/82
f 66/66/66 99/101/99 83/85/83
f 100/102/100 101/103/101 102/104/102
f 101/103/101 100/102/100 99/101/99
f 42/42/42 35/35/35 56/56/56
f 36/36/36 35/35/35 42/42/42
f 71/71/71 103/105/103 21/21/21
f 37/37/37 104/106/104 38/38/38
f 38/38/38 105/107/105 39/39/39
f 16/16/16 106/108/106 17/17/17
f 107/109/107 80/81/80 81/83/81
f 81/83/81 96/98/96 107/109/107
f 75/76/75 24/24/24 46/46/46
f 104/110/104 37/37/37 75/76/75
f 42/42/42 56/56/56 27/27/27
f 108/111/108 27/27/27 53/53/53
f 29/29/29 28/28/28 13/13/13
f 13/13/13 41/41/41 43/43/43
f 109/112/109 97/99/97 33/33/33
f 97/99/97 109/112/109 67/67/67
f 60/60/60 48/48/48 88/90/88
f 48/48/48 44/44/44 110/113/110
f 103/105/103 71/71/71 70/70/70
f 28/28/28 19/19/19 13/13/13
f 60/60/60 111/114/111 78/79/78
f 60/60/60 44/44/44 48/48/48
f 104/106/104 71/71/71 21/21/21
f 71/115/71 74/75/74 73/74/73
f 112/116/112 58/58/58 61/61/61
f 57/57/57 61/61/61 58/58/58
f 22/22/22 108/111/108 53/53/53
f 103/105/103 113/117/113 114/118/114
f 8/8/8 115/119/115 9/9/9
f 115/119/115 8/8/8 93/95/93
f 12/12/12 11/11/11 52/52/52
f 116/120/116 16/16/16 12/12/12
f 110/113/110 49/49/49 48/48/48
f 26/26/26 49/49/49 110/113/110
f 76/77/76 117/121/117 82/84/82
f 117/121/117 26/26/26 25/25/25
f 5/5/5 33/33/33 3/3/3
f 33/33/33 97/99/97 118/122/118
f 95/97/95 59/59/59 98/100/98
f 68/68/68 69/69/69 98/100/98
f 94/96/94 3/3/3 92/94/92
f 119/123/119 3/3/3 33/33/33
f 112/116/112 61/61/61 65/65/65
f 65/65/65 61/61/61 60/60/60
f 2/2/2 85/87/85 84/86/84
f 13/13/13 120/124/120 41/41/41
f 71/115/71 73/74/73 72/82/72
f 72/82/72 77/78/77 81/83/81
f 51/51/51 50/50/50 83/85/83
f 11/11/11 10/10/10 9/9/9
f 121/125/121 83/85/83 50/50/50
f 66/66/66 83/85/83 67/67/67
f 41/41/41 1/1/1 42/42/42
f 36/36/36 42/42/42 94/96/94
f 34/34/34 17/17/17 35/35/35
f 12/12/12 17/17/17 10/10/10
f 1/1/1 41/41/41 2/2/2
f 41/41/41 120/124/120 2/2/2
f 77/78/77 73/74/73 45/45/45
f 72/82/72 73/74/73 77/78/77
f 108/111/108 122/126/122 27/27/27
f 22/22/22 114/118/114 108/111/108
f 93/95/93 36/36/36 94/96/94
f 93/95/93 8/8/8 36/36/36
f 60/60/60 57/57/57 111/114/111
f 96/98/96 81/83/81 79/80/79
f 33/33/33 7/7/7 30/30/30
f 62/62/62 30/30/30 7/7/7
f 123/127/123 3/3/3 4/4/4
f 84/86/84 4/4/4 2/2/2
f 4/4/4 84/86/84 123/127/123
f 84/86/84 124/128/124 123/127/123
f 16/16/16 39/39/39 106/108/106
f 37/37/37 39/39/39 16/16/16
f 31/31/31 63/63/63 102/104/102
f 65/65/65 102/104/102 63/63/63
f 96/98/96 95/97/95 125/129/125
f 95/97/95 18/18/18 14/14/14
f 97/99/97 9/9/9 115/119/115
f 97/99/97 115/119/115 93/95/93
f 24/24/24 75/76/75 37/37/37
f 25/25/25 24/24/24 37/37/37
f 86/88/86 90/92/90 124/128/124
f 86/88/86 124/128/124 84/86/84
f 54/54/54 53/53/53 56/56/56
f 27/27/27 56/56/56 53/53/53
f 59/59/59 96/98/96 57/57/57
f 96/98/96 111/114/111 57/57/57
f 27/27/27 29/29/29 43/43/43
f 29/29/29 13/13/13 43/43/43
f 17/17/17 106/108/106 55/55/55
f 38/38/38 23/23/23 105/107/105
f 23/23/23 22/22/22 54/54/54
f 23/23/23 54/54/54 105/107/105
f 99/101/99 66/66/66 31/31/31
f 31/31/31 66/66/66 32/32/32
f 34/34/34 10/10/10 17/17/17
f 10/10/10 34/34/34 8/8/8
f 13/13/13 20/20/20 14/14/14
f 107/109/107 96/98/96 125/129/125
f 99/101/99 100/102/100 82/84/82
f 99/101/99 82/84/82 83/85/83
f 96/98/96 79/80/79 111/114/111
f 111/114/111 79/80/79 78/79/78
f 11/11/11 50/50/50 52/52/52
f 121/125/121 50/50/50 11/11/11
f 31/31/31 101/103/101 99/101/99
f 102/104/102 101/103/101 31/31/31
f 120/124/120 13/13/13 15/15/15
f 120/124/120 15/15/15 2/2/2
f 104/110/104 74/75/74 71/115/71
f 104/110/104 75/76/75 74/75/74
f 15/15/15 18/18/18 87/89/87
f 87/89/87 18/18/18 98/100/98
f 118/122/118 97/99/97 92/94/92
f 119/123/119 92/94/92 3/3/3
f 45/45/45 75/76/75 46/46/46
f 75/76/75 45/45/45 73/74/73
f 124/128/124 90/92/90 6/6/6
f 124/128/124 6/6/6 5/5/5
f 104/106/104 21/21/21 38/38/38
f 21/21/21 23/23/23 38/38/38
f 86/88/86 87/89/87 69/69/69
f 86/88/86 69/69/69 58/58/58
f 6/6/6 90/92/90 62/62/62
f 62/62/62 89/91/89 63/63/63
f 47/47/47 82/84/82 100/102/100
f 47/47/47 100/102/100 88/90/88
f 80/130/80 40/72/40 72/73/72
f 20/20/20 40/40/40 80/131/80
f 113/117/113 126/132/126 28/28/28
f 40/40/40 126/132/126 113/117/113
f 49/49/49 26/26/26 76/77/76
f 76/77/76 26/26/26 117/121/117
f 55/55/55 54/54/54 56/56/56
f 105/107/105 54/54/54 55/55/55
f 114/118/114 122/126/122 108/111/108
f 122/126/122 114/118/114 113/117/113
f 22/22/22 103/105/103 114/118/114
f 22/22/22 21/21/21 103/105/103
f 83/85/83 9/9/9 67/67/67
f 67/67/67 9/9/9 97/99/97
f 110/113/110 46/46/46 26/26/26
f 46/46/46 110/113/110 44/44/44
f 32/32/32 67/67/67 109/112/109
f 30/30/30 32/32/32 91/93/91
f 44/44/44 60/60/60 78/79/78
f 44/44/44 78/79/78 45/45/45
f 80/131/80 107/133/107 20/20/20
f 20/20/20 107/133/107 14/14/14
f 118/122/118 92/94/92 119/123/119
f 33/33/33 118/122/118 119/123/119
f 28/28/28 122/126/122 113/117/113
f 27/27/27 122/126/122 28/28/28
f 40/72/40 113/117/113 70/70/70
f 103/105/103 70/70/70 113/117/113
f 42/42/42 1/1/1 94/96/94
f 3/3/3 94/96/94 1/1/1
f 124/128/124 5/5/5 123/127/123
f 123/127/123 5/5/5 3/3/3
f 95/97/95 14/14/14 125/134/125
f 107/133/107 125/134/125 14/14/14
f 28/28/28 126/132/126 19/19/19
f 40/40/40 19/19/19 126/132/126
f 32/32/32 109/112/109 91/93/91
f 91/93/91 109/112/109 33/33/33
f 52/52/52 116/120/116 12/12/12
f 116/120/116 25/25/25 16/16/16
f 52/52/52 25/25/25 116/120/116
f 52/52/52 117/121/117 25/25/25
f 112/116/112 90/92/90 58/58/58
f 89/91/89 62/62/62 90/92/90
f 82/84/82 117/121/117 51/51/51
f 117/121/117 52/52/52 51/51/51
f 121/125/121 11/11/11 9/9/9
f 9/9/9 83/85/83 121/125/121
f 39/39/39 105/107/105 106/108/106
f 105/107/105 55/55/55 106/108/106
f 15/15/15 85/87/85 2/2/2
f 15/15/15 87/89/87 85/87/85
f 60/60/60 88/90/88 64/64/64
f 64/64/64 102/104/102 65/65/65
f 88/90/88 102/104/102 64/64/64
f 100/102/100 102/104/102 88/90/88
f 112/116/112 65/65/65 89/91/89
f 90/92/90 112/116/112 89/91/89
f 59/59/59 68/68/68 98/100/98
f 59/59/59 58/58/58 68/68/68
