# This file uses inches as units for non-parametric coordinates.

v 1.804733 -0.221830 11.467857
v 0.717224 -0.198244 -7.576088
v 19.239105 -0.206964 -8.171463
v 4.557510 11.878669 -2.644310
v 11.982147 0.094304 -9.385216
v 1.358170 0.157574 -8.378090
v 21.011063 0.176248 9.877457
v 5.615875 9.238683 10.357883
v 4.995651 -0.140532 11.099186
v 16.579407 16.232903 -0.718086
v 16.426346 14.019211 7.019958
v 18.989883 7.397201 3.610130
v 18.482605 6.514397 9.432205
v 5.950226 17.246948 10.175758
v 18.948456 8.127830 -4.394226
v 2.159805 11.875312 -2.289154
v 2.527954 9.765161 10.088966
v 13.382553 15.677045 9.398636
v -0.164368 11.233485 -0.628593
v -2.115707 0.657594 -6.433815
v -2.165283 0.834216 7.779881
v 5.235901 18.292191 9.247047
v 5.158798 21.133896 1.200020
v 4.707703 12.201950 9.808914
v 5.451172 21.675709 5.208580
v 7.742386 18.789917 9.648983
v 21.425735 -0.199560 8.761528
v 4.333618 -0.179380 10.762901
v 15.141617 15.737561 7.913837
v 13.714996 19.417049 0.864662
v 7.054977 22.357777 2.163078
v -0.562332 8.444303 10.813087
v 4.613708 8.739644 10.088238
v 0.822495 8.014437 11.582355
v 4.717148 9.662907 8.327454
v 14.020889 10.293612 -4.216209
v 15.436630 17.745937 -0.832970
v -1.922134 0.048633 10.143471
v -1.931931 -0.018152 -5.808052
v -0.812424 0.497601 11.972301
v 22.169525 0.197049 8.553356
v 21.070953 1.918130 -1.210701
v 21.378784 0.004754 -7.183670
v 17.965759 -0.026768 -9.774719
v 19.654633 2.319583 -8.619507
v -1.249329 1.257714 -7.003120
v -0.057114 9.375815 -3.096710
v 18.794464 7.291257 8.838718
v 17.776367 9.633531 -4.634689
v 20.811615 1.546054 -7.972412
v 0.093475 9.946983 9.022408
v 15.753372 17.389503 2.279182
v -5.048599 1.692046 9.700581
v -7.828171 1.258949 10.770031
v -5.190933 1.478662 10.043793
v -5.236206 1.432755 10.032520
v -5.210861 1.395929 10.076149
v -5.235413 1.363095 10.067558
v -5.181992 1.452245 10.078556
v -5.085159 1.064919 10.268185
v -5.204071 1.372482 10.109562
v -5.187454 1.400183 10.126213
v -5.181198 1.357891 10.174519
v -5.211517 1.671105 9.229874
v -5.080963 1.494721 8.764328
v -5.192505 1.683975 9.195686
v -5.892700 1.900167 8.790226
v -5.238480 0.767905 10.506832
v -5.407959 -0.181702 10.472702
v -5.268768 0.725366 10.515961
v -5.272339 0.695065 10.559052
v -5.342224 1.679541 8.506847
v -7.911682 0.070826 5.787369
v -7.929779 -0.132054 10.335922
v -7.646790 1.552038 6.603127
v -4.873245 -0.225048 8.482216
v -6.214600 1.518187 5.590912
v -5.831299 0.290371 5.370087
v -20.224030 0.029696 -4.508003
v -15.406219 -0.077338 -4.408592
v -15.890930 2.015157 -4.443085
v -17.200150 2.673972 -7.593155
v -19.016052 -0.009108 -8.536049
v -14.727386 0.310316 -8.271721
v -14.908585 2.572629 -6.491318
v -18.145859 2.403297 -4.751869
v -18.082932 0.032562 -5.365372
v -9.155136 -0.035515 -7.298943
v -15.294724 -0.066461 4.688789
v -14.082687 1.377390 6.219109
v -11.045883 6.652449 1.489418
v -13.631577 7.468802 1.461845
v -9.109726 -0.076108 4.900314
v -8.273987 8.916533 -8.962997
v -11.531189 11.181004 -2.275314
v -5.583038 10.030900 -3.633133
v -13.579529 10.939067 -3.674873
v -13.988541 9.262824 -8.988068
v -15.702942 5.462190 -3.846992
v -16.003189 2.356463 3.921776
v -14.224625 8.828502 -0.642960
v -12.957382 8.764777 -9.988228
v -12.471039 10.971963 -1.077240
v -4.799881 0.960642 3.015053
v -7.709335 0.099288 -5.238785
v -4.905228 8.900580 -3.340614
v -8.268021 7.497666 -9.408592
v -12.614914 9.692721 -9.700401
v -10.112213 7.928767 -10.065559
v -16.951950 0.377164 1.878464
v -12.523163 -0.009319 5.848564
v -18.154449 0.623494 -4.513588
v -10.895996 0.686088 5.956070
v -1.877197 2.689235 5.711014
v -1.846817 1.523387 8.902405
v -1.245880 1.092030 4.840714
v -5.339478 0.052836 10.508831
v -2.776352 -0.002047 10.715015
v -4.480804 2.769881 9.969078
v -3.541672 0.407100 4.214470
v -5.787674 0.931017 5.064728
v -3.738663 2.668272 4.355797
v -2.289200 -0.044500 4.968864
v -5.290756 -0.055627 5.387199
v -2.716141 2.400590 9.771908
v -5.527069 2.387355 5.626060
v -5.550537 2.425000 8.642941
v -4.430511 3.202929 6.545547
v -6.703766 4.390304 5.896767
v -1.639557 5.455494 3.899162
v -5.942871 5.161846 -0.010521
v -2.584488 3.035733 -2.238548
v -0.454788 3.110201 -0.925697
v -1.870392 0.420046 -2.172798
v -6.648071 3.693571 -0.806046
v -6.452850 0.707106 -0.570198
v -6.176056 -0.115174 8.053661
v 0.000000 0.000000 0.000000
v -0.275726 0.000423 8.334679
v -0.623322 4.992529 6.493599
v -2.707138 4.785790 8.214565
v -0.129456 2.558848 8.308018
v 0.389008 3.125288 2.150635
v 0.534607 0.517162 6.253372
v -6.087585 1.975343 -2.450409
v -5.188858 0.008738 -1.928680
v -6.789719 0.489273 8.359741
v -6.719086 2.410503 8.402508
v -2.123398 4.874287 -0.836349
v 0.407364 3.137176 5.578438
v -5.314194 3.960568 -2.041611
v -0.265488 4.557701 1.493752
vt 0.526836 0.636237
vt 0.578155 0.703785
vt 0.511037 0.770846
vt 0.646257 0.621837
vt 0.595407 0.746701
vt 0.583019 0.704505
vt 0.450178 0.628274
vt 0.536357 0.586953
vt 0.515280 0.635999
vt 0.501070 0.474703
vt 0.498825 0.527611
vt 0.409582 0.606877
vt 0.461125 0.591507
vt 0.556026 0.551148
vt 0.356107 0.619666
vt 0.632076 0.626417
vt 0.559790 0.592529
vt 0.520368 0.537457
vt 0.614162 0.629339
vt 0.581461 0.684691
vt 0.553912 0.640171
vt 0.563894 0.549283
vt 0.606753 0.542256
vt 0.559877 0.572431
vt 0.586866 0.537040
vt 0.554320 0.542540
vt 0.447128 0.635467
vt 0.517543 0.637958
vt 0.516794 0.522083
vt 0.588218 0.497344
vt 0.597048 0.523757
vt 0.558602 0.606522
vt 0.539970 0.590312
vt 0.551814 0.602390
vt 0.565652 0.585519
vt 0.694080 0.629990
vt 0.624420 0.489960
vt 0.545813 0.635713
vt 0.578531 0.685999
vt 0.539790 0.631736
vt 0.442718 0.631859
vt 0.426911 0.681674
vt 0.451871 0.747147
vt 0.596195 0.775668
vt 0.626368 0.767929
vt 0.637351 0.746958
vt 0.583903 0.687217
vt 0.613751 0.642020
vt 0.457435 0.588070
vt 0.727785 0.651527
vt 0.714523 0.637895
vt 0.648072 0.513817
vt 0.643034 0.756076
vt 0.431388 0.734131
vt 0.567984 0.605399
vt 0.644221 0.768347
vt 0.538353 0.489423
vt 0.952545 0.050850
vt 0.955098 0.028520
vt 0.954931 0.049552
vt 0.046528 0.054871
vt 0.046202 0.055095
vt 0.046047 0.054871
vt 0.001310 0.001399
vt 0.001322 0.000952
vt 0.001700 0.000945
vt 0.001578 0.001359
vt 0.955192 0.049717
vt 0.974254 0.057978
vt 0.970359 0.057273
vt 0.967437 0.054704
vt 0.019034 0.054221
vt 0.018811 0.054381
vt 0.018820 0.054060
vt 0.018979 0.053891
vt 0.032320 0.053891
vt 0.032729 0.053891
vt 0.032645 0.054229
vt 0.969823 0.057045
vt 0.025703 0.054263
vt 0.025503 0.054128
vt 0.025862 0.053891
vt 0.969345 0.056847
vt 0.958287 0.050564
vt 0.956211 0.049711
vt 0.978285 0.057676
vt 0.981336 0.055574
vt 0.978640 0.057650
vt 0.006092 0.050949
vt 0.000978 0.051224
vt 0.000945 0.050949
vt 0.982630 0.060993
vt 0.001044 0.001357
vt 0.000945 0.000945
vt 0.955361 0.049761
vt 0.018593 0.054220
vt 0.018665 0.053891
vt 0.039183 0.054871
vt 0.039532 0.054871
vt 0.039434 0.055268
vt 0.955798 0.049691
vt 0.025457 0.053891
vt 0.962788 0.050933
vt 0.965387 0.047180
vt 0.012955 0.049580
vt 0.012955 0.049219
vt 0.013201 0.048988
vt 0.961375 0.049626
vt 0.978475 0.057860
vt 0.952545 0.007843
vt 0.955330 0.006315
vt 0.960964 0.008361
vt 0.960750 0.049742
vt 0.012710 0.048988
vt 0.004651 0.044916
vt 0.000945 0.043105
vt 0.006540 0.043105
vt 0.988807 0.019763
vt 0.963824 0.032691
vt 0.977704 0.015098
vt 0.978350 0.045270
vt 0.981771 0.006524
vt 0.996239 0.033223
vt 0.961129 0.001206
vt 0.987625 0.000068
vt 0.623469 0.000000
vt 0.614388 0.031930
vt 0.607244 0.024910
vt 0.588057 0.014629
vt 0.570807 0.000000
vt 0.589931 0.047938
vt 0.641740 0.048315
vt 0.596822 0.029038
vt 0.606870 0.014235
vt 0.698080 0.907030
vt 0.643378 0.850125
vt 0.678311 0.791271
vt 0.574219 0.970178
vt 0.570948 0.918640
vt 0.593023 0.936889
vt 0.612770 0.793219
vt 0.619493 0.882581
vt 0.601463 0.911497
vt 0.594186 0.881279
vt 0.612476 0.915292
vt 0.635955 0.901639
vt 0.641415 0.925577
vt 0.606127 0.976707
vt 0.605921 0.930896
vt 0.637354 0.894981
vt 0.598421 0.918515
vt 0.555102 0.833506
vt 0.626301 0.839683
vt 0.592338 0.873677
vt 0.623524 0.877444
vt 0.632907 0.896205
vt 0.629170 0.884017
vt 0.607657 0.997453
vt 0.631622 0.967182
vt 0.553599 0.966859
vt 0.686514 0.914396
vt 0.537494 0.937177
vt 0.628241 0.775095
vt 0.646301 0.783870
vt 0.060695 0.000000
vt 0.057539 0.019530
vt 0.038967 0.000647
vt 0.051781 0.048299
vt 0.056801 0.033369
vt 0.076585 0.031506
vt 0.026565 0.014719
vt 0.019864 0.026757
vt 0.014523 0.012347
vt 0.035158 0.010731
vt 0.026515 0.025387
vt 0.065506 0.025193
vt 0.011451 0.027548
vt 0.022576 0.047397
vt 0.000331 0.027758
vt 0.081025 0.011361
vt 0.010030 0.000000
vt 0.086829 0.034814
vt 0.879244 0.055362
vt 0.852188 0.051581
vt 0.872560 0.024602
vt 0.847747 0.011425
vt 0.833679 0.022386
vt 0.830286 0.000000
vt 0.881932 0.018075
vt 0.900807 0.019362
vt 0.900958 0.068390
vt 0.948347 0.037224
vt 0.914170 0.100817
vt 0.852972 0.070803
vt 0.867566 0.074896
vt 0.869674 0.095165
vt 0.832437 0.042543
vt 0.830668 0.084831
vt 0.810200 0.025917
vt 0.887886 0.000000
vt 0.910626 0.014434
vt 0.896947 0.068202
vt 0.888455 0.069987
vt 0.849129 0.023895
vt 0.841319 0.072650
vt 0.871590 0.012619
vt 0.840097 0.038618
vt 0.936190 0.014055
vt 0.845382 0.101218
vt 0.927637 0.087719
vn 0.022772 -0.985272 0.169471
vn -0.011708 -0.999601 -0.025712
vn 0.014248 -0.999743 -0.017653
vn -0.392538 0.524978 -0.755190
vn -0.072439 0.414331 -0.907239
vn -0.141156 0.402463 -0.904488
vn 0.132055 0.027885 0.990850
vn 0.041665 0.065928 0.996954
vn 0.054499 -0.077091 0.995534
vn 0.941780 0.336092 -0.009643
vn 0.927329 0.351389 0.128792
vn 0.939954 0.339861 0.031316
vn 0.122927 0.075338 0.989552
vn 0.037444 0.061806 0.997386
vn 0.944679 0.322909 -0.057543
vn -0.143899 0.927169 -0.345906
vn 0.068457 0.956610 0.283214
vn 0.289176 0.225606 0.930311
vn -0.954013 0.299428 -0.014206
vn -0.980336 0.185116 -0.068361
vn -0.988355 0.151632 0.012736
vn -0.935924 0.251513 0.246553
vn -0.667257 0.378008 -0.641777
vn -0.994501 0.051600 0.091137
vn -0.434661 0.824758 0.361724
vn 0.315139 0.790899 0.524563
vn 0.029952 -0.999377 0.018690
vn 0.011821 -0.995602 0.092939
vn 0.525565 0.748199 0.404944
vn 0.482629 0.849922 0.211430
vn 0.365228 0.918127 0.153791
vn -0.944114 0.259090 0.203769
vn 0.227323 0.232394 0.945683
vn 0.157749 0.128646 0.979064
vn -0.721755 0.649031 0.240477
vn -0.056069 0.435766 -0.898312
vn 0.096910 0.525843 -0.845043
vn -0.634067 -0.755170 0.166366
vn -0.268914 -0.962216 -0.042734
vn -0.382875 -0.034830 0.923143
vn 0.955009 0.293626 0.041734
vn 0.939886 0.340556 -0.025222
vn 0.973685 -0.209843 -0.088900
vn -0.009706 0.076953 -0.996988
vn 0.154414 0.427814 -0.890579
vn -0.424903 0.328289 -0.843613
vn -0.473721 0.475665 -0.741169
vn 0.862118 0.390000 0.323500
vn 0.287948 0.494221 -0.820263
vn 0.779546 0.330005 -0.532358
vn -0.257504 0.946528 0.194362
vn 0.791456 0.587830 0.167488
vn 0.568555 0.784616 0.247231
vn -0.656712 0.615032 0.436422
vn 0.082070 0.827064 0.556084
vn 0.731074 -0.355816 -0.582174
vn -0.759837 0.524772 0.383748
vn 0.756193 -0.319630 -0.570971
vn 0.082070 0.827064 0.556084
vn 0.731074 -0.355816 -0.582174
vn -0.759837 0.524772 0.383748
vn 0.343385 0.665420 0.662799
vn 0.343385 0.665420 0.662799
vn 0.881941 0.075049 0.465347
vn -0.759837 0.524772 0.383748
vn 0.756193 -0.319630 -0.570971
vn -0.795607 0.508890 0.328695
vn 0.179708 0.702281 0.688844
vn 0.343385 0.665420 0.662799
vn -0.759837 0.524772 0.383748
vn 0.179708 0.702281 0.688844
vn 0.179708 0.702281 0.688844
vn 0.179708 0.702281 0.688844
vn -0.795607 0.508890 0.328695
vn 0.191791 0.431748 0.881368
vn 0.191791 0.431748 0.881368
vn 0.683347 0.659329 -0.313562
vn 0.877877 0.410074 -0.247330
vn 0.439103 0.869152 -0.227517
vn -0.044359 0.998911 0.014476
vn 0.439103 0.869152 -0.227517
vn 0.683347 0.659329 -0.313562
vn -0.044359 0.998911 0.014476
vn 0.343385 0.665420 0.662799
vn -0.759837 0.524772 0.383748
vn 0.343385 0.665420 0.662799
vn -0.759837 0.524772 0.383748
vn 0.179708 0.702281 0.688844
vn 0.179708 0.702281 0.688844
vn -0.759837 0.524772 0.383748
vn 0.343385 0.665420 0.662799
vn 0.179708 0.702281 0.688844
vn 0.191791 0.431748 0.881368
vn -0.795607 0.508890 0.328695
vn 0.179708 0.702281 0.688844
vn 0.368859 0.452047 0.812155
vn 0.258688 -0.697958 0.667784
vn 0.368859 0.452047 0.812155
vn 0.000000 0.000000 1.000000
vn 0.091208 -0.052021 0.994472
vn 0.091208 -0.052021 0.994472
vn 0.439103 0.869152 -0.227517
vn -0.044359 0.998911 0.014476
vn 0.368859 0.452047 0.812155
vn 0.091208 -0.052021 0.994472
vn 0.000000 0.000000 1.000000
vn 0.444159 0.877804 0.179397
vn -0.044359 0.998911 0.014476
vn 0.877877 0.410074 -0.247330
vn -0.632517 -0.719800 -0.286026
vn -0.355546 -0.924085 0.140190
vn -0.551860 0.823629 -0.130710
vn 0.397105 -0.912932 -0.094148
vn 0.218025 0.811810 -0.541691
vn 0.757284 -0.341065 -0.556952
vn -0.842535 -0.183978 0.506248
vn 0.355936 -0.881272 0.310917
vn 0.185653 0.332967 0.924482
vn -0.372069 0.764001 -0.527131
vn -0.311588 -0.798806 -0.514609
vn 0.599133 -0.407244 -0.689342
vn 0.700339 0.712314 0.046203
vn -0.310659 0.896259 0.316562
vn -0.280437 -0.790212 -0.544904
vn 0.001710 -0.882456 -0.470392
vn -0.094583 -0.993498 0.063370
vn -0.107562 0.489079 0.865582
vn 0.301028 0.575065 0.760712
vn -0.233846 0.616290 0.751999
vn 0.103359 -0.992958 0.057895
vn 0.326071 0.862090 -0.387916
vn 0.138639 0.972605 -0.186597
vn 0.382038 0.764523 0.519183
vn -0.754713 0.654963 -0.037842
vn -0.893260 0.402950 -0.199293
vn -0.918674 0.389782 0.064097
vn -0.877603 0.383055 0.288239
vn -0.877279 0.431571 0.210067
vn -0.252681 -0.297865 -0.920559
vn 0.105471 0.700202 0.706111
vn 0.856998 0.082534 0.508668
vn 0.807798 -0.495782 -0.318845
vn 0.929936 -0.129426 -0.344192
vn 0.795445 -0.175896 -0.579937
vn 0.074973 0.931702 -0.355402
vn 0.082882 -0.152071 -0.984888
vn -0.930159 -0.248330 0.270438
vn -0.053735 -0.765553 0.641125
vn -0.923776 0.375979 0.072654
vn 0.302612 0.474799 0.826433
vn 0.505561 0.862715 -0.011420
vn 0.958335 0.141350 0.248224
vn 0.937242 -0.180531 -0.298306
vn -0.782777 -0.474956 0.402090
vn 0.396427 -0.836575 0.378137
vn -0.053726 0.830194 0.554880
vn -0.056930 -0.265680 -0.962379
vn -0.945737 -0.064129 -0.318541
vn -0.045951 0.568980 -0.821066
vn 0.260403 -0.961187 -0.091154
vn -0.173931 -0.981671 -0.077916
vn 0.526106 0.705934 0.474204
vn -0.735416 0.619001 -0.275683
vn -0.920552 0.360975 0.149265
vn -0.111669 0.993383 -0.026839
vn -0.760378 0.638810 0.117251
vn 0.007762 0.999356 0.035042
vn -0.247173 0.964271 -0.095327
vn 0.221625 0.251767 -0.942070
vn 0.791547 0.224117 -0.568529
vn 0.326420 -0.287248 -0.900521
vn -0.975393 0.159278 -0.152441
vn -0.962857 -0.260007 -0.072824
vn -0.095152 -0.995349 0.015037
vn 0.323225 -0.941187 -0.098448
vn 0.156323 -0.843649 0.513633
vn 0.378516 0.902651 0.204808
vn -0.069524 0.693959 0.716650
vn 0.454332 0.174179 0.873639
vn 0.990566 0.073738 -0.115506
vn 0.987686 -0.149102 0.047381
vn -0.346270 -0.052234 -0.936680
vn -0.121684 -0.979743 -0.159048
vn -0.938436 -0.157635 0.307390
vn -0.183719 0.201172 0.962173
vn 0.217187 0.887186 -0.407101
vn 0.954411 0.285527 0.087029
vn -0.156711 0.609903 -0.776827
vn 0.730532 0.669395 -0.135032
s 1
f 1/1/1 2/2/2 3/3/3
f 4/4/4 5/5/5 6/6/6
f 7/7/7 8/8/8 9/9/9
f 10/10/10 11/11/11 12/12/12
f 13/13/13 14/14/14 8/8/8
f 10/10/10 12/12/12 15/15/15
f 16/16/16 17/17/17 4/4/4
f 18/18/18 14/14/14 13/13/13
f 19/19/19 20/20/20 21/21/21
f 16/16/16 4/4/4 6/6/6
f 22/22/22 23/23/23 24/24/24
f 25/25/25 22/22/22 26/26/26
f 27/27/27 28/28/28 3/3/3
f 24/24/24 23/23/23 4/4/4
f 29/29/29 30/30/30 31/31/31
f 32/32/32 19/19/19 21/21/21
f 33/33/33 34/34/34 1/1/1
f 17/17/17 35/35/35 4/4/4
f 36/36/36 4/4/4 23/23/23
f 36/36/36 23/23/23 37/37/37
f 1/1/1 38/38/38 39/39/39
f 1/1/1 40/40/40 38/38/38
f 12/12/12 41/41/41 42/42/42
f 7/7/7 13/13/13 8/8/8
f 42/42/42 41/41/41 43/43/43
f 4/4/4 36/36/36 5/5/5
f 3/3/3 2/2/2 44/44/44
f 3/45/3 44/44/44 45/46/45
f 26/26/26 14/14/14 18/18/18
f 26/26/26 29/29/29 31/31/31
f 46/47/46 47/48/47 6/6/6
f 39/39/39 2/2/2 1/1/1
f 48/49/48 29/29/29 18/18/18
f 18/18/18 29/29/29 26/26/26
f 25/25/25 23/23/23 22/22/22
f 31/31/31 37/37/37 23/23/23
f 36/36/36 45/46/45 44/44/44
f 15/50/15 49/51/49 10/52/10
f 40/40/40 32/32/32 38/38/38
f 1/1/1 34/34/34 40/40/40
f 23/23/23 25/25/25 31/31/31
f 25/25/25 26/26/26 31/31/31
f 34/34/34 33/33/33 17/17/17
f 40/40/40 34/34/34 32/32/32
f 12/12/12 48/49/48 41/41/41
f 12/12/12 11/11/11 48/49/48
f 50/53/50 49/51/49 15/50/15
f 50/54/50 15/15/15 43/43/43
f 51/55/51 19/19/19 32/32/32
f 34/34/34 17/17/17 32/32/32
f 7/7/7 9/9/9 27/27/27
f 48/49/48 7/7/7 41/41/41
f 19/19/19 51/55/51 16/16/16
f 19/19/19 47/48/47 20/20/20
f 8/8/8 14/14/14 24/24/24
f 8/8/8 33/33/33 1/1/1
f 39/39/39 21/21/21 20/20/20
f 39/39/39 46/47/46 6/6/6
f 50/53/50 43/56/43 3/45/3
f 3/3/3 43/43/43 27/27/27
f 43/43/43 15/15/15 42/42/42
f 12/12/12 42/42/42 15/15/15
f 32/32/32 17/17/17 51/55/51
f 16/16/16 51/55/51 17/17/17
f 47/48/47 16/16/16 6/6/6
f 47/48/47 19/19/19 16/16/16
f 29/29/29 52/57/52 30/30/30
f 30/30/30 37/37/37 31/31/31
f 52/57/52 37/37/37 30/30/30
f 49/51/49 37/37/37 10/52/10
f 24/24/24 4/4/4 35/35/35
f 8/8/8 24/24/24 35/35/35
f 26/26/26 22/22/22 14/14/14
f 24/24/24 14/14/14 22/22/22
f 38/38/38 32/32/32 21/21/21
f 38/38/38 21/21/21 39/39/39
f 5/5/5 2/2/2 6/6/6
f 2/2/2 39/39/39 6/6/6
f 10/10/10 37/37/37 52/57/52
f 10/10/10 52/57/52 11/11/11
f 48/49/48 11/11/11 29/29/29
f 11/11/11 52/57/52 29/29/29
f 27/27/27 41/41/41 7/7/7
f 41/41/41 27/27/27 43/43/43
f 35/35/35 17/17/17 33/33/33
f 33/33/33 8/8/8 35/35/35
f 28/28/28 1/1/1 3/3/3
f 8/8/8 1/1/1 28/28/28
f 9/9/9 28/28/28 27/27/27
f 9/9/9 8/8/8 28/28/28
f 7/7/7 48/49/48 13/13/13
f 48/49/48 18/18/18 13/13/13
f 50/53/50 45/46/45 49/51/49
f 50/53/50 3/45/3 45/46/45
f 20/20/20 47/48/47 46/47/46
f 20/20/20 46/47/46 39/39/39
f 44/44/44 2/2/2 5/5/5
f 36/36/36 44/44/44 5/5/5
f 45/46/45 36/36/36 49/51/49
f 36/36/36 37/37/37 49/51/49
s 16
f 53/58/53 54/59/54 55/60/55
s off
f 56/61/56 57/62/57 58/63/58
s 17
f 55/64/59 56/65/60 57/66/61
f 55/64/59 57/66/61 59/67/62
s 16
f 53/58/53 55/60/55 59/68/63
f 53/69/53 59/70/63 60/71/64
s 18
f 57/72/65 58/73/66 61/74/67
f 57/72/65 61/74/67 62/75/68
s off
f 59/76/69 57/77/70 62/78/71
s 16
f 59/70/63 62/79/72 60/71/64
s off
f 62/80/73 61/81/74 63/82/75
s 16
f 62/79/72 63/83/76 60/71/64
f 60/84/64 63/85/76 54/59/54
f 64/86/77 53/69/53 65/87/78
f 64/86/77 65/87/78 66/88/79
s off
f 67/89/80 66/90/81 64/91/82
s 16
f 67/92/83 66/88/79 65/87/78
s 17
f 56/65/60 55/64/59 59/93/84
f 56/65/60 59/93/84 57/94/85
s 16
f 59/95/86 55/60/55 54/59/54
s 18
f 58/73/66 57/96/87 62/97/88
f 58/73/66 62/97/88 61/74/67
s off
f 62/98/89 57/99/90 59/100/91
s 16
f 62/101/92 59/95/86 54/59/54
s off
f 63/82/93 61/81/94 62/102/95
s 16
f 63/85/76 62/101/92 54/59/54
f 60/71/64 68/103/96 69/104/97
s off
f 68/105/98 70/106/99 71/107/100
s 16
f 68/103/96 71/108/101 69/104/97
f 53/69/53 64/86/77 66/109/102
f 53/110/53 66/111/102 67/112/103
f 60/84/64 54/59/54 68/113/96
f 68/113/96 54/59/54 71/108/101
s off
f 68/105/104 71/114/105 70/106/106
f 72/115/107 67/116/108 65/117/109
s 16
f 69/104/97 71/108/101 54/59/54
f 54/59/54 73/118/110 74/119/111
f 67/112/103 54/59/54 53/110/53
f 75/120/112 73/118/110 54/59/54
f 65/87/78 53/69/53 76/121/113
f 74/119/111 73/118/110 76/121/113
f 73/118/110 75/120/112 77/122/114
f 73/118/110 78/123/115 76/121/113
f 65/124/78 77/122/114 67/112/103
f 76/121/113 78/123/115 65/87/78
f 77/122/114 78/125/115 73/118/110
f 78/125/115 77/122/114 65/124/78
f 53/69/53 60/71/64 76/121/113
f 60/71/64 69/104/97 76/121/113
f 74/119/111 76/121/113 69/104/97
f 54/59/54 74/119/111 69/104/97
f 75/120/112 67/112/103 77/122/114
f 75/120/112 54/59/54 67/112/103
s 22
f 79/126/116 80/127/117 81/128/118
f 79/126/116 82/129/119 83/130/120
f 84/131/121 83/130/120 82/129/119
f 79/126/116 83/132/120 80/127/117
f 85/133/122 80/127/117 84/131/121
f 80/127/117 83/132/120 84/131/121
f 82/129/119 79/126/116 86/134/123
f 84/131/121 82/129/119 85/133/122
f 81/128/118 80/127/117 85/133/122
f 86/134/123 85/133/122 82/129/119
f 79/126/116 81/128/118 86/134/123
f 81/128/118 85/133/122 86/134/123
s 24
f 87/135/124 88/136/125 89/137/126
f 90/138/127 91/139/128 92/140/129
f 89/137/126 88/136/125 93/141/130
f 94/142/131 95/143/132 96/144/133
f 97/145/134 98/146/135 99/147/136
f 100/148/137 101/149/138 99/147/136
f 87/135/124 102/150/139 88/136/125
f 96/144/133 103/151/140 91/139/128
f 104/152/141 105/153/142 106/154/143
f 105/153/142 107/155/144 106/154/143
f 108/156/145 95/143/132 94/142/131
f 102/150/139 109/157/146 88/136/125
f 89/158/126 100/148/137 110/159/147
f 90/138/127 89/158/126 111/160/148
f 90/138/127 100/148/137 89/158/126
f 90/138/127 92/140/129 100/148/137
f 112/161/149 100/148/137 99/147/136
f 112/161/149 99/147/136 98/146/135
f 108/156/145 97/145/134 95/143/132
f 100/148/137 92/140/129 101/149/138
f 88/136/125 107/155/144 105/153/142
f 93/141/130 88/136/125 105/153/142
f 98/146/135 97/145/134 108/156/145
f 87/135/124 98/146/135 102/150/139
f 108/156/145 94/142/131 109/157/146
f 94/142/131 106/154/143 107/155/144
f 96/144/133 91/139/128 104/152/141
f 93/141/130 105/153/142 104/152/141
f 90/138/127 111/160/148 113/162/150
f 113/163/150 93/141/130 104/152/141
f 92/140/129 91/139/128 103/151/140
f 103/151/140 101/149/138 92/140/129
f 94/142/131 107/155/144 109/157/146
f 107/155/144 88/136/125 109/157/146
f 103/151/140 97/145/134 101/149/138
f 101/149/138 97/145/134 99/147/136
f 111/164/148 89/137/126 93/141/130
f 111/164/148 93/141/130 113/163/150
f 94/142/131 96/144/133 106/154/143
f 104/152/141 106/154/143 96/144/133
f 110/159/147 87/135/124 89/158/126
f 100/148/137 112/161/149 110/159/147
f 112/161/149 98/146/135 87/135/124
f 87/135/124 110/159/147 112/161/149
f 109/157/146 102/150/139 108/156/145
f 98/146/135 108/156/145 102/150/139
f 97/145/134 103/151/140 95/143/132
f 103/151/140 96/144/133 95/143/132
f 104/152/141 91/139/128 113/162/150
f 113/162/150 91/139/128 90/138/127
s 31
f 114/165/151 115/166/152 116/167/153
f 117/168/154 118/169/155 119/170/156
f 120/171/157 121/172/158 122/173/159
f 123/174/160 118/169/155 124/175/161
f 119/170/156 125/176/162 114/165/151
f 126/177/163 127/178/164 128/179/165
f 118/169/155 125/176/162 119/170/156
f 116/167/153 115/166/152 118/169/155
f 121/172/158 117/168/154 127/178/164
f 118/169/155 117/168/154 124/175/161
f 117/168/154 121/172/158 124/175/161
f 124/175/161 121/172/158 120/171/157
f 114/165/151 128/180/165 119/170/156
f 116/167/153 122/173/159 114/181/151
f 120/171/157 122/173/159 116/167/153
f 118/169/155 123/174/160 116/167/153
f 128/179/165 122/173/159 126/177/163
f 122/173/159 128/179/165 114/181/151
f 119/170/156 127/182/164 117/168/154
f 119/170/156 128/180/165 127/182/164
f 120/171/157 123/174/160 124/175/161
f 123/174/160 120/171/157 116/167/153
f 114/165/151 125/176/162 115/166/152
f 115/166/152 125/176/162 118/169/155
f 126/177/163 121/172/158 127/178/164
f 122/173/159 121/172/158 126/177/163
s 37
f 129/183/166 130/184/167 131/185/168
f 132/186/169 133/187/170 134/188/171
f 129/183/166 135/189/172 136/190/173
f 137/191/174 138/192/175 139/193/176
f 140/194/177 141/195/178 142/196/179
f 143/197/180 144/198/181 138/199/175
f 132/186/169 134/188/171 145/200/182
f 137/191/174 146/201/183 138/192/175
f 147/202/184 129/183/166 136/190/173
f 148/203/185 147/202/184 139/193/176
f 149/204/186 131/185/168 130/184/167
f 142/196/179 150/205/187 140/194/177
f 135/189/172 151/206/188 145/200/182
f 151/206/188 131/185/168 149/204/186
f 133/187/170 143/197/180 138/199/175
f 149/204/186 130/184/167 152/207/189
f 129/183/166 141/195/178 140/194/177
f 148/203/185 142/196/179 141/195/178
f 141/195/178 129/183/166 148/203/185
f 148/203/185 129/183/166 147/202/184
f 138/199/175 134/188/171 133/187/170
f 146/201/183 134/208/171 138/192/175
f 146/201/183 145/200/182 134/208/171
f 137/191/174 136/190/173 146/201/183
f 133/187/170 149/204/186 152/207/189
f 149/204/186 133/187/170 132/186/169
f 150/205/187 142/196/179 144/198/181
f 142/196/179 148/203/185 139/193/176
f 149/204/186 132/186/169 151/206/188
f 151/206/188 132/186/169 145/200/182
f 140/194/177 152/207/189 130/184/167
f 129/183/166 140/194/177 130/184/167
f 144/198/181 142/196/179 139/209/176
f 139/193/176 138/192/175 144/210/181
f 152/207/189 140/194/177 150/205/187
f 133/187/170 152/207/189 143/197/180
f 129/183/166 131/185/168 135/189/172
f 151/206/188 135/189/172 131/185/168
f 135/189/172 145/200/182 136/190/173
f 145/200/182 146/201/183 136/190/173
f 147/202/184 137/191/174 139/193/176
f 147/202/184 136/190/173 137/191/174
f 150/205/187 143/197/180 152/207/189
f 143/197/180 150/205/187 144/198/181
