# This file uses centimeters as units for non-parametric coordinates.

v 0.348285 11.374533 -1.800401
v 0.569519 11.008511 -1.681473
v 0.348285 10.546980 -3.424566
v 0.569519 10.235622 -3.198351
v 0.348285 9.258036 -4.713510
v 0.569519 9.031820 -4.402153
v 0.348285 7.633870 -5.541063
v 0.569519 7.514942 -5.175040
v 0.348285 5.833469 -5.826218
v 0.569519 5.833469 -5.441360
v 0.348285 4.033068 -5.541062
v 0.569519 4.151996 -5.175040
v 0.348285 2.408904 -4.713509
v 0.569519 2.635119 -4.402152
v 0.348285 1.119960 -3.424565
v 0.569519 1.431317 -3.198350
v 0.348285 0.292407 -1.800400
v 0.569519 0.658429 -1.681472
v 0.348285 0.007252 0.000000
v 0.569519 0.392111 0.000000
v 0.348285 0.292407 1.800400
v 0.569519 0.658429 1.681472
v 0.348285 1.119961 3.424564
v 0.569519 1.431318 3.198350
v 0.348285 2.408905 4.713508
v 0.569519 2.635119 4.402151
v 0.348285 4.033069 5.541061
v 0.569519 4.151997 5.175039
v 0.348285 5.833469 5.826216
v 0.569519 5.833469 5.441358
v 0.348285 7.633868 5.541061
v 0.569519 7.514941 5.175039
v 0.348285 9.258032 4.713508
v 0.569519 9.031818 4.402151
v 0.348285 10.546976 3.424564
v 0.569519 10.235619 3.198350
v 0.348285 11.374529 1.800400
v 0.569519 11.008507 1.681472
v 0.348285 11.659683 0.000000
v 0.569519 11.274826 0.000000
v -0.412108 11.374533 -1.800401
v -0.633341 11.008511 -1.681473
v -0.412108 10.546980 -3.424566
v -0.633341 10.235622 -3.198351
v -0.412108 9.258036 -4.713510
v -0.633341 9.031820 -4.402153
v -0.412108 7.633870 -5.541063
v -0.633341 7.514942 -5.175040
v -0.412108 5.833469 -5.826218
v -0.633341 5.833469 -5.441360
v -0.412108 4.033068 -5.541062
v -0.633341 4.151996 -5.175040
v -0.412108 2.408904 -4.713509
v -0.633341 2.635119 -4.402152
v -0.412108 1.119960 -3.424565
v -0.633341 1.431317 -3.198350
v -0.412108 0.292407 -1.800400
v -0.633341 0.658429 -1.681472
v -0.412108 0.007252 0.000000
v -0.633341 0.392111 0.000000
v -0.412108 0.292407 1.800400
v -0.633341 0.658429 1.681472
v -0.412108 1.119961 3.424564
v -0.633341 1.431318 3.198350
v -0.412108 2.408905 4.713508
v -0.633341 2.635119 4.402151
v -0.412108 4.033069 5.541061
v -0.633341 4.151997 5.175039
v -0.412108 5.833469 5.826216
v -0.633341 5.833469 5.441358
v -0.412108 7.633868 5.541061
v -0.633341 7.514941 5.175039
v -0.412108 9.258032 4.713508
v -0.633341 9.031818 4.402151
v -0.412108 10.546976 3.424564
v -0.633341 10.235619 3.198350
v -0.412108 11.374529 1.800400
v -0.633341 11.008507 1.681472
v -0.412108 11.659683 0.000000
v -0.633341 11.274826 0.000000
v 0.569519 11.008511 -1.681473
v 0.569519 10.235622 -3.198351
v 0.569519 5.833469 0.000000
v 0.569519 9.031820 -4.402153
v 0.569519 7.514942 -5.175040
v 0.569519 5.833469 -5.441360
v 0.569519 4.151996 -5.175040
v 0.569519 2.635119 -4.402152
v 0.569519 1.431317 -3.198350
v 0.569519 0.658429 -1.681472
v 0.569519 0.392111 0.000000
v 0.569519 0.658429 1.681472
v 0.569519 1.431318 3.198350
v 0.569519 2.635119 4.402151
v 0.569519 4.151997 5.175039
v 0.569519 5.833469 5.441358
v 0.569519 7.514941 5.175039
v 0.569519 9.031818 4.402151
v 0.569519 10.235619 3.198350
v 0.569519 11.008507 1.681472
v 0.569519 11.274826 0.000000
v -0.633341 10.235622 -3.198351
v -0.633341 11.008511 -1.681473
v -0.633341 5.833469 0.000000
v -0.633341 9.031820 -4.402153
v -0.633341 7.514942 -5.175040
v -0.633341 5.833469 -5.441360
v -0.633341 4.151996 -5.175040
v -0.633341 2.635119 -4.402152
v -0.633341 1.431317 -3.198350
v -0.633341 0.658429 -1.681472
v -0.633341 0.392111 0.000000
v -0.633341 0.658429 1.681472
v -0.633341 1.431318 3.198350
v -0.633341 2.635119 4.402151
v -0.633341 4.151997 5.175039
v -0.633341 5.833469 5.441358
v -0.633341 7.514941 5.175039
v -0.633341 9.031818 4.402151
v -0.633341 10.235619 3.198350
v -0.633341 11.008507 1.681472
v -0.633341 11.274826 0.000000
vt 0.019492 0.304842
vt 0.012342 0.304896
vt 0.012354 0.256171
vt 0.019502 0.256067
vt 0.019483 0.353618
vt 0.012332 0.353651
vt 0.012369 0.207506
vt 0.019512 0.207289
vt 0.012380 0.158961
vt 0.019515 0.158489
vt 0.012373 0.110660
vt 0.019495 0.109620
vt 0.012293 0.062869
vt 0.019411 0.060577
vt 0.011966 0.016189
vt 0.019189 0.011138
vt 0.019260 0.988725
vt 0.011966 0.984417
vt 0.012248 0.937514
vt 0.019417 0.939660
vt 0.012324 0.889643
vt 0.019469 0.890655
vt 0.012335 0.841265
vt 0.019479 0.841721
vt 0.012329 0.792645
vt 0.019476 0.792839
vt 0.012321 0.743918
vt 0.019470 0.743992
vt 0.012315 0.695146
vt 0.019465 0.695168
vt 0.012311 0.646359
vt 0.019463 0.646358
vt 0.012310 0.597567
vt 0.019462 0.597556
vt 0.012311 0.548776
vt 0.019464 0.548761
vt 0.012314 0.499987
vt 0.019466 0.499970
vt 0.012318 0.451202
vt 0.019470 0.451182
vt 0.012324 0.402422
vt 0.019476 0.402398
vt 0.043450 0.304832
vt 0.050600 0.304854
vt 0.050603 0.353641
vt 0.043452 0.353643
vt 0.043445 0.256008
vt 0.050594 0.256082
vt 0.043439 0.207161
vt 0.050585 0.207355
vt 0.043435 0.158279
vt 0.050579 0.158735
vt 0.043445 0.109345
vt 0.050591 0.110357
vt 0.043498 0.060339
vt 0.050667 0.062486
vt 0.043655 0.011275
vt 0.050948 0.015583
vt 0.050948 0.983811
vt 0.043726 0.988862
vt 0.043503 0.939423
vt 0.050621 0.937131
vt 0.043420 0.890380
vt 0.050542 0.889340
vt 0.043399 0.841511
vt 0.050534 0.841039
vt 0.043403 0.792711
vt 0.050546 0.792494
vt 0.043413 0.743933
vt 0.050560 0.743829
vt 0.043423 0.695159
vt 0.050573 0.695104
vt 0.043432 0.646382
vt 0.050583 0.646349
vt 0.043439 0.597602
vt 0.050591 0.597578
vt 0.043444 0.548818
vt 0.050596 0.548799
vt 0.043448 0.500030
vt 0.050601 0.500013
vt 0.043451 0.451239
vt 0.050603 0.451224
vt 0.043452 0.402444
vt 0.050604 0.402433
vt 0.608772 0.023928
vt 0.663091 0.026805
vt 0.626862 0.196845
vt 0.556223 0.037983
vt 0.510591 0.067588
vt 0.476338 0.109841
vt 0.456818 0.160615
vt 0.453948 0.214936
vt 0.468000 0.267482
vt 0.497602 0.313116
vt 0.539860 0.347371
vt 0.590634 0.366886
vt 0.644951 0.369759
vt 0.697500 0.355709
vt 0.743135 0.326103
vt 0.777385 0.283845
vt 0.796904 0.233076
vt 0.799778 0.178755
vt 0.785723 0.126205
vt 0.756120 0.080574
vt 0.713865 0.046319
vt 0.436853 0.278166
vt 0.404358 0.321796
vt 0.282876 0.197387
vt 0.359964 0.353247
vt 0.308029 0.369438
vt 0.253633 0.368793
vt 0.202094 0.351367
vt 0.158466 0.318864
vt 0.127018 0.274477
vt 0.110823 0.222541
vt 0.111470 0.168139
vt 0.128899 0.116606
vt 0.161396 0.072979
vt 0.205785 0.041525
vt 0.257725 0.025333
vt 0.312122 0.025984
vt 0.363655 0.043407
vt 0.407287 0.075906
vt 0.438737 0.120299
vt 0.454927 0.172233
vt 0.454282 0.226630
vt 0.608770 0.023924
vt 0.663091 0.026802
vt 0.556223 0.037979
vt 0.510590 0.067584
vt 0.476334 0.109842
vt 0.456815 0.160616
vt 0.453947 0.214933
vt 0.467996 0.267483
vt 0.497603 0.313120
vt 0.539857 0.347374
vt 0.590630 0.366889
vt 0.644952 0.369763
vt 0.697504 0.355711
vt 0.743137 0.326106
vt 0.777386 0.283849
vt 0.796908 0.233074
vt 0.799782 0.178752
vt 0.785725 0.126208
vt 0.756124 0.080572
vt 0.713865 0.046316
vt 0.436856 0.278166
vt 0.404358 0.321798
vt 0.359964 0.353249
vt 0.308028 0.369440
vt 0.253634 0.368796
vt 0.202094 0.351369
vt 0.158463 0.318864
vt 0.127016 0.274477
vt 0.110822 0.222544
vt 0.111467 0.168139
vt 0.128898 0.116603
vt 0.161394 0.072978
vt 0.205783 0.041524
vt 0.257725 0.025330
vt 0.312124 0.025983
vt 0.363656 0.043404
vt 0.407286 0.075903
vt 0.438739 0.120300
vt 0.454930 0.172233
vt 0.454284 0.226630
vn 0.351411 0.890400 -0.289307
vn 0.866965 0.473977 -0.154004
vn 0.866965 0.403189 -0.292934
vn 0.351411 0.757419 -0.550297
vn 0.866965 0.473977 -0.154004
vn 0.351411 0.890400 -0.289307
vn 0.351411 0.936221 0.000001
vn 0.866965 0.498369 0.000001
vn 0.351411 0.757419 -0.550297
vn 0.866965 0.403189 -0.292934
vn 0.866965 0.292934 -0.403189
vn 0.351411 0.550297 -0.757419
vn 0.351411 0.550297 -0.757419
vn 0.866965 0.292934 -0.403189
vn 0.866965 0.154004 -0.473977
vn 0.351411 0.289308 -0.890399
vn 0.351411 0.289308 -0.890399
vn 0.866965 0.154004 -0.473977
vn 0.866965 0.000000 -0.498369
vn 0.351411 0.000000 -0.936221
vn 0.351411 0.000000 -0.936221
vn 0.866965 0.000000 -0.498369
vn 0.866965 -0.154005 -0.473977
vn 0.351411 -0.289308 -0.890399
vn 0.351411 -0.289308 -0.890399
vn 0.866965 -0.154005 -0.473977
vn 0.866965 -0.292934 -0.403189
vn 0.351411 -0.550297 -0.757419
vn 0.351411 -0.550297 -0.757419
vn 0.866965 -0.292934 -0.403189
vn 0.866965 -0.403189 -0.292934
vn 0.351411 -0.757419 -0.550297
vn 0.351411 -0.757419 -0.550297
vn 0.866965 -0.403189 -0.292934
vn 0.866965 -0.473977 -0.154004
vn 0.351411 -0.890399 -0.289308
vn 0.351411 -0.890399 -0.289308
vn 0.866965 -0.473977 -0.154004
vn 0.866965 -0.498369 0.000000
vn 0.351411 -0.936221 0.000000
vn 0.351411 -0.936221 0.000000
vn 0.866965 -0.498369 0.000000
vn 0.866965 -0.473977 0.154005
vn 0.351411 -0.890399 0.289308
vn 0.351411 -0.890399 0.289308
vn 0.866965 -0.473977 0.154005
vn 0.866965 -0.403189 0.292934
vn 0.351411 -0.757419 0.550297
vn 0.351411 -0.757419 0.550297
vn 0.866965 -0.403189 0.292934
vn 0.866965 -0.292934 0.403189
vn 0.351411 -0.550297 0.757419
vn 0.351411 -0.550297 0.757419
vn 0.866965 -0.292934 0.403189
vn 0.866965 -0.154004 0.473977
vn 0.351411 -0.289308 0.890399
vn 0.351411 -0.289308 0.890399
vn 0.866965 -0.154004 0.473977
vn 0.866965 0.000000 0.498369
vn 0.351411 0.000000 0.936221
vn 0.351411 0.000000 0.936221
vn 0.866965 0.000000 0.498369
vn 0.866965 0.154004 0.473977
vn 0.351411 0.289308 0.890399
vn 0.351411 0.289308 0.890399
vn 0.866965 0.154004 0.473977
vn 0.866965 0.292934 0.403189
vn 0.351411 0.550297 0.757419
vn 0.351411 0.550297 0.757419
vn 0.866965 0.292934 0.403189
vn 0.866965 0.403189 0.292934
vn 0.351411 0.757419 0.550297
vn 0.351411 0.757419 0.550297
vn 0.866965 0.403189 0.292934
vn 0.866965 0.473977 0.154004
vn 0.351411 0.890399 0.289308
vn 0.351411 0.890399 0.289308
vn 0.866965 0.473977 0.154004
vn 0.866965 0.498369 0.000001
vn 0.351411 0.936221 0.000001
vn -0.351412 0.890400 -0.289307
vn -0.866966 0.473976 -0.154004
vn -0.866965 0.498368 0.000001
vn -0.351411 0.936221 0.000001
vn -0.866966 0.473976 -0.154004
vn -0.351412 0.890400 -0.289307
vn -0.351411 0.757419 -0.550297
vn -0.866966 0.403188 -0.292933
vn -0.866966 0.403188 -0.292933
vn -0.351411 0.757419 -0.550297
vn -0.351411 0.550297 -0.757419
vn -0.866966 0.292933 -0.403188
vn -0.866966 0.292933 -0.403188
vn -0.351411 0.550297 -0.757419
vn -0.351411 0.289308 -0.890399
vn -0.866966 0.154004 -0.473976
vn -0.866966 0.154004 -0.473976
vn -0.351411 0.289308 -0.890399
vn -0.351411 0.000000 -0.936221
vn -0.866966 0.000000 -0.498368
vn -0.866966 0.000000 -0.498368
vn -0.351411 0.000000 -0.936221
vn -0.351411 -0.289308 -0.890399
vn -0.866965 -0.154004 -0.473976
vn -0.866965 -0.154004 -0.473976
vn -0.351411 -0.289308 -0.890399
vn -0.351411 -0.550297 -0.757419
vn -0.866965 -0.292934 -0.403188
vn -0.866965 -0.292934 -0.403188
vn -0.351411 -0.550297 -0.757419
vn -0.351411 -0.757419 -0.550297
vn -0.866965 -0.403189 -0.292934
vn -0.866965 -0.403189 -0.292934
vn -0.351411 -0.757419 -0.550297
vn -0.351411 -0.890399 -0.289308
vn -0.866965 -0.473977 -0.154004
vn -0.866965 -0.473977 -0.154004
vn -0.351411 -0.890399 -0.289308
vn -0.351411 -0.936221 0.000000
vn -0.866965 -0.498368 0.000000
vn -0.866965 -0.498368 0.000000
vn -0.351411 -0.936221 0.000000
vn -0.351411 -0.890399 0.289308
vn -0.866965 -0.473977 0.154004
vn -0.866965 -0.473977 0.154004
vn -0.351411 -0.890399 0.289308
vn -0.351411 -0.757419 0.550297
vn -0.866965 -0.403189 0.292934
vn -0.866965 -0.403189 0.292934
vn -0.351411 -0.757419 0.550297
vn -0.351411 -0.550297 0.757419
vn -0.866966 -0.292933 0.403188
vn -0.866966 -0.292933 0.403188
vn -0.351411 -0.550297 0.757419
vn -0.351411 -0.289308 0.890399
vn -0.866965 -0.154004 0.473976
vn -0.866965 -0.154004 0.473976
vn -0.351411 -0.289308 0.890399
vn -0.351411 0.000000 0.936221
vn -0.866965 0.000000 0.498368
vn -0.866965 0.000000 0.498368
vn -0.351411 0.000000 0.936221
vn -0.351411 0.289308 0.890399
vn -0.866965 0.154004 0.473976
vn -0.866965 0.154004 0.473976
vn -0.351411 0.289308 0.890399
vn -0.351411 0.550297 0.757419
vn -0.866965 0.292934 0.403189
vn -0.866965 0.292934 0.403189
vn -0.351411 0.550297 0.757419
vn -0.351411 0.757419 0.550297
vn -0.866965 0.403189 0.292934
vn -0.866965 0.403189 0.292934
vn -0.351411 0.757419 0.550297
vn -0.351411 0.890399 0.289308
vn -0.866965 0.473977 0.154004
vn -0.866965 0.473977 0.154004
vn -0.351411 0.890399 0.289308
vn -0.351411 0.936221 0.000001
vn -0.866965 0.498368 0.000001
vn 0.351411 0.890400 -0.289307
vn 0.351411 0.757419 -0.550297
vn -0.351411 0.757419 -0.550297
vn -0.351412 0.890400 -0.289307
vn 0.351411 0.757419 -0.550297
vn 0.351411 0.550297 -0.757419
vn -0.351411 0.550297 -0.757419
vn -0.351411 0.757419 -0.550297
vn 0.351411 0.550297 -0.757419
vn 0.351411 0.289308 -0.890399
vn -0.351411 0.289308 -0.890399
vn -0.351411 0.550297 -0.757419
vn 0.351411 0.289308 -0.890399
vn 0.351411 0.000000 -0.936221
vn -0.351411 0.000000 -0.936221
vn -0.351411 0.289308 -0.890399
vn 0.351411 0.000000 -0.936221
vn 0.351411 -0.289308 -0.890399
vn -0.351411 -0.289308 -0.890399
vn -0.351411 0.000000 -0.936221
vn 0.351411 -0.289308 -0.890399
vn 0.351411 -0.550297 -0.757419
vn -0.351411 -0.550297 -0.757419
vn -0.351411 -0.289308 -0.890399
vn 0.351411 -0.550297 -0.757419
vn 0.351411 -0.757419 -0.550297
vn -0.351411 -0.757419 -0.550297
vn -0.351411 -0.550297 -0.757419
vn 0.351411 -0.757419 -0.550297
vn 0.351411 -0.890399 -0.289308
vn -0.351411 -0.890399 -0.289308
vn -0.351411 -0.757419 -0.550297
vn 0.351411 -0.890399 -0.289308
vn 0.351411 -0.936221 0.000000
vn -0.351411 -0.936221 0.000000
vn -0.351411 -0.890399 -0.289308
vn 0.351411 -0.936221 0.000000
vn 0.351411 -0.890399 0.289308
vn -0.351411 -0.890399 0.289308
vn -0.351411 -0.936221 0.000000
vn 0.351411 -0.890399 0.289308
vn 0.351411 -0.757419 0.550297
vn -0.351411 -0.757419 0.550297
vn -0.351411 -0.890399 0.289308
vn 0.351411 -0.757419 0.550297
vn 0.351411 -0.550297 0.757419
vn -0.351411 -0.550297 0.757419
vn -0.351411 -0.757419 0.550297
vn 0.351411 -0.550297 0.757419
vn 0.351411 -0.289308 0.890399
vn -0.351411 -0.289308 0.890399
vn -0.351411 -0.550297 0.757419
vn 0.351411 -0.289308 0.890399
vn 0.351411 0.000000 0.936221
vn -0.351411 0.000000 0.936221
vn -0.351411 -0.289308 0.890399
vn 0.351411 0.000000 0.936221
vn 0.351411 0.289308 0.890399
vn -0.351411 0.289308 0.890399
vn -0.351411 0.000000 0.936221
vn 0.351411 0.289308 0.890399
vn 0.351411 0.550297 0.757419
vn -0.351411 0.550297 0.757419
vn -0.351411 0.289308 0.890399
vn 0.351411 0.550297 0.757419
vn 0.351411 0.757419 0.550297
vn -0.351411 0.757419 0.550297
vn -0.351411 0.550297 0.757419
vn 0.351411 0.757419 0.550297
vn 0.351411 0.890399 0.289308
vn -0.351411 0.890399 0.289308
vn -0.351411 0.757419 0.550297
vn 0.351411 0.890399 0.289308
vn 0.351411 0.936221 0.000001
vn -0.351411 0.936221 0.000001
vn -0.351411 0.890399 0.289308
vn 0.351411 0.936221 0.000001
vn 0.351411 0.890400 -0.289307
vn -0.351412 0.890400 -0.289307
vn -0.351411 0.936221 0.000001
vn 1.000000 0.000000 0.000000
vn 1.000000 0.000000 0.000000
vn 1.000000 0.000000 0.000000
vn 1.000000 0.000000 0.000000
vn 1.000000 0.000000 0.000000
vn 1.000000 0.000000 0.000000
vn 1.000000 0.000000 0.000000
vn 1.000000 0.000000 0.000000
vn 1.000000 0.000000 0.000000
vn 1.000000 0.000000 0.000000
vn 1.000000 0.000000 0.000000
vn 1.000000 0.000000 0.000000
vn 1.000000 0.000000 0.000000
vn 1.000000 0.000000 0.000000
vn 1.000000 0.000000 0.000000
vn 1.000000 0.000000 0.000000
vn 1.000000 0.000000 0.000000
vn 1.000000 0.000000 0.000000
vn 1.000000 0.000000 0.000000
vn 1.000000 0.000000 0.000000
vn 1.000000 0.000000 0.000000
vn 1.000000 0.000000 0.000000
vn 1.000000 0.000000 0.000000
vn 1.000000 0.000000 0.000000
vn 1.000000 0.000000 0.000000
vn 1.000000 0.000000 0.000000
vn 1.000000 0.000000 0.000000
vn 1.000000 0.000000 0.000000
vn 1.000000 0.000000 0.000000
vn 1.000000 0.000000 0.000000
vn 1.000000 0.000000 0.000000
vn 1.000000 0.000000 0.000000
vn 1.000000 0.000000 0.000000
vn 1.000000 0.000000 0.000000
vn 1.000000 0.000000 0.000000
vn 1.000000 0.000000 0.000000
vn 1.000000 0.000000 0.000000
vn 1.000000 0.000000 0.000000
vn 1.000000 0.000000 0.000000
vn 1.000000 0.000000 0.000000
vn 1.000000 0.000000 0.000000
vn 1.000000 0.000000 0.000000
vn 1.000000 0.000000 0.000000
vn 1.000000 0.000000 0.000000
vn 1.000000 0.000000 0.000000
vn 1.000000 0.000000 0.000000
vn 1.000000 0.000000 0.000000
vn 1.000000 0.000000 0.000000
vn 1.000000 0.000000 0.000000
vn 1.000000 0.000000 0.000000
vn 1.000000 0.000000 0.000000
vn 1.000000 0.000000 0.000000
vn 1.000000 0.000000 0.000000
vn 1.000000 0.000000 0.000000
vn 1.000000 0.000000 0.000000
vn 1.000000 0.000000 0.000000
vn 1.000000 0.000000 0.000000
vn 1.000000 0.000000 0.000000
vn 1.000000 0.000000 0.000000
vn 1.000000 0.000000 0.000000
vn -1.000000 0.000000 0.000000
vn -1.000000 0.000000 0.000000
vn -1.000000 0.000000 0.000000
vn -1.000000 0.000000 0.000000
vn -1.000000 0.000000 0.000000
vn -1.000000 0.000000 0.000000
vn -1.000000 0.000000 0.000000
vn -1.000000 0.000000 0.000000
vn -1.000000 0.000000 0.000000
vn -1.000000 0.000000 0.000000
vn -1.000000 0.000000 0.000000
vn -1.000000 0.000000 0.000000
vn -1.000000 0.000000 0.000000
vn -1.000000 0.000000 0.000000
vn -1.000000 0.000000 0.000000
vn -1.000000 0.000000 0.000000
vn -1.000000 0.000000 0.000000
vn -1.000000 0.000000 0.000000
vn -1.000000 0.000000 0.000000
vn -1.000000 0.000000 0.000000
vn -1.000000 0.000000 0.000000
vn -1.000000 0.000000 0.000000
vn -1.000000 0.000000 0.000000
vn -1.000000 0.000000 0.000000
vn -1.000000 0.000000 0.000000
vn -1.000000 0.000000 0.000000
vn -1.000000 0.000000 0.000000
vn -1.000000 0.000000 0.000000
vn -1.000000 0.000000 0.000000
vn -1.000000 0.000000 0.000000
vn -1.000000 0.000000 0.000000
vn -1.000000 0.000000 0.000000
vn -1.000000 0.000000 0.000000
vn -1.000000 0.000000 0.000000
vn -1.000000 0.000000 0.000000
vn -1.000000 0.000000 0.000000
vn -1.000000 0.000000 0.000000
vn -1.000000 0.000000 0.000000
vn -1.000000 0.000000 0.000000
vn -1.000000 0.000000 0.000000
vn -1.000000 0.000000 0.000000
vn -1.000000 0.000000 0.000000
vn -1.000000 0.000000 0.000000
vn -1.000000 0.000000 0.000000
vn -1.000000 0.000000 0.000000
vn -1.000000 0.000000 0.000000
vn -1.000000 0.000000 0.000000
vn -1.000000 0.000000 0.000000
vn -1.000000 0.000000 0.000000
vn -1.000000 0.000000 0.000000
vn -1.000000 0.000000 0.000000
vn -1.000000 0.000000 0.000000
vn -1.000000 0.000000 0.000000
vn -1.000000 0.000000 0.000000
vn -1.000000 0.000000 0.000000
vn -1.000000 0.000000 0.000000
vn -1.000000 0.000000 0.000000
vn -1.000000 0.000000 0.000000
vn -1.000000 0.000000 0.000000
vn -1.000000 0.000000 0.000000
vn 0.866965 0.403189 -0.292934
vn 0.866965 0.473977 -0.154004
vn 1.000000 0.000000 0.000000
vn 1.000000 0.000000 0.000000
vn 0.866965 0.292934 -0.403189
vn 0.866965 0.403189 -0.292934
vn 1.000000 0.000000 0.000000
vn 1.000000 0.000000 0.000000
vn 0.866965 0.154004 -0.473977
vn 0.866965 0.292934 -0.403189
vn 1.000000 0.000000 0.000000
vn 1.000000 0.000000 0.000000
vn 0.866965 0.000000 -0.498369
vn 0.866965 0.154004 -0.473977
vn 1.000000 0.000000 0.000000
vn 1.000000 0.000000 0.000000
vn 0.866965 -0.154005 -0.473977
vn 0.866965 0.000000 -0.498369
vn 1.000000 0.000000 0.000000
vn 1.000000 0.000000 0.000000
vn 0.866965 -0.292934 -0.403189
vn 0.866965 -0.154005 -0.473977
vn 1.000000 0.000000 0.000000
vn 1.000000 0.000000 0.000000
vn 0.866965 -0.403189 -0.292934
vn 0.866965 -0.292934 -0.403189
vn 1.000000 0.000000 0.000000
vn 1.000000 0.000000 0.000000
vn 0.866965 -0.473977 -0.154004
vn 0.866965 -0.403189 -0.292934
vn 1.000000 0.000000 0.000000
vn 1.000000 0.000000 0.000000
vn 0.866965 -0.498369 0.000000
vn 0.866965 -0.473977 -0.154004
vn 1.000000 0.000000 0.000000
vn 1.000000 0.000000 0.000000
vn 0.866965 -0.473977 0.154005
vn 0.866965 -0.498369 0.000000
vn 1.000000 0.000000 0.000000
vn 1.000000 0.000000 0.000000
vn 0.866965 -0.403189 0.292934
vn 0.866965 -0.473977 0.154005
vn 1.000000 0.000000 0.000000
vn 1.000000 0.000000 0.000000
vn 0.866965 -0.292934 0.403189
vn 0.866965 -0.403189 0.292934
vn 1.000000 0.000000 0.000000
vn 1.000000 0.000000 0.000000
vn 0.866965 -0.154004 0.473977
vn 0.866965 -0.292934 0.403189
vn 1.000000 0.000000 0.000000
vn 1.000000 0.000000 0.000000
vn 0.866965 0.000000 0.498369
vn 0.866965 -0.154004 0.473977
vn 1.000000 0.000000 0.000000
vn 1.000000 0.000000 0.000000
vn 0.866965 0.154004 0.473977
vn 0.866965 0.000000 0.498369
vn 1.000000 0.000000 0.000000
vn 1.000000 0.000000 0.000000
vn 0.866965 0.292934 0.403189
vn 0.866965 0.154004 0.473977
vn 1.000000 0.000000 0.000000
vn 1.000000 0.000000 0.000000
vn 0.866965 0.403189 0.292934
vn 0.866965 0.292934 0.403189
vn 1.000000 0.000000 0.000000
vn 1.000000 0.000000 0.000000
vn 0.866965 0.473977 0.154004
vn 0.866965 0.403189 0.292934
vn 1.000000 0.000000 0.000000
vn 1.000000 0.000000 0.000000
vn 0.866965 0.498369 0.000001
vn 0.866965 0.473977 0.154004
vn 1.000000 0.000000 0.000000
vn 1.000000 0.000000 0.000000
vn 0.866965 0.473977 -0.154004
vn 0.866965 0.498369 0.000001
vn 1.000000 0.000000 0.000000
vn 1.000000 0.000000 0.000000
vn -0.866966 0.473976 -0.154004
vn -0.866966 0.403188 -0.292933
vn -1.000000 0.000000 0.000000
vn -1.000000 0.000000 0.000000
vn -0.866966 0.403188 -0.292933
vn -0.866966 0.292933 -0.403188
vn -1.000000 0.000000 0.000000
vn -1.000000 0.000000 0.000000
vn -0.866966 0.292933 -0.403188
vn -0.866966 0.154004 -0.473976
vn -1.000000 0.000000 0.000000
vn -1.000000 0.000000 0.000000
vn -0.866966 0.154004 -0.473976
vn -0.866966 0.000000 -0.498368
vn -1.000000 0.000000 0.000000
vn -1.000000 0.000000 0.000000
vn -0.866966 0.000000 -0.498368
vn -0.866965 -0.154004 -0.473976
vn -1.000000 0.000000 0.000000
vn -1.000000 0.000000 0.000000
vn -0.866965 -0.154004 -0.473976
vn -0.866965 -0.292934 -0.403188
vn -1.000000 0.000000 0.000000
vn -1.000000 0.000000 0.000000
vn -0.866965 -0.292934 -0.403188
vn -0.866965 -0.403189 -0.292934
vn -1.000000 0.000000 0.000000
vn -1.000000 0.000000 0.000000
vn -0.866965 -0.403189 -0.292934
vn -0.866965 -0.473977 -0.154004
vn -1.000000 0.000000 0.000000
vn -1.000000 0.000000 0.000000
vn -0.866965 -0.473977 -0.154004
vn -0.866965 -0.498368 0.000000
vn -1.000000 0.000000 0.000000
vn -1.000000 0.000000 0.000000
vn -0.866965 -0.498368 0.000000
vn -0.866965 -0.473977 0.154004
vn -1.000000 0.000000 0.000000
vn -1.000000 0.000000 0.000000
vn -0.866965 -0.473977 0.154004
vn -0.866965 -0.403189 0.292934
vn -1.000000 0.000000 0.000000
vn -1.000000 0.000000 0.000000
vn -0.866965 -0.403189 0.292934
vn -0.866966 -0.292933 0.403188
vn -1.000000 0.000000 0.000000
vn -1.000000 0.000000 0.000000
vn -0.866966 -0.292933 0.403188
vn -0.866965 -0.154004 0.473976
vn -1.000000 0.000000 0.000000
vn -1.000000 0.000000 0.000000
vn -0.866965 -0.154004 0.473976
vn -0.866965 0.000000 0.498368
vn -1.000000 0.000000 0.000000
vn -1.000000 0.000000 0.000000
vn -0.866965 0.000000 0.498368
vn -0.866965 0.154004 0.473976
vn -1.000000 0.000000 0.000000
vn -1.000000 0.000000 0.000000
vn -0.866965 0.154004 0.473976
vn -0.866965 0.292934 0.403189
vn -1.000000 0.000000 0.000000
vn -1.000000 0.000000 0.000000
vn -0.866965 0.292934 0.403189
vn -0.866965 0.403189 0.292934
vn -1.000000 0.000000 0.000000
vn -1.000000 0.000000 0.000000
vn -0.866965 0.403189 0.292934
vn -0.866965 0.473977 0.154004
vn -1.000000 0.000000 0.000000
vn -1.000000 0.000000 0.000000
vn -0.866965 0.473977 0.154004
vn -0.866965 0.498368 0.000001
vn -1.000000 0.000000 0.000000
vn -1.000000 0.000000 0.000000
vn -0.866965 0.498368 0.000001
vn -0.866966 0.473976 -0.154004
vn -1.000000 0.000000 0.000000
vn -1.000000 0.000000 0.000000
s off
f 1/1/1 2/2/2 4/3/3 3/4/4
f 2/2/5 1/1/6 39/5/7 40/6/8
f 3/4/9 4/3/10 6/7/11 5/8/12
f 5/8/13 6/7/14 8/9/15 7/10/16
f 7/10/17 8/9/18 10/11/19 9/12/20
f 9/12/21 10/11/22 12/13/23 11/14/24
f 11/14/25 12/13/26 14/15/27 13/16/28
f 13/17/29 14/18/30 16/19/31 15/20/32
f 15/20/33 16/19/34 18/21/35 17/22/36
f 17/22/37 18/21/38 20/23/39 19/24/40
f 19/24/41 20/23/42 22/25/43 21/26/44
f 21/26/45 22/25/46 24/27/47 23/28/48
f 23/28/49 24/27/50 26/29/51 25/30/52
f 25/30/53 26/29/54 28/31/55 27/32/56
f 27/32/57 28/31/58 30/33/59 29/34/60
f 29/34/61 30/33/62 32/35/63 31/36/64
f 31/36/65 32/35/66 34/37/67 33/38/68
f 33/38/69 34/37/70 36/39/71 35/40/72
f 35/40/73 36/39/74 38/41/75 37/42/76
f 37/42/77 38/41/78 40/6/79 39/5/80
f 41/43/81 42/44/82 80/45/83 79/46/84
f 42/44/85 41/43/86 43/47/87 44/48/88
f 44/48/89 43/47/90 45/49/91 46/50/92
f 46/50/93 45/49/94 47/51/95 48/52/96
f 48/52/97 47/51/98 49/53/99 50/54/100
f 50/54/101 49/53/102 51/55/103 52/56/104
f 52/56/105 51/55/106 53/57/107 54/58/108
f 54/59/109 53/60/110 55/61/111 56/62/112
f 56/62/113 55/61/114 57/63/115 58/64/116
f 58/64/117 57/63/118 59/65/119 60/66/120
f 60/66/121 59/65/122 61/67/123 62/68/124
f 62/68/125 61/67/126 63/69/127 64/70/128
f 64/70/129 63/69/130 65/71/131 66/72/132
f 66/72/133 65/71/134 67/73/135 68/74/136
f 68/74/137 67/73/138 69/75/139 70/76/140
f 70/76/141 69/75/142 71/77/143 72/78/144
f 72/78/145 71/77/146 73/79/147 74/80/148
f 74/80/149 73/79/150 75/81/151 76/82/152
f 76/82/153 75/81/154 77/83/155 78/84/156
f 78/84/157 77/83/158 79/46/159 80/45/160
f 1/1/161 3/4/162 43/47/163 41/43/164
f 3/4/165 5/8/166 45/49/167 43/47/168
f 5/8/169 7/10/170 47/51/171 45/49/172
f 7/10/173 9/12/174 49/53/175 47/51/176
f 9/12/177 11/14/178 51/55/179 49/53/180
f 11/14/181 13/16/182 53/57/183 51/55/184
f 13/17/185 15/20/186 55/61/187 53/60/188
f 15/20/189 17/22/190 57/63/191 55/61/192
f 17/22/193 19/24/194 59/65/195 57/63/196
f 19/24/197 21/26/198 61/67/199 59/65/200
f 21/26/201 23/28/202 63/69/203 61/67/204
f 23/28/205 25/30/206 65/71/207 63/69/208
f 25/30/209 27/32/210 67/73/211 65/71/212
f 27/32/213 29/34/214 69/75/215 67/73/216
f 29/34/217 31/36/218 71/77/219 69/75/220
f 31/36/221 33/38/222 73/79/223 71/77/224
f 33/38/225 35/40/226 75/81/227 73/79/228
f 35/40/229 37/42/230 77/83/231 75/81/232
f 37/42/233 39/5/234 79/46/235 77/83/236
f 39/5/237 1/1/238 41/43/239 79/46/240
f 82/85/241 81/86/242 83/87/243
f 84/88/244 82/85/245 83/87/246
f 85/89/247 84/88/248 83/87/249
f 86/90/250 85/89/251 83/87/252
f 87/91/253 86/90/254 83/87/255
f 88/92/256 87/91/257 83/87/258
f 89/93/259 88/92/260 83/87/261
f 90/94/262 89/93/263 83/87/264
f 91/95/265 90/94/266 83/87/267
f 92/96/268 91/95/269 83/87/270
f 93/97/271 92/96/272 83/87/273
f 94/98/274 93/97/275 83/87/276
f 95/99/277 94/98/278 83/87/279
f 96/100/280 95/99/281 83/87/282
f 97/101/283 96/100/284 83/87/285
f 98/102/286 97/101/287 83/87/288
f 99/103/289 98/102/290 83/87/291
f 100/104/292 99/103/293 83/87/294
f 101/105/295 100/104/296 83/87/297
f 81/86/298 101/105/299 83/87/300
f 103/106/301 102/107/302 104/108/303
f 102/107/304 105/109/305 104/108/306
f 105/109/307 106/110/308 104/108/309
f 106/110/310 107/111/311 104/108/312
f 107/111/313 108/112/314 104/108/315
f 108/112/316 109/113/317 104/108/318
f 109/113/319 110/114/320 104/108/321
f 110/114/322 111/115/323 104/108/324
f 111/115/325 112/116/326 104/108/327
f 112/116/328 113/117/329 104/108/330
f 113/117/331 114/118/332 104/108/333
f 114/118/334 115/119/335 104/108/336
f 115/119/337 116/120/338 104/108/339
f 116/120/340 117/121/341 104/108/342
f 117/121/343 118/122/344 104/108/345
f 118/122/346 119/123/347 104/108/348
f 119/123/349 120/124/350 104/108/351
f 120/124/352 121/125/353 104/108/354
f 121/125/355 122/126/356 104/108/357
f 122/126/358 103/106/359 104/108/360
f 4/127/361 2/128/362 81/86/363 82/85/364
f 6/129/365 4/127/366 82/85/367 84/88/368
f 8/130/369 6/129/370 84/88/371 85/89/372
f 10/131/373 8/130/374 85/89/375 86/90/376
f 12/132/377 10/131/378 86/90/379 87/91/380
f 14/133/381 12/132/382 87/91/383 88/92/384
f 16/134/385 14/133/386 88/92/387 89/93/388
f 18/135/389 16/134/390 89/93/391 90/94/392
f 20/136/393 18/135/394 90/94/395 91/95/396
f 22/137/397 20/136/398 91/95/399 92/96/400
f 24/138/401 22/137/402 92/96/403 93/97/404
f 26/139/405 24/138/406 93/97/407 94/98/408
f 28/140/409 26/139/410 94/98/411 95/99/412
f 30/141/413 28/140/414 95/99/415 96/100/416
f 32/142/417 30/141/418 96/100/419 97/101/420
f 34/143/421 32/142/422 97/101/423 98/102/424
f 36/144/425 34/143/426 98/102/427 99/103/428
f 38/145/429 36/144/430 99/103/431 100/104/432
f 40/146/433 38/145/434 100/104/435 101/105/436
f 2/128/437 40/146/438 101/105/439 81/86/440
f 42/147/441 44/148/442 102/107/443 103/106/444
f 44/148/445 46/149/446 105/109/447 102/107/448
f 46/149/449 48/150/450 106/110/451 105/109/452
f 48/150/453 50/151/454 107/111/455 106/110/456
f 50/151/457 52/152/458 108/112/459 107/111/460
f 52/152/461 54/153/462 109/113/463 108/112/464
f 54/153/465 56/154/466 110/114/467 109/113/468
f 56/154/469 58/155/470 111/115/471 110/114/472
f 58/155/473 60/156/474 112/116/475 111/115/476
f 60/156/477 62/157/478 113/117/479 112/116/480
f 62/157/481 64/158/482 114/118/483 113/117/484
f 64/158/485 66/159/486 115/119/487 114/118/488
f 66/159/489 68/160/490 116/120/491 115/119/492
f 68/160/493 70/161/494 117/121/495 116/120/496
f 70/161/497 72/162/498 118/122/499 117/121/500
f 72/162/501 74/163/502 119/123/503 118/122/504
f 74/163/505 76/164/506 120/124/507 119/123/508
f 76/164/509 78/165/510 121/125/511 120/124/512
f 78/165/513 80/166/514 122/126/515 121/125/516
f 80/166/517 42/147/518 103/106/519 122/126/520
